<?xml version="1.0" encoding="utf-8" standalone="no"?>
<!DOCTYPE svg PUBLIC "-//W3C//DTD SVG 1.1//EN"
  "http://www.w3.org/Graphics/SVG/1.1/DTD/svg11.dtd">
<svg xmlns:xlink="http://www.w3.org/1999/xlink" width="1440pt" height="720pt" viewBox="0 0 1440 720" xmlns="http://www.w3.org/2000/svg" version="1.1">
 <metadata>
  <rdf:RDF xmlns:dc="http://purl.org/dc/elements/1.1/" xmlns:cc="http://creativecommons.org/ns#" xmlns:rdf="http://www.w3.org/1999/02/22-rdf-syntax-ns#">
   <cc:Work>
    <dc:type rdf:resource="http://purl.org/dc/dcmitype/StillImage"/>
    <dc:date>2023-06-25T21:45:27.130140</dc:date>
    <dc:format>image/svg+xml</dc:format>
    <dc:creator>
     <cc:Agent>
      <dc:title>Matplotlib v3.5.1, https://matplotlib.org/</dc:title>
     </cc:Agent>
    </dc:creator>
   </cc:Work>
  </rdf:RDF>
 </metadata>
 <defs>
  <style type="text/css">*{stroke-linejoin: round; stroke-linecap: butt}</style>
 </defs>
 <g id="figure_1">
  <g id="patch_1">
   <path d="M 0 720 
L 1440 720 
L 1440 0 
L 0 0 
L 0 720 
z
" style="fill: none"/>
  </g>
  <g id="axes_1">
   <g id="patch_2">
    <path d="M 94.44 649.56 
L 1420.56 649.56 
L 1420.56 43.44 
L 94.44 43.44 
z
" style="fill: #ffffff"/>
   </g>
   <g id="PolyCollection_1">
    <path d="M 313.646689 622.009091 
L 236.902401 622.009091 
L 234.013552 621.990824 
L 231.19637 621.972558 
L 228.492077 621.954291 
L 225.941598 621.936024 
L 223.584376 621.917758 
L 221.457192 621.899491 
L 219.593043 621.881225 
L 218.02014 621.862958 
L 216.761062 621.844691 
L 215.83212 621.826425 
L 215.242951 621.808158 
L 214.996364 621.789891 
L 215.088445 621.771625 
L 215.508907 621.753358 
L 216.241653 621.735092 
L 217.265543 621.716825 
L 218.555287 621.698558 
L 220.082443 621.680292 
L 221.816447 621.662025 
L 223.725637 621.643758 
L 225.778213 621.625492 
L 227.943101 621.607225 
L 230.190686 621.588959 
L 232.493386 621.570692 
L 234.826075 621.552425 
L 237.166338 621.534159 
L 239.494573 621.515892 
L 241.793968 621.497625 
L 244.050365 621.479359 
L 246.25204 621.461092 
L 248.389439 621.442826 
L 250.45488 621.424559 
L 252.44226 621.406292 
L 254.346779 621.388026 
L 256.164702 621.369759 
L 257.893157 621.351492 
L 259.529994 621.333226 
L 261.073676 621.314959 
L 262.523225 621.296693 
L 263.878196 621.278426 
L 265.138677 621.260159 
L 266.305304 621.241893 
L 267.379281 621.223626 
L 268.362396 621.205359 
L 269.257024 621.187093 
L 270.066114 621.168826 
L 270.793163 621.15056 
L 271.442166 621.132293 
L 272.017547 621.114026 
L 272.524078 621.09576 
L 272.96679 621.077493 
L 273.350874 621.059226 
L 273.68158 621.04096 
L 273.964122 621.022693 
L 274.203588 621.004427 
L 274.404862 620.98616 
L 274.572553 620.967893 
L 274.710942 620.949627 
L 274.823941 620.93136 
L 274.915063 620.913093 
L 274.987411 620.894827 
L 275.043665 620.87656 
L 275.086093 620.858294 
L 275.116558 620.840027 
L 275.136538 620.82176 
L 275.147145 620.803494 
L 275.149153 620.785227 
L 275.143024 620.766961 
L 275.128937 620.748694 
L 275.106822 620.730427 
L 275.076393 620.712161 
L 275.037184 620.693894 
L 274.988591 620.675627 
L 274.929912 620.657361 
L 274.860395 620.639094 
L 274.779289 620.620828 
L 274.685896 620.602561 
L 274.579629 620.584294 
L 274.460067 620.566028 
L 274.327017 620.547761 
L 274.180564 620.529494 
L 274.021125 620.511228 
L 273.849488 620.492961 
L 273.666848 620.474695 
L 273.474822 620.456428 
L 273.275454 620.438161 
L 273.071201 620.419895 
L 272.864896 620.401628 
L 272.6597 620.383361 
L 272.459027 620.365095 
L 272.266455 620.346828 
L 272.085628 620.328562 
L 271.920141 620.310295 
L 271.773423 620.292028 
L 271.64862 620.273762 
L 271.548484 620.255495 
L 271.475269 620.237228 
L 271.430651 620.218962 
L 271.415663 620.200695 
L 279.133428 620.200695 
L 279.133428 620.200695 
L 279.11844 620.218962 
L 279.073822 620.237228 
L 279.000607 620.255495 
L 278.90047 620.273762 
L 278.775668 620.292028 
L 278.62895 620.310295 
L 278.463463 620.328562 
L 278.282636 620.346828 
L 278.090064 620.365095 
L 277.889391 620.383361 
L 277.684195 620.401628 
L 277.47789 620.419895 
L 277.273637 620.438161 
L 277.074269 620.456428 
L 276.882243 620.474695 
L 276.699603 620.492961 
L 276.527966 620.511228 
L 276.368527 620.529494 
L 276.222074 620.547761 
L 276.089024 620.566028 
L 275.969462 620.584294 
L 275.863195 620.602561 
L 275.769802 620.620828 
L 275.688695 620.639094 
L 275.619178 620.657361 
L 275.560499 620.675627 
L 275.511906 620.693894 
L 275.472698 620.712161 
L 275.442269 620.730427 
L 275.420154 620.748694 
L 275.406067 620.766961 
L 275.399938 620.785227 
L 275.401946 620.803494 
L 275.412553 620.82176 
L 275.432533 620.840027 
L 275.462998 620.858294 
L 275.505426 620.87656 
L 275.56168 620.894827 
L 275.634028 620.913093 
L 275.72515 620.93136 
L 275.838149 620.949627 
L 275.976538 620.967893 
L 276.144229 620.98616 
L 276.345502 621.004427 
L 276.584969 621.022693 
L 276.867511 621.04096 
L 277.198216 621.059226 
L 277.5823 621.077493 
L 278.025013 621.09576 
L 278.531544 621.114026 
L 279.106925 621.132293 
L 279.755928 621.15056 
L 280.482977 621.168826 
L 281.292067 621.187093 
L 282.186694 621.205359 
L 283.169809 621.223626 
L 284.243787 621.241893 
L 285.410414 621.260159 
L 286.670895 621.278426 
L 288.025866 621.296693 
L 289.475415 621.314959 
L 291.019097 621.333226 
L 292.655934 621.351492 
L 294.384389 621.369759 
L 296.202312 621.388026 
L 298.106831 621.406292 
L 300.094211 621.424559 
L 302.159652 621.442826 
L 304.297051 621.461092 
L 306.498726 621.479359 
L 308.755123 621.497625 
L 311.054518 621.515892 
L 313.382753 621.534159 
L 315.723016 621.552425 
L 318.055705 621.570692 
L 320.358405 621.588959 
L 322.60599 621.607225 
L 324.770878 621.625492 
L 326.823454 621.643758 
L 328.732643 621.662025 
L 330.466648 621.680292 
L 331.993804 621.698558 
L 333.283548 621.716825 
L 334.307438 621.735092 
L 335.040184 621.753358 
L 335.460645 621.771625 
L 335.552727 621.789891 
L 335.30614 621.808158 
L 334.716971 621.826425 
L 333.788029 621.844691 
L 332.528951 621.862958 
L 330.956048 621.881225 
L 329.091899 621.899491 
L 326.964715 621.917758 
L 324.607493 621.936024 
L 322.057014 621.954291 
L 319.352721 621.972558 
L 316.535539 621.990824 
L 313.646689 622.009091 
z
" clip-path="url(#p134e75baed)" style="fill: #1f77b4; fill-opacity: 0.3"/>
   </g>
   <g id="PolyCollection_2">
    <path d="M 522.617082 534.844416 
L 510.157463 534.844416 
L 510.020751 534.73299 
L 509.894265 534.621563 
L 509.774172 534.510137 
L 509.655859 534.398711 
L 509.534005 534.287284 
L 509.402665 534.175858 
L 509.255373 534.064431 
L 509.085247 533.953005 
L 508.885115 533.841579 
L 508.647623 533.730152 
L 508.365356 533.618726 
L 508.030941 533.507299 
L 507.637151 533.395873 
L 507.17699 533.284447 
L 506.643775 533.17302 
L 506.031204 533.061594 
L 505.333426 532.950167 
L 504.545097 532.838741 
L 503.661448 532.727315 
L 502.678354 532.615888 
L 501.59241 532.504462 
L 500.401029 532.393035 
L 499.102546 532.281609 
L 497.696342 532.170183 
L 496.182984 532.058756 
L 494.564375 531.94733 
L 492.84391 531.835903 
L 491.026626 531.724477 
L 489.119347 531.613051 
L 487.1308 531.501624 
L 485.071699 531.390198 
L 482.954784 531.278771 
L 480.794799 531.167345 
L 478.608404 531.055919 
L 476.414017 530.944492 
L 474.231576 530.833066 
L 472.082223 530.721639 
L 469.987919 530.610213 
L 467.970994 530.498787 
L 466.053647 530.38736 
L 464.257409 530.275934 
L 462.602597 530.164507 
L 461.107775 530.053081 
L 459.78924 529.941654 
L 458.660562 529.830228 
L 457.732208 529.718802 
L 457.011238 529.607375 
L 456.501124 529.495949 
L 456.201678 529.384522 
L 456.109091 529.273096 
L 456.216105 529.16167 
L 456.512285 529.050243 
L 456.98439 528.938817 
L 457.616835 528.82739 
L 458.392203 528.715964 
L 459.291809 528.604538 
L 460.29627 528.493111 
L 461.386076 528.381685 
L 462.542128 528.270258 
L 463.746226 528.158832 
L 464.981496 528.047406 
L 466.232732 527.935979 
L 467.486662 527.824553 
L 468.732112 527.713126 
L 469.960092 527.6017 
L 471.163787 527.490274 
L 472.338482 527.378847 
L 473.48141 527.267421 
L 474.591553 527.155994 
L 475.669405 527.044568 
L 476.716704 526.933142 
L 477.736155 526.821715 
L 478.731155 526.710289 
L 479.705531 526.598862 
L 480.663297 526.487436 
L 481.608439 526.37601 
L 482.544739 526.264583 
L 483.47563 526.153157 
L 484.40409 526.04173 
L 485.332574 525.930304 
L 486.262975 525.818878 
L 487.196619 525.707451 
L 488.134285 525.596025 
L 489.076237 525.484598 
L 490.022284 525.373172 
L 490.971834 525.261746 
L 491.923969 525.150319 
L 492.877502 525.038893 
L 493.831048 524.927466 
L 494.783075 524.81604 
L 495.731955 524.704613 
L 496.676003 524.593187 
L 497.613506 524.481761 
L 498.542742 524.370334 
L 499.461996 524.258908 
L 500.369561 524.147481 
L 501.263741 524.036055 
L 502.142847 523.924629 
L 503.005199 523.813202 
L 529.769347 523.813202 
L 529.769347 523.813202 
L 530.631698 523.924629 
L 531.510805 524.036055 
L 532.404985 524.147481 
L 533.312549 524.258908 
L 534.231803 524.370334 
L 535.16104 524.481761 
L 536.098542 524.593187 
L 537.04259 524.704613 
L 537.99147 524.81604 
L 538.943497 524.927466 
L 539.897043 525.038893 
L 540.850577 525.150319 
L 541.802711 525.261746 
L 542.752262 525.373172 
L 543.698308 525.484598 
L 544.640261 525.596025 
L 545.577926 525.707451 
L 546.511571 525.818878 
L 547.441972 525.930304 
L 548.370456 526.04173 
L 549.298916 526.153157 
L 550.229806 526.264583 
L 551.166106 526.37601 
L 552.111249 526.487436 
L 553.069014 526.598862 
L 554.043391 526.710289 
L 555.038391 526.821715 
L 556.057841 526.933142 
L 557.10514 527.044568 
L 558.182992 527.155994 
L 559.293135 527.267421 
L 560.436063 527.378847 
L 561.610758 527.490274 
L 562.814454 527.6017 
L 564.042434 527.713126 
L 565.287884 527.824553 
L 566.541814 527.935979 
L 567.79305 528.047406 
L 569.028319 528.158832 
L 570.232417 528.270258 
L 571.388469 528.381685 
L 572.478275 528.493111 
L 573.482736 528.604538 
L 574.382342 528.715964 
L 575.15771 528.82739 
L 575.790155 528.938817 
L 576.262261 529.050243 
L 576.55844 529.16167 
L 576.665455 529.273096 
L 576.572868 529.384522 
L 576.273421 529.495949 
L 575.763308 529.607375 
L 575.042338 529.718802 
L 574.113983 529.830228 
L 572.985306 529.941654 
L 571.66677 530.053081 
L 570.171948 530.164507 
L 568.517137 530.275934 
L 566.720899 530.38736 
L 564.803551 530.498787 
L 562.786626 530.610213 
L 560.692323 530.721639 
L 558.54297 530.833066 
L 556.360529 530.944492 
L 554.166142 531.055919 
L 551.979747 531.167345 
L 549.819761 531.278771 
L 547.702847 531.390198 
L 545.643746 531.501624 
L 543.655199 531.613051 
L 541.747919 531.724477 
L 539.930635 531.835903 
L 538.21017 531.94733 
L 536.591562 532.058756 
L 535.078204 532.170183 
L 533.672 532.281609 
L 532.373516 532.393035 
L 531.182135 532.504462 
L 530.096192 532.615888 
L 529.113097 532.727315 
L 528.229448 532.838741 
L 527.441119 532.950167 
L 526.743341 533.061594 
L 526.130771 533.17302 
L 525.597555 533.284447 
L 525.137394 533.395873 
L 524.743604 533.507299 
L 524.40919 533.618726 
L 524.126922 533.730152 
L 523.889431 533.841579 
L 523.689298 533.953005 
L 523.519173 534.064431 
L 523.37188 534.175858 
L 523.24054 534.287284 
L 523.118687 534.398711 
L 523.000374 534.510137 
L 522.88028 534.621563 
L 522.753795 534.73299 
L 522.617082 534.844416 
z
" clip-path="url(#p134e75baed)" style="fill: #1f77b4; fill-opacity: 0.3"/>
   </g>
   <g id="PolyCollection_3">
    <path d="M 771.056655 519.111373 
L 743.943345 519.111373 
L 742.950402 519.018214 
L 741.908379 518.925054 
L 740.815853 518.831894 
L 739.671548 518.738734 
L 738.474399 518.645574 
L 737.223623 518.552415 
L 735.918793 518.459255 
L 734.559915 518.366095 
L 733.147508 518.272935 
L 731.68268 518.179776 
L 730.167204 518.086616 
L 728.603589 517.993456 
L 726.995143 517.900296 
L 725.346034 517.807136 
L 723.661337 517.713977 
L 721.947065 517.620817 
L 720.210197 517.527657 
L 718.458675 517.434497 
L 716.701397 517.341338 
L 714.948176 517.248178 
L 713.209683 517.155018 
L 711.497369 517.061858 
L 709.823353 516.968698 
L 708.200296 516.875539 
L 706.641239 516.782379 
L 705.159429 516.689219 
L 703.768119 516.596059 
L 702.480352 516.502899 
L 701.308737 516.40974 
L 700.265215 516.31658 
L 699.360823 516.22342 
L 698.605471 516.13026 
L 698.007727 516.037101 
L 697.574624 515.943941 
L 697.31149 515.850781 
L 697.221818 515.757621 
L 697.307164 515.664461 
L 697.567093 515.571302 
L 697.99916 515.478142 
L 698.598945 515.384982 
L 699.360122 515.291822 
L 700.274571 515.198663 
L 701.332531 515.105503 
L 702.522777 515.012343 
L 703.832831 514.919183 
L 705.249188 514.826023 
L 706.757557 514.732864 
L 708.343105 514.639704 
L 709.990702 514.546544 
L 711.685162 514.453384 
L 713.411464 514.360225 
L 715.154964 514.267065 
L 716.901581 514.173905 
L 718.637967 514.080745 
L 720.351647 513.987585 
L 722.031136 513.894426 
L 723.666038 513.801266 
L 725.247114 513.708106 
L 726.766337 513.614946 
L 728.216919 513.521787 
L 729.59333 513.428627 
L 730.891293 513.335467 
L 732.107766 513.242307 
L 733.240916 513.149147 
L 734.290071 513.055988 
L 735.255669 512.962828 
L 736.139188 512.869668 
L 736.943075 512.776508 
L 737.670653 512.683348 
L 738.326024 512.590189 
L 738.913968 512.497029 
L 739.439824 512.403869 
L 739.909377 512.310709 
L 740.328727 512.21755 
L 740.704176 512.12439 
L 741.042095 512.03123 
L 741.348815 511.93807 
L 741.63051 511.84491 
L 741.8931 511.751751 
L 742.142162 511.658591 
L 742.382854 511.565431 
L 742.619862 511.472271 
L 742.857349 511.379112 
L 743.098939 511.285952 
L 743.347702 511.192792 
L 743.606161 511.099632 
L 743.876307 511.006472 
L 744.159633 510.913313 
L 744.457163 510.820153 
L 744.769497 510.726993 
L 745.096857 510.633833 
L 745.439129 510.540674 
L 745.795904 510.447514 
L 746.166526 510.354354 
L 746.550118 510.261194 
L 746.94562 510.168034 
L 747.351811 510.074875 
L 747.767333 509.981715 
L 748.19071 509.888555 
L 766.80929 509.888555 
L 766.80929 509.888555 
L 767.232667 509.981715 
L 767.648189 510.074875 
L 768.05438 510.168034 
L 768.449882 510.261194 
L 768.833474 510.354354 
L 769.204096 510.447514 
L 769.560871 510.540674 
L 769.903143 510.633833 
L 770.230503 510.726993 
L 770.542837 510.820153 
L 770.840367 510.913313 
L 771.123693 511.006472 
L 771.393839 511.099632 
L 771.652298 511.192792 
L 771.901061 511.285952 
L 772.142651 511.379112 
L 772.380138 511.472271 
L 772.617146 511.565431 
L 772.857838 511.658591 
L 773.1069 511.751751 
L 773.36949 511.84491 
L 773.651185 511.93807 
L 773.957905 512.03123 
L 774.295824 512.12439 
L 774.671273 512.21755 
L 775.090623 512.310709 
L 775.560176 512.403869 
L 776.086032 512.497029 
L 776.673976 512.590189 
L 777.329347 512.683348 
L 778.056925 512.776508 
L 778.860812 512.869668 
L 779.744331 512.962828 
L 780.709929 513.055988 
L 781.759084 513.149147 
L 782.892234 513.242307 
L 784.108707 513.335467 
L 785.40667 513.428627 
L 786.783081 513.521787 
L 788.233663 513.614946 
L 789.752886 513.708106 
L 791.333962 513.801266 
L 792.968864 513.894426 
L 794.648353 513.987585 
L 796.362033 514.080745 
L 798.098419 514.173905 
L 799.845036 514.267065 
L 801.588536 514.360225 
L 803.314838 514.453384 
L 805.009298 514.546544 
L 806.656895 514.639704 
L 808.242443 514.732864 
L 809.750812 514.826023 
L 811.167169 514.919183 
L 812.477223 515.012343 
L 813.667469 515.105503 
L 814.725429 515.198663 
L 815.639878 515.291822 
L 816.401055 515.384982 
L 817.00084 515.478142 
L 817.432907 515.571302 
L 817.692836 515.664461 
L 817.778182 515.757621 
L 817.68851 515.850781 
L 817.425376 515.943941 
L 816.992273 516.037101 
L 816.394529 516.13026 
L 815.639177 516.22342 
L 814.734785 516.31658 
L 813.691263 516.40974 
L 812.519648 516.502899 
L 811.231881 516.596059 
L 809.840571 516.689219 
L 808.358761 516.782379 
L 806.799704 516.875539 
L 805.176647 516.968698 
L 803.502631 517.061858 
L 801.790317 517.155018 
L 800.051824 517.248178 
L 798.298603 517.341338 
L 796.541325 517.434497 
L 794.789803 517.527657 
L 793.052935 517.620817 
L 791.338663 517.713977 
L 789.653966 517.807136 
L 788.004857 517.900296 
L 786.396411 517.993456 
L 784.832796 518.086616 
L 783.31732 518.179776 
L 781.852492 518.272935 
L 780.440085 518.366095 
L 779.081207 518.459255 
L 777.776377 518.552415 
L 776.525601 518.645574 
L 775.328452 518.738734 
L 774.184147 518.831894 
L 773.091621 518.925054 
L 772.049598 519.018214 
L 771.056655 519.111373 
z
" clip-path="url(#p134e75baed)" style="fill: #1f77b4; fill-opacity: 0.3"/>
   </g>
   <g id="PolyCollection_4">
    <path d="M 1020.441618 448.583939 
L 976.783837 448.583939 
L 975.386779 448.51818 
L 973.964517 448.45242 
L 972.523099 448.38666 
L 971.069107 448.3209 
L 969.609615 448.25514 
L 968.15211 448.18938 
L 966.704414 448.123621 
L 965.274578 448.057861 
L 963.870772 447.992101 
L 962.501154 447.926341 
L 961.17373 447.860581 
L 959.896215 447.794821 
L 958.675876 447.729062 
L 957.519389 447.663302 
L 956.432688 447.597542 
L 955.420826 447.531782 
L 954.487856 447.466022 
L 953.636714 447.400262 
L 952.869134 447.334502 
L 952.185579 447.268743 
L 951.585203 447.202983 
L 951.06584 447.137223 
L 950.62402 447.071463 
L 950.255016 447.005703 
L 949.952923 446.939943 
L 949.710766 446.874184 
L 949.520626 446.808424 
L 949.373805 446.742664 
L 949.260993 446.676904 
L 949.172467 446.611144 
L 949.098293 446.545384 
L 949.028541 446.479624 
L 948.953496 446.413865 
L 948.863877 446.348105 
L 948.751037 446.282345 
L 948.607164 446.216585 
L 948.425458 446.150825 
L 948.200294 446.085065 
L 947.927359 446.019306 
L 947.603769 445.953546 
L 947.228154 445.887786 
L 946.800714 445.822026 
L 946.323246 445.756266 
L 945.799142 445.690506 
L 945.233348 445.624746 
L 944.632301 445.558987 
L 944.003827 445.493227 
L 943.357017 445.427467 
L 942.702073 445.361707 
L 942.050127 445.295947 
L 941.413042 445.230187 
L 940.803196 445.164428 
L 940.233247 445.098668 
L 939.715894 445.032908 
L 939.263629 444.967148 
L 938.888494 444.901388 
L 938.601837 444.835628 
L 938.414088 444.769868 
L 938.334545 444.704109 
L 938.371186 444.638349 
L 938.530502 444.572589 
L 938.817365 444.506829 
L 939.234933 444.441069 
L 939.784581 444.375309 
L 940.465881 444.30955 
L 941.276615 444.24379 
L 942.212832 444.17803 
L 943.268929 444.11227 
L 944.437784 444.04651 
L 945.710909 443.98075 
L 947.078627 443.91499 
L 948.530279 443.849231 
L 950.054442 443.783471 
L 951.639155 443.717711 
L 953.272155 443.651951 
L 954.941099 443.586191 
L 956.633797 443.520431 
L 958.338407 443.454672 
L 960.043638 443.388912 
L 961.73891 443.323152 
L 963.414499 443.257392 
L 965.061655 443.191632 
L 966.672687 443.125872 
L 968.24102 443.060113 
L 969.761226 442.994353 
L 971.22902 442.928593 
L 972.641241 442.862833 
L 973.995795 442.797073 
L 975.291592 442.731313 
L 976.528454 442.665553 
L 977.707017 442.599794 
L 978.828617 442.534034 
L 979.895176 442.468274 
L 980.909078 442.402514 
L 981.87305 442.336754 
L 982.790049 442.270994 
L 983.663151 442.205235 
L 984.49545 442.139475 
L 985.289972 442.073715 
L 1011.935483 442.073715 
L 1011.935483 442.073715 
L 1012.730005 442.139475 
L 1013.562304 442.205235 
L 1014.435406 442.270994 
L 1015.352405 442.336754 
L 1016.316377 442.402514 
L 1017.330278 442.468274 
L 1018.396837 442.534034 
L 1019.518438 442.599794 
L 1020.697001 442.665553 
L 1021.933863 442.731313 
L 1023.22966 442.797073 
L 1024.584214 442.862833 
L 1025.996434 442.928593 
L 1027.464229 442.994353 
L 1028.984434 443.060113 
L 1030.552768 443.125872 
L 1032.163799 443.191632 
L 1033.810956 443.257392 
L 1035.486545 443.323152 
L 1037.181816 443.388912 
L 1038.887047 443.454672 
L 1040.591658 443.520431 
L 1042.284355 443.586191 
L 1043.9533 443.651951 
L 1045.586299 443.717711 
L 1047.171013 443.783471 
L 1048.695176 443.849231 
L 1050.146828 443.91499 
L 1051.514546 443.98075 
L 1052.78767 444.04651 
L 1053.956526 444.11227 
L 1055.012623 444.17803 
L 1055.948839 444.24379 
L 1056.759574 444.30955 
L 1057.440874 444.375309 
L 1057.990522 444.441069 
L 1058.408089 444.506829 
L 1058.694953 444.572589 
L 1058.854268 444.638349 
L 1058.890909 444.704109 
L 1058.811367 444.769868 
L 1058.623618 444.835628 
L 1058.336961 444.901388 
L 1057.961825 444.967148 
L 1057.509561 445.032908 
L 1056.992208 445.098668 
L 1056.422259 445.164428 
L 1055.812412 445.230187 
L 1055.175328 445.295947 
L 1054.523381 445.361707 
L 1053.868437 445.427467 
L 1053.221628 445.493227 
L 1052.593154 445.558987 
L 1051.992107 445.624746 
L 1051.426313 445.690506 
L 1050.902209 445.756266 
L 1050.424741 445.822026 
L 1049.997301 445.887786 
L 1049.621685 445.953546 
L 1049.298096 446.019306 
L 1049.025161 446.085065 
L 1048.799996 446.150825 
L 1048.61829 446.216585 
L 1048.474417 446.282345 
L 1048.361577 446.348105 
L 1048.271958 446.413865 
L 1048.196914 446.479624 
L 1048.127162 446.545384 
L 1048.052988 446.611144 
L 1047.964462 446.676904 
L 1047.851649 446.742664 
L 1047.704828 446.808424 
L 1047.514689 446.874184 
L 1047.272532 446.939943 
L 1046.970439 447.005703 
L 1046.601435 447.071463 
L 1046.159614 447.137223 
L 1045.640251 447.202983 
L 1045.039876 447.268743 
L 1044.356321 447.334502 
L 1043.588741 447.400262 
L 1042.737599 447.466022 
L 1041.804628 447.531782 
L 1040.792767 447.597542 
L 1039.706065 447.663302 
L 1038.549578 447.729062 
L 1037.32924 447.794821 
L 1036.051725 447.860581 
L 1034.724301 447.926341 
L 1033.354682 447.992101 
L 1031.950876 448.057861 
L 1030.521041 448.123621 
L 1029.073344 448.18938 
L 1027.61584 448.25514 
L 1026.156347 448.3209 
L 1024.702356 448.38666 
L 1023.260937 448.45242 
L 1021.838676 448.51818 
L 1020.441618 448.583939 
z
" clip-path="url(#p134e75baed)" style="fill: #1f77b4; fill-opacity: 0.3"/>
   </g>
   <g id="PolyCollection_5">
    <path d="M 1265.348868 84.373038 
L 1214.102041 84.373038 
L 1213.325198 84.237865 
L 1212.579558 84.102692 
L 1211.865426 83.967519 
L 1211.182439 83.832346 
L 1210.529572 83.697172 
L 1209.905145 83.561999 
L 1209.306855 83.426826 
L 1208.731818 83.291653 
L 1208.176621 83.15648 
L 1207.637394 83.021307 
L 1207.109885 82.886134 
L 1206.589549 82.750961 
L 1206.071642 82.615788 
L 1205.551326 82.480615 
L 1205.023768 82.345442 
L 1204.484251 82.210269 
L 1203.928279 82.075096 
L 1203.351674 81.939923 
L 1202.750682 81.80475 
L 1202.122053 81.669577 
L 1201.463128 81.534404 
L 1200.771902 81.399231 
L 1200.047084 81.264058 
L 1199.288136 81.128885 
L 1198.4953 80.993712 
L 1197.669609 80.858539 
L 1196.812881 80.723366 
L 1195.9277 80.588193 
L 1195.017377 80.45302 
L 1194.085903 80.317847 
L 1193.137884 80.182674 
L 1192.178462 80.047501 
L 1191.213239 79.912328 
L 1190.248177 79.777155 
L 1189.289506 79.641982 
L 1188.343618 79.506809 
L 1187.416971 79.371636 
L 1186.51599 79.236463 
L 1185.646966 79.10129 
L 1184.815972 78.966117 
L 1184.028781 78.830944 
L 1183.290789 78.695771 
L 1182.606959 78.560598 
L 1181.981768 78.425425 
L 1181.419165 78.290252 
L 1180.92255 78.155079 
L 1180.494751 78.019906 
L 1180.138022 77.884733 
L 1179.854049 77.74956 
L 1179.643958 77.614387 
L 1179.508339 77.479214 
L 1179.447273 77.344041 
L 1179.460357 77.208868 
L 1179.546743 77.073695 
L 1179.705171 76.938522 
L 1179.934003 76.803349 
L 1180.23126 76.668176 
L 1180.594657 76.533003 
L 1181.021632 76.39783 
L 1181.509379 76.262657 
L 1182.054877 76.127484 
L 1182.654915 75.992311 
L 1183.306121 75.857138 
L 1184.004982 75.721965 
L 1184.747876 75.586792 
L 1185.531091 75.451619 
L 1186.350858 75.316446 
L 1187.203374 75.181273 
L 1188.084834 75.0461 
L 1188.991465 74.910927 
L 1189.919556 74.775754 
L 1190.865498 74.64058 
L 1191.825817 74.505407 
L 1192.797216 74.370234 
L 1193.776605 74.235061 
L 1194.761141 74.099888 
L 1195.748258 73.964715 
L 1196.735695 73.829542 
L 1197.721518 73.694369 
L 1198.70414 73.559196 
L 1199.682326 73.424023 
L 1200.655197 73.28885 
L 1201.622223 73.153677 
L 1202.583205 73.018504 
L 1203.538255 72.883331 
L 1204.487758 72.748158 
L 1205.432339 72.612985 
L 1206.37281 72.477812 
L 1207.310123 72.342639 
L 1208.245316 72.207466 
L 1209.179452 72.072293 
L 1210.113565 71.93712 
L 1211.0486 71.801947 
L 1211.985368 71.666774 
L 1212.924489 71.531601 
L 1213.866356 71.396428 
L 1214.811099 71.261255 
L 1215.758559 71.126082 
L 1216.708271 70.990909 
L 1262.742638 70.990909 
L 1262.742638 70.990909 
L 1263.69235 71.126082 
L 1264.63981 71.261255 
L 1265.584553 71.396428 
L 1266.52642 71.531601 
L 1267.465541 71.666774 
L 1268.402309 71.801947 
L 1269.337345 71.93712 
L 1270.271457 72.072293 
L 1271.205593 72.207466 
L 1272.140786 72.342639 
L 1273.078099 72.477812 
L 1274.01857 72.612985 
L 1274.963151 72.748158 
L 1275.912654 72.883331 
L 1276.867704 73.018504 
L 1277.828686 73.153677 
L 1278.795712 73.28885 
L 1279.768583 73.424023 
L 1280.746769 73.559196 
L 1281.729391 73.694369 
L 1282.715214 73.829542 
L 1283.702651 73.964715 
L 1284.689768 74.099888 
L 1285.674304 74.235061 
L 1286.653693 74.370234 
L 1287.625092 74.505407 
L 1288.585412 74.64058 
L 1289.531353 74.775754 
L 1290.459444 74.910927 
L 1291.366075 75.0461 
L 1292.247535 75.181273 
L 1293.100051 75.316446 
L 1293.919818 75.451619 
L 1294.703033 75.586792 
L 1295.445927 75.721965 
L 1296.144789 75.857138 
L 1296.795994 75.992311 
L 1297.396032 76.127484 
L 1297.94153 76.262657 
L 1298.429277 76.39783 
L 1298.856252 76.533003 
L 1299.219649 76.668176 
L 1299.516906 76.803349 
L 1299.745738 76.938522 
L 1299.904166 77.073695 
L 1299.990552 77.208868 
L 1300.003636 77.344041 
L 1299.94257 77.479214 
L 1299.806951 77.614387 
L 1299.59686 77.74956 
L 1299.312887 77.884733 
L 1298.956158 78.019906 
L 1298.528359 78.155079 
L 1298.031744 78.290252 
L 1297.469141 78.425425 
L 1296.84395 78.560598 
L 1296.16012 78.695771 
L 1295.422128 78.830944 
L 1294.634937 78.966117 
L 1293.803943 79.10129 
L 1292.934919 79.236463 
L 1292.033938 79.371636 
L 1291.107292 79.506809 
L 1290.161404 79.641982 
L 1289.202732 79.777155 
L 1288.23767 79.912328 
L 1287.272447 80.047501 
L 1286.313026 80.182674 
L 1285.365006 80.317847 
L 1284.433532 80.45302 
L 1283.523209 80.588193 
L 1282.638028 80.723366 
L 1281.7813 80.858539 
L 1280.955609 80.993712 
L 1280.162773 81.128885 
L 1279.403825 81.264058 
L 1278.679007 81.399231 
L 1277.987781 81.534404 
L 1277.328856 81.669577 
L 1276.700227 81.80475 
L 1276.099235 81.939923 
L 1275.52263 82.075096 
L 1274.966658 82.210269 
L 1274.427141 82.345442 
L 1273.899583 82.480615 
L 1273.379267 82.615788 
L 1272.86136 82.750961 
L 1272.341024 82.886134 
L 1271.813515 83.021307 
L 1271.274288 83.15648 
L 1270.719091 83.291653 
L 1270.144054 83.426826 
L 1269.545764 83.561999 
L 1268.921337 83.697172 
L 1268.26847 83.832346 
L 1267.585484 83.967519 
L 1266.871351 84.102692 
L 1266.125711 84.237865 
L 1265.348868 84.373038 
z
" clip-path="url(#p134e75baed)" style="fill: #1f77b4; fill-opacity: 0.3"/>
   </g>
   <g id="PolyCollection_6">
    <defs>
     <path id="md0970e99f5" d="M 34.161818 -676.56 
L 34.161818 -70.44 
L 395.830909 -70.44 
L 395.830909 -676.56 
L 395.830909 -676.56 
L 34.161818 -676.56 
z
" style="stroke: #ff0000; stroke-opacity: 0.05"/>
    </defs>
    <g clip-path="url(#p134e75baed)">
     <use xlink:href="#md0970e99f5" x="0" y="720" style="fill: #ff0000; fill-opacity: 0.05; stroke: #ff0000; stroke-opacity: 0.05"/>
    </g>
   </g>
   <g id="PolyCollection_7">
    <defs>
     <path id="m2e94076b59" d="M 395.830909 -676.56 
L 395.830909 -70.44 
L 1119.169091 -70.44 
L 1119.169091 -676.56 
L 1119.169091 -676.56 
L 395.830909 -676.56 
z
" style="stroke: #008000; stroke-opacity: 0.05"/>
    </defs>
    <g clip-path="url(#p134e75baed)">
     <use xlink:href="#m2e94076b59" x="0" y="720" style="fill: #008000; fill-opacity: 0.05; stroke: #008000; stroke-opacity: 0.05"/>
    </g>
   </g>
   <g id="PolyCollection_8">
    <defs>
     <path id="me30a67b230" d="M 1119.169091 -676.56 
L 1119.169091 -70.44 
L 1601.394545 -70.44 
L 1601.394545 -676.56 
L 1601.394545 -676.56 
L 1119.169091 -676.56 
z
" style="stroke: #ff0000; stroke-opacity: 0.05"/>
    </defs>
    <g clip-path="url(#p134e75baed)">
     <use xlink:href="#me30a67b230" x="0" y="720" style="fill: #ff0000; fill-opacity: 0.05; stroke: #ff0000; stroke-opacity: 0.05"/>
    </g>
   </g>
   <g id="matplotlib.axis_1">
    <g id="xtick_1">
     <g id="line2d_1">
      <path d="M 275.274545 649.56 
L 275.274545 43.44 
" clip-path="url(#p134e75baed)" style="fill: none; stroke-dasharray: 3.7,1.6; stroke-dashoffset: 0; stroke: #666666"/>
     </g>
     <g id="line2d_2">
      <defs>
       <path id="m342092bfeb" d="M 0 0 
L 0 3.5 
" style="stroke: #000000; stroke-width: 0.8"/>
      </defs>
      <g>
       <use xlink:href="#m342092bfeb" x="275.274545" y="649.56" style="stroke: #000000; stroke-width: 0.8"/>
      </g>
     </g>
     <g id="text_1">
      <!-- fsync never -->
      <g transform="translate(222.772202 670.237188)scale(0.18 -0.18)">
       <defs>
        <path id="DejaVuSans-66" d="M 2375 4863 
L 2375 4384 
L 1825 4384 
Q 1516 4384 1395 4259 
Q 1275 4134 1275 3809 
L 1275 3500 
L 2222 3500 
L 2222 3053 
L 1275 3053 
L 1275 0 
L 697 0 
L 697 3053 
L 147 3053 
L 147 3500 
L 697 3500 
L 697 3744 
Q 697 4328 969 4595 
Q 1241 4863 1831 4863 
L 2375 4863 
z
" transform="scale(0.015625)"/>
        <path id="DejaVuSans-73" d="M 2834 3397 
L 2834 2853 
Q 2591 2978 2328 3040 
Q 2066 3103 1784 3103 
Q 1356 3103 1142 2972 
Q 928 2841 928 2578 
Q 928 2378 1081 2264 
Q 1234 2150 1697 2047 
L 1894 2003 
Q 2506 1872 2764 1633 
Q 3022 1394 3022 966 
Q 3022 478 2636 193 
Q 2250 -91 1575 -91 
Q 1294 -91 989 -36 
Q 684 19 347 128 
L 347 722 
Q 666 556 975 473 
Q 1284 391 1588 391 
Q 1994 391 2212 530 
Q 2431 669 2431 922 
Q 2431 1156 2273 1281 
Q 2116 1406 1581 1522 
L 1381 1569 
Q 847 1681 609 1914 
Q 372 2147 372 2553 
Q 372 3047 722 3315 
Q 1072 3584 1716 3584 
Q 2034 3584 2315 3537 
Q 2597 3491 2834 3397 
z
" transform="scale(0.015625)"/>
        <path id="DejaVuSans-79" d="M 2059 -325 
Q 1816 -950 1584 -1140 
Q 1353 -1331 966 -1331 
L 506 -1331 
L 506 -850 
L 844 -850 
Q 1081 -850 1212 -737 
Q 1344 -625 1503 -206 
L 1606 56 
L 191 3500 
L 800 3500 
L 1894 763 
L 2988 3500 
L 3597 3500 
L 2059 -325 
z
" transform="scale(0.015625)"/>
        <path id="DejaVuSans-6e" d="M 3513 2113 
L 3513 0 
L 2938 0 
L 2938 2094 
Q 2938 2591 2744 2837 
Q 2550 3084 2163 3084 
Q 1697 3084 1428 2787 
Q 1159 2491 1159 1978 
L 1159 0 
L 581 0 
L 581 3500 
L 1159 3500 
L 1159 2956 
Q 1366 3272 1645 3428 
Q 1925 3584 2291 3584 
Q 2894 3584 3203 3211 
Q 3513 2838 3513 2113 
z
" transform="scale(0.015625)"/>
        <path id="DejaVuSans-63" d="M 3122 3366 
L 3122 2828 
Q 2878 2963 2633 3030 
Q 2388 3097 2138 3097 
Q 1578 3097 1268 2742 
Q 959 2388 959 1747 
Q 959 1106 1268 751 
Q 1578 397 2138 397 
Q 2388 397 2633 464 
Q 2878 531 3122 666 
L 3122 134 
Q 2881 22 2623 -34 
Q 2366 -91 2075 -91 
Q 1284 -91 818 406 
Q 353 903 353 1747 
Q 353 2603 823 3093 
Q 1294 3584 2113 3584 
Q 2378 3584 2631 3529 
Q 2884 3475 3122 3366 
z
" transform="scale(0.015625)"/>
        <path id="DejaVuSans-20" transform="scale(0.015625)"/>
        <path id="DejaVuSans-65" d="M 3597 1894 
L 3597 1613 
L 953 1613 
Q 991 1019 1311 708 
Q 1631 397 2203 397 
Q 2534 397 2845 478 
Q 3156 559 3463 722 
L 3463 178 
Q 3153 47 2828 -22 
Q 2503 -91 2169 -91 
Q 1331 -91 842 396 
Q 353 884 353 1716 
Q 353 2575 817 3079 
Q 1281 3584 2069 3584 
Q 2775 3584 3186 3129 
Q 3597 2675 3597 1894 
z
M 3022 2063 
Q 3016 2534 2758 2815 
Q 2500 3097 2075 3097 
Q 1594 3097 1305 2825 
Q 1016 2553 972 2059 
L 3022 2063 
z
" transform="scale(0.015625)"/>
        <path id="DejaVuSans-76" d="M 191 3500 
L 800 3500 
L 1894 563 
L 2988 3500 
L 3597 3500 
L 2284 0 
L 1503 0 
L 191 3500 
z
" transform="scale(0.015625)"/>
        <path id="DejaVuSans-72" d="M 2631 2963 
Q 2534 3019 2420 3045 
Q 2306 3072 2169 3072 
Q 1681 3072 1420 2755 
Q 1159 2438 1159 1844 
L 1159 0 
L 581 0 
L 581 3500 
L 1159 3500 
L 1159 2956 
Q 1341 3275 1631 3429 
Q 1922 3584 2338 3584 
Q 2397 3584 2469 3576 
Q 2541 3569 2628 3553 
L 2631 2963 
z
" transform="scale(0.015625)"/>
       </defs>
       <use xlink:href="#DejaVuSans-66"/>
       <use xlink:href="#DejaVuSans-73" x="35.205078"/>
       <use xlink:href="#DejaVuSans-79" x="87.304688"/>
       <use xlink:href="#DejaVuSans-6e" x="146.484375"/>
       <use xlink:href="#DejaVuSans-63" x="209.863281"/>
       <use xlink:href="#DejaVuSans-20" x="264.84375"/>
       <use xlink:href="#DejaVuSans-6e" x="296.630859"/>
       <use xlink:href="#DejaVuSans-65" x="360.009766"/>
       <use xlink:href="#DejaVuSans-76" x="421.533203"/>
       <use xlink:href="#DejaVuSans-65" x="480.712891"/>
       <use xlink:href="#DejaVuSans-72" x="542.236328"/>
      </g>
     </g>
    </g>
    <g id="xtick_2">
     <g id="line2d_3">
      <path d="M 516.387273 649.56 
L 516.387273 43.44 
" clip-path="url(#p134e75baed)" style="fill: none; stroke-dasharray: 3.7,1.6; stroke-dashoffset: 0; stroke: #666666"/>
     </g>
     <g id="line2d_4">
      <g>
       <use xlink:href="#m342092bfeb" x="516.387273" y="649.56" style="stroke: #000000; stroke-width: 0.8"/>
      </g>
     </g>
     <g id="text_2">
      <!-- fsync@end -->
      <g transform="translate(466.596179 670.237188)scale(0.18 -0.18)">
       <defs>
        <path id="DejaVuSans-40" d="M 2381 1678 
Q 2381 1231 2603 976 
Q 2825 722 3213 722 
Q 3597 722 3817 978 
Q 4038 1234 4038 1678 
Q 4038 2116 3813 2373 
Q 3588 2631 3206 2631 
Q 2828 2631 2604 2375 
Q 2381 2119 2381 1678 
z
M 4084 744 
Q 3897 503 3655 389 
Q 3413 275 3091 275 
Q 2553 275 2217 664 
Q 1881 1053 1881 1678 
Q 1881 2303 2218 2693 
Q 2556 3084 3091 3084 
Q 3413 3084 3656 2967 
Q 3900 2850 4084 2613 
L 4084 3022 
L 4531 3022 
L 4531 722 
Q 4988 791 5245 1139 
Q 5503 1488 5503 2041 
Q 5503 2375 5404 2669 
Q 5306 2963 5106 3213 
Q 4781 3622 4314 3839 
Q 3847 4056 3297 4056 
Q 2913 4056 2559 3954 
Q 2206 3853 1906 3653 
Q 1416 3334 1139 2817 
Q 863 2300 863 1697 
Q 863 1200 1042 765 
Q 1222 331 1563 0 
Q 1891 -325 2322 -495 
Q 2753 -666 3244 -666 
Q 3647 -666 4036 -530 
Q 4425 -394 4750 -141 
L 5031 -488 
Q 4641 -791 4180 -952 
Q 3719 -1113 3244 -1113 
Q 2666 -1113 2153 -908 
Q 1641 -703 1241 -313 
Q 841 78 631 592 
Q 422 1106 422 1697 
Q 422 2266 634 2781 
Q 847 3297 1241 3688 
Q 1644 4084 2172 4295 
Q 2700 4506 3291 4506 
Q 3953 4506 4520 4234 
Q 5088 3963 5472 3463 
Q 5706 3156 5829 2797 
Q 5953 2438 5953 2053 
Q 5953 1231 5456 756 
Q 4959 281 4084 263 
L 4084 744 
z
" transform="scale(0.015625)"/>
        <path id="DejaVuSans-64" d="M 2906 2969 
L 2906 4863 
L 3481 4863 
L 3481 0 
L 2906 0 
L 2906 525 
Q 2725 213 2448 61 
Q 2172 -91 1784 -91 
Q 1150 -91 751 415 
Q 353 922 353 1747 
Q 353 2572 751 3078 
Q 1150 3584 1784 3584 
Q 2172 3584 2448 3432 
Q 2725 3281 2906 2969 
z
M 947 1747 
Q 947 1113 1208 752 
Q 1469 391 1925 391 
Q 2381 391 2643 752 
Q 2906 1113 2906 1747 
Q 2906 2381 2643 2742 
Q 2381 3103 1925 3103 
Q 1469 3103 1208 2742 
Q 947 2381 947 1747 
z
" transform="scale(0.015625)"/>
       </defs>
       <use xlink:href="#DejaVuSans-66"/>
       <use xlink:href="#DejaVuSans-73" x="35.205078"/>
       <use xlink:href="#DejaVuSans-79" x="87.304688"/>
       <use xlink:href="#DejaVuSans-6e" x="146.484375"/>
       <use xlink:href="#DejaVuSans-63" x="209.863281"/>
       <use xlink:href="#DejaVuSans-40" x="264.84375"/>
       <use xlink:href="#DejaVuSans-65" x="364.84375"/>
       <use xlink:href="#DejaVuSans-6e" x="426.367188"/>
       <use xlink:href="#DejaVuSans-64" x="489.746094"/>
      </g>
     </g>
    </g>
    <g id="xtick_3">
     <g id="line2d_5">
      <path d="M 757.5 649.56 
L 757.5 43.44 
" clip-path="url(#p134e75baed)" style="fill: none; stroke-dasharray: 3.7,1.6; stroke-dashoffset: 0; stroke: #666666"/>
     </g>
     <g id="line2d_6">
      <g>
       <use xlink:href="#m342092bfeb" x="757.5" y="649.56" style="stroke: #000000; stroke-width: 0.8"/>
      </g>
     </g>
     <g id="text_3">
      <!-- fsync@100MiB -->
      <g transform="translate(691.044844 670.237188)scale(0.18 -0.18)">
       <defs>
        <path id="DejaVuSans-31" d="M 794 531 
L 1825 531 
L 1825 4091 
L 703 3866 
L 703 4441 
L 1819 4666 
L 2450 4666 
L 2450 531 
L 3481 531 
L 3481 0 
L 794 0 
L 794 531 
z
" transform="scale(0.015625)"/>
        <path id="DejaVuSans-30" d="M 2034 4250 
Q 1547 4250 1301 3770 
Q 1056 3291 1056 2328 
Q 1056 1369 1301 889 
Q 1547 409 2034 409 
Q 2525 409 2770 889 
Q 3016 1369 3016 2328 
Q 3016 3291 2770 3770 
Q 2525 4250 2034 4250 
z
M 2034 4750 
Q 2819 4750 3233 4129 
Q 3647 3509 3647 2328 
Q 3647 1150 3233 529 
Q 2819 -91 2034 -91 
Q 1250 -91 836 529 
Q 422 1150 422 2328 
Q 422 3509 836 4129 
Q 1250 4750 2034 4750 
z
" transform="scale(0.015625)"/>
        <path id="DejaVuSans-4d" d="M 628 4666 
L 1569 4666 
L 2759 1491 
L 3956 4666 
L 4897 4666 
L 4897 0 
L 4281 0 
L 4281 4097 
L 3078 897 
L 2444 897 
L 1241 4097 
L 1241 0 
L 628 0 
L 628 4666 
z
" transform="scale(0.015625)"/>
        <path id="DejaVuSans-69" d="M 603 3500 
L 1178 3500 
L 1178 0 
L 603 0 
L 603 3500 
z
M 603 4863 
L 1178 4863 
L 1178 4134 
L 603 4134 
L 603 4863 
z
" transform="scale(0.015625)"/>
        <path id="DejaVuSans-42" d="M 1259 2228 
L 1259 519 
L 2272 519 
Q 2781 519 3026 730 
Q 3272 941 3272 1375 
Q 3272 1813 3026 2020 
Q 2781 2228 2272 2228 
L 1259 2228 
z
M 1259 4147 
L 1259 2741 
L 2194 2741 
Q 2656 2741 2882 2914 
Q 3109 3088 3109 3444 
Q 3109 3797 2882 3972 
Q 2656 4147 2194 4147 
L 1259 4147 
z
M 628 4666 
L 2241 4666 
Q 2963 4666 3353 4366 
Q 3744 4066 3744 3513 
Q 3744 3084 3544 2831 
Q 3344 2578 2956 2516 
Q 3422 2416 3680 2098 
Q 3938 1781 3938 1306 
Q 3938 681 3513 340 
Q 3088 0 2303 0 
L 628 0 
L 628 4666 
z
" transform="scale(0.015625)"/>
       </defs>
       <use xlink:href="#DejaVuSans-66"/>
       <use xlink:href="#DejaVuSans-73" x="35.205078"/>
       <use xlink:href="#DejaVuSans-79" x="87.304688"/>
       <use xlink:href="#DejaVuSans-6e" x="146.484375"/>
       <use xlink:href="#DejaVuSans-63" x="209.863281"/>
       <use xlink:href="#DejaVuSans-40" x="264.84375"/>
       <use xlink:href="#DejaVuSans-31" x="364.84375"/>
       <use xlink:href="#DejaVuSans-30" x="428.466797"/>
       <use xlink:href="#DejaVuSans-30" x="492.089844"/>
       <use xlink:href="#DejaVuSans-4d" x="555.712891"/>
       <use xlink:href="#DejaVuSans-69" x="641.992188"/>
       <use xlink:href="#DejaVuSans-42" x="669.775391"/>
      </g>
     </g>
    </g>
    <g id="xtick_4">
     <g id="line2d_7">
      <path d="M 998.612727 649.56 
L 998.612727 43.44 
" clip-path="url(#p134e75baed)" style="fill: none; stroke-dasharray: 3.7,1.6; stroke-dashoffset: 0; stroke: #666666"/>
     </g>
     <g id="line2d_8">
      <g>
       <use xlink:href="#m342092bfeb" x="998.612727" y="649.56" style="stroke: #000000; stroke-width: 0.8"/>
      </g>
     </g>
     <g id="text_4">
      <!-- fsync@10MiB -->
      <g transform="translate(937.883821 670.237188)scale(0.18 -0.18)">
       <use xlink:href="#DejaVuSans-66"/>
       <use xlink:href="#DejaVuSans-73" x="35.205078"/>
       <use xlink:href="#DejaVuSans-79" x="87.304688"/>
       <use xlink:href="#DejaVuSans-6e" x="146.484375"/>
       <use xlink:href="#DejaVuSans-63" x="209.863281"/>
       <use xlink:href="#DejaVuSans-40" x="264.84375"/>
       <use xlink:href="#DejaVuSans-31" x="364.84375"/>
       <use xlink:href="#DejaVuSans-30" x="428.466797"/>
       <use xlink:href="#DejaVuSans-4d" x="492.089844"/>
       <use xlink:href="#DejaVuSans-69" x="578.369141"/>
       <use xlink:href="#DejaVuSans-42" x="606.152344"/>
      </g>
     </g>
    </g>
    <g id="xtick_5">
     <g id="line2d_9">
      <path d="M 1239.725455 649.56 
L 1239.725455 43.44 
" clip-path="url(#p134e75baed)" style="fill: none; stroke-dasharray: 3.7,1.6; stroke-dashoffset: 0; stroke: #666666"/>
     </g>
     <g id="line2d_10">
      <g>
       <use xlink:href="#m342092bfeb" x="1239.725455" y="649.56" style="stroke: #000000; stroke-width: 0.8"/>
      </g>
     </g>
     <g id="text_5">
      <!-- fsync@1MiB -->
      <g transform="translate(1184.722798 670.237188)scale(0.18 -0.18)">
       <use xlink:href="#DejaVuSans-66"/>
       <use xlink:href="#DejaVuSans-73" x="35.205078"/>
       <use xlink:href="#DejaVuSans-79" x="87.304688"/>
       <use xlink:href="#DejaVuSans-6e" x="146.484375"/>
       <use xlink:href="#DejaVuSans-63" x="209.863281"/>
       <use xlink:href="#DejaVuSans-40" x="264.84375"/>
       <use xlink:href="#DejaVuSans-31" x="364.84375"/>
       <use xlink:href="#DejaVuSans-4d" x="428.466797"/>
       <use xlink:href="#DejaVuSans-69" x="514.746094"/>
       <use xlink:href="#DejaVuSans-42" x="542.529297"/>
      </g>
     </g>
    </g>
    <g id="xtick_6">
     <g id="line2d_11">
      <path d="M 130.606909 649.56 
L 130.606909 43.44 
" clip-path="url(#p134e75baed)" style="fill: none; stroke-dasharray: 0.4,0.66; stroke-dashoffset: 0; stroke: #000000; stroke-width: 0.4"/>
     </g>
     <g id="line2d_12">
      <defs>
       <path id="m76c90c42dc" d="M 0 0 
L 0 2 
" style="stroke: #000000; stroke-width: 0.6"/>
      </defs>
      <g>
       <use xlink:href="#m76c90c42dc" x="130.606909" y="649.56" style="stroke: #000000; stroke-width: 0.6"/>
      </g>
     </g>
    </g>
    <g id="xtick_7">
     <g id="line2d_13">
      <path d="M 178.829455 649.56 
L 178.829455 43.44 
" clip-path="url(#p134e75baed)" style="fill: none; stroke-dasharray: 0.4,0.66; stroke-dashoffset: 0; stroke: #000000; stroke-width: 0.4"/>
     </g>
     <g id="line2d_14">
      <g>
       <use xlink:href="#m76c90c42dc" x="178.829455" y="649.56" style="stroke: #000000; stroke-width: 0.6"/>
      </g>
     </g>
    </g>
    <g id="xtick_8">
     <g id="line2d_15">
      <path d="M 227.052 649.56 
L 227.052 43.44 
" clip-path="url(#p134e75baed)" style="fill: none; stroke-dasharray: 0.4,0.66; stroke-dashoffset: 0; stroke: #000000; stroke-width: 0.4"/>
     </g>
     <g id="line2d_16">
      <g>
       <use xlink:href="#m76c90c42dc" x="227.052" y="649.56" style="stroke: #000000; stroke-width: 0.6"/>
      </g>
     </g>
    </g>
    <g id="xtick_9">
     <g id="line2d_17">
      <path d="M 323.497091 649.56 
L 323.497091 43.44 
" clip-path="url(#p134e75baed)" style="fill: none; stroke-dasharray: 0.4,0.66; stroke-dashoffset: 0; stroke: #000000; stroke-width: 0.4"/>
     </g>
     <g id="line2d_18">
      <g>
       <use xlink:href="#m76c90c42dc" x="323.497091" y="649.56" style="stroke: #000000; stroke-width: 0.6"/>
      </g>
     </g>
    </g>
    <g id="xtick_10">
     <g id="line2d_19">
      <path d="M 371.719636 649.56 
L 371.719636 43.44 
" clip-path="url(#p134e75baed)" style="fill: none; stroke-dasharray: 0.4,0.66; stroke-dashoffset: 0; stroke: #000000; stroke-width: 0.4"/>
     </g>
     <g id="line2d_20">
      <g>
       <use xlink:href="#m76c90c42dc" x="371.719636" y="649.56" style="stroke: #000000; stroke-width: 0.6"/>
      </g>
     </g>
    </g>
    <g id="xtick_11">
     <g id="line2d_21">
      <path d="M 419.942182 649.56 
L 419.942182 43.44 
" clip-path="url(#p134e75baed)" style="fill: none; stroke-dasharray: 0.4,0.66; stroke-dashoffset: 0; stroke: #000000; stroke-width: 0.4"/>
     </g>
     <g id="line2d_22">
      <g>
       <use xlink:href="#m76c90c42dc" x="419.942182" y="649.56" style="stroke: #000000; stroke-width: 0.6"/>
      </g>
     </g>
    </g>
    <g id="xtick_12">
     <g id="line2d_23">
      <path d="M 468.164727 649.56 
L 468.164727 43.44 
" clip-path="url(#p134e75baed)" style="fill: none; stroke-dasharray: 0.4,0.66; stroke-dashoffset: 0; stroke: #000000; stroke-width: 0.4"/>
     </g>
     <g id="line2d_24">
      <g>
       <use xlink:href="#m76c90c42dc" x="468.164727" y="649.56" style="stroke: #000000; stroke-width: 0.6"/>
      </g>
     </g>
    </g>
    <g id="xtick_13">
     <g id="line2d_25">
      <path d="M 564.609818 649.56 
L 564.609818 43.44 
" clip-path="url(#p134e75baed)" style="fill: none; stroke-dasharray: 0.4,0.66; stroke-dashoffset: 0; stroke: #000000; stroke-width: 0.4"/>
     </g>
     <g id="line2d_26">
      <g>
       <use xlink:href="#m76c90c42dc" x="564.609818" y="649.56" style="stroke: #000000; stroke-width: 0.6"/>
      </g>
     </g>
    </g>
    <g id="xtick_14">
     <g id="line2d_27">
      <path d="M 612.832364 649.56 
L 612.832364 43.44 
" clip-path="url(#p134e75baed)" style="fill: none; stroke-dasharray: 0.4,0.66; stroke-dashoffset: 0; stroke: #000000; stroke-width: 0.4"/>
     </g>
     <g id="line2d_28">
      <g>
       <use xlink:href="#m76c90c42dc" x="612.832364" y="649.56" style="stroke: #000000; stroke-width: 0.6"/>
      </g>
     </g>
    </g>
    <g id="xtick_15">
     <g id="line2d_29">
      <path d="M 661.054909 649.56 
L 661.054909 43.44 
" clip-path="url(#p134e75baed)" style="fill: none; stroke-dasharray: 0.4,0.66; stroke-dashoffset: 0; stroke: #000000; stroke-width: 0.4"/>
     </g>
     <g id="line2d_30">
      <g>
       <use xlink:href="#m76c90c42dc" x="661.054909" y="649.56" style="stroke: #000000; stroke-width: 0.6"/>
      </g>
     </g>
    </g>
    <g id="xtick_16">
     <g id="line2d_31">
      <path d="M 709.277455 649.56 
L 709.277455 43.44 
" clip-path="url(#p134e75baed)" style="fill: none; stroke-dasharray: 0.4,0.66; stroke-dashoffset: 0; stroke: #000000; stroke-width: 0.4"/>
     </g>
     <g id="line2d_32">
      <g>
       <use xlink:href="#m76c90c42dc" x="709.277455" y="649.56" style="stroke: #000000; stroke-width: 0.6"/>
      </g>
     </g>
    </g>
    <g id="xtick_17">
     <g id="line2d_33">
      <path d="M 805.722545 649.56 
L 805.722545 43.44 
" clip-path="url(#p134e75baed)" style="fill: none; stroke-dasharray: 0.4,0.66; stroke-dashoffset: 0; stroke: #000000; stroke-width: 0.4"/>
     </g>
     <g id="line2d_34">
      <g>
       <use xlink:href="#m76c90c42dc" x="805.722545" y="649.56" style="stroke: #000000; stroke-width: 0.6"/>
      </g>
     </g>
    </g>
    <g id="xtick_18">
     <g id="line2d_35">
      <path d="M 853.945091 649.56 
L 853.945091 43.44 
" clip-path="url(#p134e75baed)" style="fill: none; stroke-dasharray: 0.4,0.66; stroke-dashoffset: 0; stroke: #000000; stroke-width: 0.4"/>
     </g>
     <g id="line2d_36">
      <g>
       <use xlink:href="#m76c90c42dc" x="853.945091" y="649.56" style="stroke: #000000; stroke-width: 0.6"/>
      </g>
     </g>
    </g>
    <g id="xtick_19">
     <g id="line2d_37">
      <path d="M 902.167636 649.56 
L 902.167636 43.44 
" clip-path="url(#p134e75baed)" style="fill: none; stroke-dasharray: 0.4,0.66; stroke-dashoffset: 0; stroke: #000000; stroke-width: 0.4"/>
     </g>
     <g id="line2d_38">
      <g>
       <use xlink:href="#m76c90c42dc" x="902.167636" y="649.56" style="stroke: #000000; stroke-width: 0.6"/>
      </g>
     </g>
    </g>
    <g id="xtick_20">
     <g id="line2d_39">
      <path d="M 950.390182 649.56 
L 950.390182 43.44 
" clip-path="url(#p134e75baed)" style="fill: none; stroke-dasharray: 0.4,0.66; stroke-dashoffset: 0; stroke: #000000; stroke-width: 0.4"/>
     </g>
     <g id="line2d_40">
      <g>
       <use xlink:href="#m76c90c42dc" x="950.390182" y="649.56" style="stroke: #000000; stroke-width: 0.6"/>
      </g>
     </g>
    </g>
    <g id="xtick_21">
     <g id="line2d_41">
      <path d="M 1046.835273 649.56 
L 1046.835273 43.44 
" clip-path="url(#p134e75baed)" style="fill: none; stroke-dasharray: 0.4,0.66; stroke-dashoffset: 0; stroke: #000000; stroke-width: 0.4"/>
     </g>
     <g id="line2d_42">
      <g>
       <use xlink:href="#m76c90c42dc" x="1046.835273" y="649.56" style="stroke: #000000; stroke-width: 0.6"/>
      </g>
     </g>
    </g>
    <g id="xtick_22">
     <g id="line2d_43">
      <path d="M 1095.057818 649.56 
L 1095.057818 43.44 
" clip-path="url(#p134e75baed)" style="fill: none; stroke-dasharray: 0.4,0.66; stroke-dashoffset: 0; stroke: #000000; stroke-width: 0.4"/>
     </g>
     <g id="line2d_44">
      <g>
       <use xlink:href="#m76c90c42dc" x="1095.057818" y="649.56" style="stroke: #000000; stroke-width: 0.6"/>
      </g>
     </g>
    </g>
    <g id="xtick_23">
     <g id="line2d_45">
      <path d="M 1143.280364 649.56 
L 1143.280364 43.44 
" clip-path="url(#p134e75baed)" style="fill: none; stroke-dasharray: 0.4,0.66; stroke-dashoffset: 0; stroke: #000000; stroke-width: 0.4"/>
     </g>
     <g id="line2d_46">
      <g>
       <use xlink:href="#m76c90c42dc" x="1143.280364" y="649.56" style="stroke: #000000; stroke-width: 0.6"/>
      </g>
     </g>
    </g>
    <g id="xtick_24">
     <g id="line2d_47">
      <path d="M 1191.502909 649.56 
L 1191.502909 43.44 
" clip-path="url(#p134e75baed)" style="fill: none; stroke-dasharray: 0.4,0.66; stroke-dashoffset: 0; stroke: #000000; stroke-width: 0.4"/>
     </g>
     <g id="line2d_48">
      <g>
       <use xlink:href="#m76c90c42dc" x="1191.502909" y="649.56" style="stroke: #000000; stroke-width: 0.6"/>
      </g>
     </g>
    </g>
    <g id="xtick_25">
     <g id="line2d_49">
      <path d="M 1287.948 649.56 
L 1287.948 43.44 
" clip-path="url(#p134e75baed)" style="fill: none; stroke-dasharray: 0.4,0.66; stroke-dashoffset: 0; stroke: #000000; stroke-width: 0.4"/>
     </g>
     <g id="line2d_50">
      <g>
       <use xlink:href="#m76c90c42dc" x="1287.948" y="649.56" style="stroke: #000000; stroke-width: 0.6"/>
      </g>
     </g>
    </g>
    <g id="xtick_26">
     <g id="line2d_51">
      <path d="M 1336.170545 649.56 
L 1336.170545 43.44 
" clip-path="url(#p134e75baed)" style="fill: none; stroke-dasharray: 0.4,0.66; stroke-dashoffset: 0; stroke: #000000; stroke-width: 0.4"/>
     </g>
     <g id="line2d_52">
      <g>
       <use xlink:href="#m76c90c42dc" x="1336.170545" y="649.56" style="stroke: #000000; stroke-width: 0.6"/>
      </g>
     </g>
    </g>
    <g id="xtick_27">
     <g id="line2d_53">
      <path d="M 1384.393091 649.56 
L 1384.393091 43.44 
" clip-path="url(#p134e75baed)" style="fill: none; stroke-dasharray: 0.4,0.66; stroke-dashoffset: 0; stroke: #000000; stroke-width: 0.4"/>
     </g>
     <g id="line2d_54">
      <g>
       <use xlink:href="#m76c90c42dc" x="1384.393091" y="649.56" style="stroke: #000000; stroke-width: 0.6"/>
      </g>
     </g>
    </g>
    <g id="text_6">
     <!-- $\mathtt{fdatasync}$ Strategy -->
     <g transform="translate(667.23 691.660625)scale(0.18 -0.18)">
      <defs>
       <path id="DejaVuSansMono-66" d="M 3322 4863 
L 3322 4384 
L 2669 4384 
Q 2359 4384 2239 4257 
Q 2119 4131 2119 3809 
L 2119 3500 
L 3322 3500 
L 3322 3053 
L 2119 3053 
L 2119 0 
L 1544 0 
L 1544 3053 
L 609 3053 
L 609 3500 
L 1544 3500 
L 1544 3744 
Q 1544 4319 1808 4591 
Q 2072 4863 2631 4863 
L 3322 4863 
z
" transform="scale(0.015625)"/>
       <path id="DejaVuSansMono-64" d="M 2681 3053 
L 2681 4863 
L 3256 4863 
L 3256 0 
L 2681 0 
L 2681 441 
Q 2538 181 2298 45 
Q 2059 -91 1747 -91 
Q 1113 -91 748 401 
Q 384 894 384 1759 
Q 384 2613 750 3098 
Q 1116 3584 1747 3584 
Q 2063 3584 2303 3448 
Q 2544 3313 2681 3053 
z
M 991 1747 
Q 991 1078 1203 737 
Q 1416 397 1831 397 
Q 2247 397 2464 740 
Q 2681 1084 2681 1747 
Q 2681 2413 2464 2755 
Q 2247 3097 1831 3097 
Q 1416 3097 1203 2756 
Q 991 2416 991 1747 
z
" transform="scale(0.015625)"/>
       <path id="DejaVuSansMono-61" d="M 2194 1759 
L 2003 1759 
Q 1500 1759 1245 1582 
Q 991 1406 991 1056 
Q 991 741 1181 566 
Q 1372 391 1709 391 
Q 2184 391 2456 720 
Q 2728 1050 2731 1631 
L 2731 1759 
L 2194 1759 
z
M 3309 1997 
L 3309 0 
L 2731 0 
L 2731 519 
Q 2547 206 2267 57 
Q 1988 -91 1588 -91 
Q 1053 -91 734 211 
Q 416 513 416 1019 
Q 416 1603 808 1906 
Q 1200 2209 1959 2209 
L 2731 2209 
L 2731 2300 
Q 2728 2719 2518 2908 
Q 2309 3097 1850 3097 
Q 1556 3097 1256 3012 
Q 956 2928 672 2766 
L 672 3341 
Q 991 3463 1283 3523 
Q 1575 3584 1850 3584 
Q 2284 3584 2592 3456 
Q 2900 3328 3091 3072 
Q 3209 2916 3259 2686 
Q 3309 2456 3309 1997 
z
" transform="scale(0.015625)"/>
       <path id="DejaVuSansMono-74" d="M 1919 4494 
L 1919 3500 
L 3225 3500 
L 3225 3053 
L 1919 3053 
L 1919 1153 
Q 1919 766 2066 612 
Q 2213 459 2578 459 
L 3225 459 
L 3225 0 
L 2522 0 
Q 1875 0 1609 259 
Q 1344 519 1344 1153 
L 1344 3053 
L 409 3053 
L 409 3500 
L 1344 3500 
L 1344 4494 
L 1919 4494 
z
" transform="scale(0.015625)"/>
       <path id="DejaVuSansMono-73" d="M 3041 3378 
L 3041 2816 
Q 2794 2959 2544 3031 
Q 2294 3103 2034 3103 
Q 1644 3103 1451 2976 
Q 1259 2850 1259 2591 
Q 1259 2356 1403 2240 
Q 1547 2125 2119 2016 
L 2350 1972 
Q 2778 1891 2998 1647 
Q 3219 1403 3219 1013 
Q 3219 494 2850 201 
Q 2481 -91 1825 -91 
Q 1566 -91 1281 -36 
Q 997 19 666 128 
L 666 722 
Q 988 556 1281 473 
Q 1575 391 1838 391 
Q 2219 391 2428 545 
Q 2638 700 2638 978 
Q 2638 1378 1872 1531 
L 1847 1538 
L 1631 1581 
Q 1134 1678 906 1908 
Q 678 2138 678 2534 
Q 678 3038 1018 3311 
Q 1359 3584 1991 3584 
Q 2272 3584 2531 3532 
Q 2791 3481 3041 3378 
z
" transform="scale(0.015625)"/>
       <path id="DejaVuSansMono-79" d="M 2681 1125 
Q 2538 759 2316 163 
Q 2006 -663 1900 -844 
Q 1756 -1088 1540 -1209 
Q 1325 -1331 1038 -1331 
L 575 -1331 
L 575 -850 
L 916 -850 
Q 1169 -850 1312 -703 
Q 1456 -556 1678 56 
L 325 3500 
L 934 3500 
L 1972 763 
L 2994 3500 
L 3603 3500 
L 2681 1125 
z
" transform="scale(0.015625)"/>
       <path id="DejaVuSansMono-6e" d="M 3284 2169 
L 3284 0 
L 2706 0 
L 2706 2169 
Q 2706 2641 2540 2862 
Q 2375 3084 2022 3084 
Q 1619 3084 1401 2798 
Q 1184 2513 1184 1978 
L 1184 0 
L 609 0 
L 609 3500 
L 1184 3500 
L 1184 2975 
Q 1338 3275 1600 3429 
Q 1863 3584 2222 3584 
Q 2756 3584 3020 3232 
Q 3284 2881 3284 2169 
z
" transform="scale(0.015625)"/>
       <path id="DejaVuSansMono-63" d="M 3316 178 
Q 3084 44 2839 -23 
Q 2594 -91 2338 -91 
Q 1525 -91 1067 396 
Q 609 884 609 1747 
Q 609 2609 1067 3096 
Q 1525 3584 2338 3584 
Q 2591 3584 2831 3518 
Q 3072 3453 3316 3316 
L 3316 2713 
Q 3088 2916 2858 3006 
Q 2628 3097 2338 3097 
Q 1797 3097 1506 2747 
Q 1216 2397 1216 1747 
Q 1216 1100 1508 748 
Q 1800 397 2338 397 
Q 2638 397 2875 489 
Q 3113 581 3316 775 
L 3316 178 
z
" transform="scale(0.015625)"/>
       <path id="DejaVuSans-53" d="M 3425 4513 
L 3425 3897 
Q 3066 4069 2747 4153 
Q 2428 4238 2131 4238 
Q 1616 4238 1336 4038 
Q 1056 3838 1056 3469 
Q 1056 3159 1242 3001 
Q 1428 2844 1947 2747 
L 2328 2669 
Q 3034 2534 3370 2195 
Q 3706 1856 3706 1288 
Q 3706 609 3251 259 
Q 2797 -91 1919 -91 
Q 1588 -91 1214 -16 
Q 841 59 441 206 
L 441 856 
Q 825 641 1194 531 
Q 1563 422 1919 422 
Q 2459 422 2753 634 
Q 3047 847 3047 1241 
Q 3047 1584 2836 1778 
Q 2625 1972 2144 2069 
L 1759 2144 
Q 1053 2284 737 2584 
Q 422 2884 422 3419 
Q 422 4038 858 4394 
Q 1294 4750 2059 4750 
Q 2388 4750 2728 4690 
Q 3069 4631 3425 4513 
z
" transform="scale(0.015625)"/>
       <path id="DejaVuSans-74" d="M 1172 4494 
L 1172 3500 
L 2356 3500 
L 2356 3053 
L 1172 3053 
L 1172 1153 
Q 1172 725 1289 603 
Q 1406 481 1766 481 
L 2356 481 
L 2356 0 
L 1766 0 
Q 1100 0 847 248 
Q 594 497 594 1153 
L 594 3053 
L 172 3053 
L 172 3500 
L 594 3500 
L 594 4494 
L 1172 4494 
z
" transform="scale(0.015625)"/>
       <path id="DejaVuSans-61" d="M 2194 1759 
Q 1497 1759 1228 1600 
Q 959 1441 959 1056 
Q 959 750 1161 570 
Q 1363 391 1709 391 
Q 2188 391 2477 730 
Q 2766 1069 2766 1631 
L 2766 1759 
L 2194 1759 
z
M 3341 1997 
L 3341 0 
L 2766 0 
L 2766 531 
Q 2569 213 2275 61 
Q 1981 -91 1556 -91 
Q 1019 -91 701 211 
Q 384 513 384 1019 
Q 384 1609 779 1909 
Q 1175 2209 1959 2209 
L 2766 2209 
L 2766 2266 
Q 2766 2663 2505 2880 
Q 2244 3097 1772 3097 
Q 1472 3097 1187 3025 
Q 903 2953 641 2809 
L 641 3341 
Q 956 3463 1253 3523 
Q 1550 3584 1831 3584 
Q 2591 3584 2966 3190 
Q 3341 2797 3341 1997 
z
" transform="scale(0.015625)"/>
       <path id="DejaVuSans-67" d="M 2906 1791 
Q 2906 2416 2648 2759 
Q 2391 3103 1925 3103 
Q 1463 3103 1205 2759 
Q 947 2416 947 1791 
Q 947 1169 1205 825 
Q 1463 481 1925 481 
Q 2391 481 2648 825 
Q 2906 1169 2906 1791 
z
M 3481 434 
Q 3481 -459 3084 -895 
Q 2688 -1331 1869 -1331 
Q 1566 -1331 1297 -1286 
Q 1028 -1241 775 -1147 
L 775 -588 
Q 1028 -725 1275 -790 
Q 1522 -856 1778 -856 
Q 2344 -856 2625 -561 
Q 2906 -266 2906 331 
L 2906 616 
Q 2728 306 2450 153 
Q 2172 0 1784 0 
Q 1141 0 747 490 
Q 353 981 353 1791 
Q 353 2603 747 3093 
Q 1141 3584 1784 3584 
Q 2172 3584 2450 3431 
Q 2728 3278 2906 2969 
L 2906 3500 
L 3481 3500 
L 3481 434 
z
" transform="scale(0.015625)"/>
      </defs>
      <use xlink:href="#DejaVuSansMono-66" transform="translate(0 0.015625)"/>
      <use xlink:href="#DejaVuSansMono-64" transform="translate(60.205078 0.015625)"/>
      <use xlink:href="#DejaVuSansMono-61" transform="translate(120.410156 0.015625)"/>
      <use xlink:href="#DejaVuSansMono-74" transform="translate(180.615234 0.015625)"/>
      <use xlink:href="#DejaVuSansMono-61" transform="translate(240.820312 0.015625)"/>
      <use xlink:href="#DejaVuSansMono-73" transform="translate(301.025391 0.015625)"/>
      <use xlink:href="#DejaVuSansMono-79" transform="translate(361.230469 0.015625)"/>
      <use xlink:href="#DejaVuSansMono-6e" transform="translate(421.435547 0.015625)"/>
      <use xlink:href="#DejaVuSansMono-63" transform="translate(481.640625 0.015625)"/>
      <use xlink:href="#DejaVuSans-20" transform="translate(541.845703 0.015625)"/>
      <use xlink:href="#DejaVuSans-53" transform="translate(573.632812 0.015625)"/>
      <use xlink:href="#DejaVuSans-74" transform="translate(637.109375 0.015625)"/>
      <use xlink:href="#DejaVuSans-72" transform="translate(676.318359 0.015625)"/>
      <use xlink:href="#DejaVuSans-61" transform="translate(717.431641 0.015625)"/>
      <use xlink:href="#DejaVuSans-74" transform="translate(778.710938 0.015625)"/>
      <use xlink:href="#DejaVuSans-65" transform="translate(817.919922 0.015625)"/>
      <use xlink:href="#DejaVuSans-67" transform="translate(879.443359 0.015625)"/>
      <use xlink:href="#DejaVuSans-79" transform="translate(942.919922 0.015625)"/>
     </g>
    </g>
   </g>
   <g id="matplotlib.axis_2">
    <g id="ytick_1">
     <g id="line2d_55">
      <path d="M 94.44 649.135027 
L 1420.56 649.135027 
" clip-path="url(#p134e75baed)" style="fill: none; stroke-dasharray: 3.7,1.6; stroke-dashoffset: 0; stroke: #666666"/>
     </g>
     <g id="line2d_56">
      <defs>
       <path id="md553060847" d="M 0 0 
L -3.5 0 
" style="stroke: #000000; stroke-width: 0.8"/>
      </defs>
      <g>
       <use xlink:href="#md553060847" x="94.44" y="649.135027" style="stroke: #000000; stroke-width: 0.8"/>
      </g>
     </g>
     <g id="text_7">
      <!-- 0 -->
      <g transform="translate(75.9875 655.973621)scale(0.18 -0.18)">
       <use xlink:href="#DejaVuSans-30"/>
      </g>
     </g>
    </g>
    <g id="ytick_2">
     <g id="line2d_57">
      <path d="M 94.44 558.71524 
L 1420.56 558.71524 
" clip-path="url(#p134e75baed)" style="fill: none; stroke-dasharray: 3.7,1.6; stroke-dashoffset: 0; stroke: #666666"/>
     </g>
     <g id="line2d_58">
      <g>
       <use xlink:href="#md553060847" x="94.44" y="558.71524" style="stroke: #000000; stroke-width: 0.8"/>
      </g>
     </g>
     <g id="text_8">
      <!-- 500 -->
      <g transform="translate(53.0825 565.553834)scale(0.18 -0.18)">
       <defs>
        <path id="DejaVuSans-35" d="M 691 4666 
L 3169 4666 
L 3169 4134 
L 1269 4134 
L 1269 2991 
Q 1406 3038 1543 3061 
Q 1681 3084 1819 3084 
Q 2600 3084 3056 2656 
Q 3513 2228 3513 1497 
Q 3513 744 3044 326 
Q 2575 -91 1722 -91 
Q 1428 -91 1123 -41 
Q 819 9 494 109 
L 494 744 
Q 775 591 1075 516 
Q 1375 441 1709 441 
Q 2250 441 2565 725 
Q 2881 1009 2881 1497 
Q 2881 1984 2565 2268 
Q 2250 2553 1709 2553 
Q 1456 2553 1204 2497 
Q 953 2441 691 2322 
L 691 4666 
z
" transform="scale(0.015625)"/>
       </defs>
       <use xlink:href="#DejaVuSans-35"/>
       <use xlink:href="#DejaVuSans-30" x="63.623047"/>
       <use xlink:href="#DejaVuSans-30" x="127.246094"/>
      </g>
     </g>
    </g>
    <g id="ytick_3">
     <g id="line2d_59">
      <path d="M 94.44 468.295453 
L 1420.56 468.295453 
" clip-path="url(#p134e75baed)" style="fill: none; stroke-dasharray: 3.7,1.6; stroke-dashoffset: 0; stroke: #666666"/>
     </g>
     <g id="line2d_60">
      <g>
       <use xlink:href="#md553060847" x="94.44" y="468.295453" style="stroke: #000000; stroke-width: 0.8"/>
      </g>
     </g>
     <g id="text_9">
      <!-- 1000 -->
      <g transform="translate(41.63 475.134047)scale(0.18 -0.18)">
       <use xlink:href="#DejaVuSans-31"/>
       <use xlink:href="#DejaVuSans-30" x="63.623047"/>
       <use xlink:href="#DejaVuSans-30" x="127.246094"/>
       <use xlink:href="#DejaVuSans-30" x="190.869141"/>
      </g>
     </g>
    </g>
    <g id="ytick_4">
     <g id="line2d_61">
      <path d="M 94.44 377.875666 
L 1420.56 377.875666 
" clip-path="url(#p134e75baed)" style="fill: none; stroke-dasharray: 3.7,1.6; stroke-dashoffset: 0; stroke: #666666"/>
     </g>
     <g id="line2d_62">
      <g>
       <use xlink:href="#md553060847" x="94.44" y="377.875666" style="stroke: #000000; stroke-width: 0.8"/>
      </g>
     </g>
     <g id="text_10">
      <!-- 1500 -->
      <g transform="translate(41.63 384.71426)scale(0.18 -0.18)">
       <use xlink:href="#DejaVuSans-31"/>
       <use xlink:href="#DejaVuSans-35" x="63.623047"/>
       <use xlink:href="#DejaVuSans-30" x="127.246094"/>
       <use xlink:href="#DejaVuSans-30" x="190.869141"/>
      </g>
     </g>
    </g>
    <g id="ytick_5">
     <g id="line2d_63">
      <path d="M 94.44 287.455879 
L 1420.56 287.455879 
" clip-path="url(#p134e75baed)" style="fill: none; stroke-dasharray: 3.7,1.6; stroke-dashoffset: 0; stroke: #666666"/>
     </g>
     <g id="line2d_64">
      <g>
       <use xlink:href="#md553060847" x="94.44" y="287.455879" style="stroke: #000000; stroke-width: 0.8"/>
      </g>
     </g>
     <g id="text_11">
      <!-- 2000 -->
      <g transform="translate(41.63 294.294473)scale(0.18 -0.18)">
       <defs>
        <path id="DejaVuSans-32" d="M 1228 531 
L 3431 531 
L 3431 0 
L 469 0 
L 469 531 
Q 828 903 1448 1529 
Q 2069 2156 2228 2338 
Q 2531 2678 2651 2914 
Q 2772 3150 2772 3378 
Q 2772 3750 2511 3984 
Q 2250 4219 1831 4219 
Q 1534 4219 1204 4116 
Q 875 4013 500 3803 
L 500 4441 
Q 881 4594 1212 4672 
Q 1544 4750 1819 4750 
Q 2544 4750 2975 4387 
Q 3406 4025 3406 3419 
Q 3406 3131 3298 2873 
Q 3191 2616 2906 2266 
Q 2828 2175 2409 1742 
Q 1991 1309 1228 531 
z
" transform="scale(0.015625)"/>
       </defs>
       <use xlink:href="#DejaVuSans-32"/>
       <use xlink:href="#DejaVuSans-30" x="63.623047"/>
       <use xlink:href="#DejaVuSans-30" x="127.246094"/>
       <use xlink:href="#DejaVuSans-30" x="190.869141"/>
      </g>
     </g>
    </g>
    <g id="ytick_6">
     <g id="line2d_65">
      <path d="M 94.44 197.036092 
L 1420.56 197.036092 
" clip-path="url(#p134e75baed)" style="fill: none; stroke-dasharray: 3.7,1.6; stroke-dashoffset: 0; stroke: #666666"/>
     </g>
     <g id="line2d_66">
      <g>
       <use xlink:href="#md553060847" x="94.44" y="197.036092" style="stroke: #000000; stroke-width: 0.8"/>
      </g>
     </g>
     <g id="text_12">
      <!-- 2500 -->
      <g transform="translate(41.63 203.874686)scale(0.18 -0.18)">
       <use xlink:href="#DejaVuSans-32"/>
       <use xlink:href="#DejaVuSans-35" x="63.623047"/>
       <use xlink:href="#DejaVuSans-30" x="127.246094"/>
       <use xlink:href="#DejaVuSans-30" x="190.869141"/>
      </g>
     </g>
    </g>
    <g id="ytick_7">
     <g id="line2d_67">
      <path d="M 94.44 106.616305 
L 1420.56 106.616305 
" clip-path="url(#p134e75baed)" style="fill: none; stroke-dasharray: 3.7,1.6; stroke-dashoffset: 0; stroke: #666666"/>
     </g>
     <g id="line2d_68">
      <g>
       <use xlink:href="#md553060847" x="94.44" y="106.616305" style="stroke: #000000; stroke-width: 0.8"/>
      </g>
     </g>
     <g id="text_13">
      <!-- 3000 -->
      <g transform="translate(41.63 113.454899)scale(0.18 -0.18)">
       <defs>
        <path id="DejaVuSans-33" d="M 2597 2516 
Q 3050 2419 3304 2112 
Q 3559 1806 3559 1356 
Q 3559 666 3084 287 
Q 2609 -91 1734 -91 
Q 1441 -91 1130 -33 
Q 819 25 488 141 
L 488 750 
Q 750 597 1062 519 
Q 1375 441 1716 441 
Q 2309 441 2620 675 
Q 2931 909 2931 1356 
Q 2931 1769 2642 2001 
Q 2353 2234 1838 2234 
L 1294 2234 
L 1294 2753 
L 1863 2753 
Q 2328 2753 2575 2939 
Q 2822 3125 2822 3475 
Q 2822 3834 2567 4026 
Q 2313 4219 1838 4219 
Q 1578 4219 1281 4162 
Q 984 4106 628 3988 
L 628 4550 
Q 988 4650 1302 4700 
Q 1616 4750 1894 4750 
Q 2613 4750 3031 4423 
Q 3450 4097 3450 3541 
Q 3450 3153 3228 2886 
Q 3006 2619 2597 2516 
z
" transform="scale(0.015625)"/>
       </defs>
       <use xlink:href="#DejaVuSans-33"/>
       <use xlink:href="#DejaVuSans-30" x="63.623047"/>
       <use xlink:href="#DejaVuSans-30" x="127.246094"/>
       <use xlink:href="#DejaVuSans-30" x="190.869141"/>
      </g>
     </g>
    </g>
    <g id="ytick_8">
     <g id="line2d_69">
      <path d="M 94.44 631.05107 
L 1420.56 631.05107 
" clip-path="url(#p134e75baed)" style="fill: none; stroke-dasharray: 0.4,0.66; stroke-dashoffset: 0; stroke: #000000; stroke-width: 0.4"/>
     </g>
     <g id="line2d_70">
      <defs>
       <path id="meae996765a" d="M 0 0 
L -2 0 
" style="stroke: #000000; stroke-width: 0.6"/>
      </defs>
      <g>
       <use xlink:href="#meae996765a" x="94.44" y="631.05107" style="stroke: #000000; stroke-width: 0.6"/>
      </g>
     </g>
    </g>
    <g id="ytick_9">
     <g id="line2d_71">
      <path d="M 94.44 612.967112 
L 1420.56 612.967112 
" clip-path="url(#p134e75baed)" style="fill: none; stroke-dasharray: 0.4,0.66; stroke-dashoffset: 0; stroke: #000000; stroke-width: 0.4"/>
     </g>
     <g id="line2d_72">
      <g>
       <use xlink:href="#meae996765a" x="94.44" y="612.967112" style="stroke: #000000; stroke-width: 0.6"/>
      </g>
     </g>
    </g>
    <g id="ytick_10">
     <g id="line2d_73">
      <path d="M 94.44 594.883155 
L 1420.56 594.883155 
" clip-path="url(#p134e75baed)" style="fill: none; stroke-dasharray: 0.4,0.66; stroke-dashoffset: 0; stroke: #000000; stroke-width: 0.4"/>
     </g>
     <g id="line2d_74">
      <g>
       <use xlink:href="#meae996765a" x="94.44" y="594.883155" style="stroke: #000000; stroke-width: 0.6"/>
      </g>
     </g>
    </g>
    <g id="ytick_11">
     <g id="line2d_75">
      <path d="M 94.44 576.799197 
L 1420.56 576.799197 
" clip-path="url(#p134e75baed)" style="fill: none; stroke-dasharray: 0.4,0.66; stroke-dashoffset: 0; stroke: #000000; stroke-width: 0.4"/>
     </g>
     <g id="line2d_76">
      <g>
       <use xlink:href="#meae996765a" x="94.44" y="576.799197" style="stroke: #000000; stroke-width: 0.6"/>
      </g>
     </g>
    </g>
    <g id="ytick_12">
     <g id="line2d_77">
      <path d="M 94.44 540.631283 
L 1420.56 540.631283 
" clip-path="url(#p134e75baed)" style="fill: none; stroke-dasharray: 0.4,0.66; stroke-dashoffset: 0; stroke: #000000; stroke-width: 0.4"/>
     </g>
     <g id="line2d_78">
      <g>
       <use xlink:href="#meae996765a" x="94.44" y="540.631283" style="stroke: #000000; stroke-width: 0.6"/>
      </g>
     </g>
    </g>
    <g id="ytick_13">
     <g id="line2d_79">
      <path d="M 94.44 522.547325 
L 1420.56 522.547325 
" clip-path="url(#p134e75baed)" style="fill: none; stroke-dasharray: 0.4,0.66; stroke-dashoffset: 0; stroke: #000000; stroke-width: 0.4"/>
     </g>
     <g id="line2d_80">
      <g>
       <use xlink:href="#meae996765a" x="94.44" y="522.547325" style="stroke: #000000; stroke-width: 0.6"/>
      </g>
     </g>
    </g>
    <g id="ytick_14">
     <g id="line2d_81">
      <path d="M 94.44 504.463368 
L 1420.56 504.463368 
" clip-path="url(#p134e75baed)" style="fill: none; stroke-dasharray: 0.4,0.66; stroke-dashoffset: 0; stroke: #000000; stroke-width: 0.4"/>
     </g>
     <g id="line2d_82">
      <g>
       <use xlink:href="#meae996765a" x="94.44" y="504.463368" style="stroke: #000000; stroke-width: 0.6"/>
      </g>
     </g>
    </g>
    <g id="ytick_15">
     <g id="line2d_83">
      <path d="M 94.44 486.37941 
L 1420.56 486.37941 
" clip-path="url(#p134e75baed)" style="fill: none; stroke-dasharray: 0.4,0.66; stroke-dashoffset: 0; stroke: #000000; stroke-width: 0.4"/>
     </g>
     <g id="line2d_84">
      <g>
       <use xlink:href="#meae996765a" x="94.44" y="486.37941" style="stroke: #000000; stroke-width: 0.6"/>
      </g>
     </g>
    </g>
    <g id="ytick_16">
     <g id="line2d_85">
      <path d="M 94.44 450.211496 
L 1420.56 450.211496 
" clip-path="url(#p134e75baed)" style="fill: none; stroke-dasharray: 0.4,0.66; stroke-dashoffset: 0; stroke: #000000; stroke-width: 0.4"/>
     </g>
     <g id="line2d_86">
      <g>
       <use xlink:href="#meae996765a" x="94.44" y="450.211496" style="stroke: #000000; stroke-width: 0.6"/>
      </g>
     </g>
    </g>
    <g id="ytick_17">
     <g id="line2d_87">
      <path d="M 94.44 432.127538 
L 1420.56 432.127538 
" clip-path="url(#p134e75baed)" style="fill: none; stroke-dasharray: 0.4,0.66; stroke-dashoffset: 0; stroke: #000000; stroke-width: 0.4"/>
     </g>
     <g id="line2d_88">
      <g>
       <use xlink:href="#meae996765a" x="94.44" y="432.127538" style="stroke: #000000; stroke-width: 0.6"/>
      </g>
     </g>
    </g>
    <g id="ytick_18">
     <g id="line2d_89">
      <path d="M 94.44 414.043581 
L 1420.56 414.043581 
" clip-path="url(#p134e75baed)" style="fill: none; stroke-dasharray: 0.4,0.66; stroke-dashoffset: 0; stroke: #000000; stroke-width: 0.4"/>
     </g>
     <g id="line2d_90">
      <g>
       <use xlink:href="#meae996765a" x="94.44" y="414.043581" style="stroke: #000000; stroke-width: 0.6"/>
      </g>
     </g>
    </g>
    <g id="ytick_19">
     <g id="line2d_91">
      <path d="M 94.44 395.959623 
L 1420.56 395.959623 
" clip-path="url(#p134e75baed)" style="fill: none; stroke-dasharray: 0.4,0.66; stroke-dashoffset: 0; stroke: #000000; stroke-width: 0.4"/>
     </g>
     <g id="line2d_92">
      <g>
       <use xlink:href="#meae996765a" x="94.44" y="395.959623" style="stroke: #000000; stroke-width: 0.6"/>
      </g>
     </g>
    </g>
    <g id="ytick_20">
     <g id="line2d_93">
      <path d="M 94.44 359.791709 
L 1420.56 359.791709 
" clip-path="url(#p134e75baed)" style="fill: none; stroke-dasharray: 0.4,0.66; stroke-dashoffset: 0; stroke: #000000; stroke-width: 0.4"/>
     </g>
     <g id="line2d_94">
      <g>
       <use xlink:href="#meae996765a" x="94.44" y="359.791709" style="stroke: #000000; stroke-width: 0.6"/>
      </g>
     </g>
    </g>
    <g id="ytick_21">
     <g id="line2d_95">
      <path d="M 94.44 341.707751 
L 1420.56 341.707751 
" clip-path="url(#p134e75baed)" style="fill: none; stroke-dasharray: 0.4,0.66; stroke-dashoffset: 0; stroke: #000000; stroke-width: 0.4"/>
     </g>
     <g id="line2d_96">
      <g>
       <use xlink:href="#meae996765a" x="94.44" y="341.707751" style="stroke: #000000; stroke-width: 0.6"/>
      </g>
     </g>
    </g>
    <g id="ytick_22">
     <g id="line2d_97">
      <path d="M 94.44 323.623794 
L 1420.56 323.623794 
" clip-path="url(#p134e75baed)" style="fill: none; stroke-dasharray: 0.4,0.66; stroke-dashoffset: 0; stroke: #000000; stroke-width: 0.4"/>
     </g>
     <g id="line2d_98">
      <g>
       <use xlink:href="#meae996765a" x="94.44" y="323.623794" style="stroke: #000000; stroke-width: 0.6"/>
      </g>
     </g>
    </g>
    <g id="ytick_23">
     <g id="line2d_99">
      <path d="M 94.44 305.539837 
L 1420.56 305.539837 
" clip-path="url(#p134e75baed)" style="fill: none; stroke-dasharray: 0.4,0.66; stroke-dashoffset: 0; stroke: #000000; stroke-width: 0.4"/>
     </g>
     <g id="line2d_100">
      <g>
       <use xlink:href="#meae996765a" x="94.44" y="305.539837" style="stroke: #000000; stroke-width: 0.6"/>
      </g>
     </g>
    </g>
    <g id="ytick_24">
     <g id="line2d_101">
      <path d="M 94.44 269.371922 
L 1420.56 269.371922 
" clip-path="url(#p134e75baed)" style="fill: none; stroke-dasharray: 0.4,0.66; stroke-dashoffset: 0; stroke: #000000; stroke-width: 0.4"/>
     </g>
     <g id="line2d_102">
      <g>
       <use xlink:href="#meae996765a" x="94.44" y="269.371922" style="stroke: #000000; stroke-width: 0.6"/>
      </g>
     </g>
    </g>
    <g id="ytick_25">
     <g id="line2d_103">
      <path d="M 94.44 251.287964 
L 1420.56 251.287964 
" clip-path="url(#p134e75baed)" style="fill: none; stroke-dasharray: 0.4,0.66; stroke-dashoffset: 0; stroke: #000000; stroke-width: 0.4"/>
     </g>
     <g id="line2d_104">
      <g>
       <use xlink:href="#meae996765a" x="94.44" y="251.287964" style="stroke: #000000; stroke-width: 0.6"/>
      </g>
     </g>
    </g>
    <g id="ytick_26">
     <g id="line2d_105">
      <path d="M 94.44 233.204007 
L 1420.56 233.204007 
" clip-path="url(#p134e75baed)" style="fill: none; stroke-dasharray: 0.4,0.66; stroke-dashoffset: 0; stroke: #000000; stroke-width: 0.4"/>
     </g>
     <g id="line2d_106">
      <g>
       <use xlink:href="#meae996765a" x="94.44" y="233.204007" style="stroke: #000000; stroke-width: 0.6"/>
      </g>
     </g>
    </g>
    <g id="ytick_27">
     <g id="line2d_107">
      <path d="M 94.44 215.12005 
L 1420.56 215.12005 
" clip-path="url(#p134e75baed)" style="fill: none; stroke-dasharray: 0.4,0.66; stroke-dashoffset: 0; stroke: #000000; stroke-width: 0.4"/>
     </g>
     <g id="line2d_108">
      <g>
       <use xlink:href="#meae996765a" x="94.44" y="215.12005" style="stroke: #000000; stroke-width: 0.6"/>
      </g>
     </g>
    </g>
    <g id="ytick_28">
     <g id="line2d_109">
      <path d="M 94.44 178.952135 
L 1420.56 178.952135 
" clip-path="url(#p134e75baed)" style="fill: none; stroke-dasharray: 0.4,0.66; stroke-dashoffset: 0; stroke: #000000; stroke-width: 0.4"/>
     </g>
     <g id="line2d_110">
      <g>
       <use xlink:href="#meae996765a" x="94.44" y="178.952135" style="stroke: #000000; stroke-width: 0.6"/>
      </g>
     </g>
    </g>
    <g id="ytick_29">
     <g id="line2d_111">
      <path d="M 94.44 160.868177 
L 1420.56 160.868177 
" clip-path="url(#p134e75baed)" style="fill: none; stroke-dasharray: 0.4,0.66; stroke-dashoffset: 0; stroke: #000000; stroke-width: 0.4"/>
     </g>
     <g id="line2d_112">
      <g>
       <use xlink:href="#meae996765a" x="94.44" y="160.868177" style="stroke: #000000; stroke-width: 0.6"/>
      </g>
     </g>
    </g>
    <g id="ytick_30">
     <g id="line2d_113">
      <path d="M 94.44 142.78422 
L 1420.56 142.78422 
" clip-path="url(#p134e75baed)" style="fill: none; stroke-dasharray: 0.4,0.66; stroke-dashoffset: 0; stroke: #000000; stroke-width: 0.4"/>
     </g>
     <g id="line2d_114">
      <g>
       <use xlink:href="#meae996765a" x="94.44" y="142.78422" style="stroke: #000000; stroke-width: 0.6"/>
      </g>
     </g>
    </g>
    <g id="ytick_31">
     <g id="line2d_115">
      <path d="M 94.44 124.700263 
L 1420.56 124.700263 
" clip-path="url(#p134e75baed)" style="fill: none; stroke-dasharray: 0.4,0.66; stroke-dashoffset: 0; stroke: #000000; stroke-width: 0.4"/>
     </g>
     <g id="line2d_116">
      <g>
       <use xlink:href="#meae996765a" x="94.44" y="124.700263" style="stroke: #000000; stroke-width: 0.6"/>
      </g>
     </g>
    </g>
    <g id="ytick_32">
     <g id="line2d_117">
      <path d="M 94.44 88.532348 
L 1420.56 88.532348 
" clip-path="url(#p134e75baed)" style="fill: none; stroke-dasharray: 0.4,0.66; stroke-dashoffset: 0; stroke: #000000; stroke-width: 0.4"/>
     </g>
     <g id="line2d_118">
      <g>
       <use xlink:href="#meae996765a" x="94.44" y="88.532348" style="stroke: #000000; stroke-width: 0.6"/>
      </g>
     </g>
    </g>
    <g id="ytick_33">
     <g id="line2d_119">
      <path d="M 94.44 70.44839 
L 1420.56 70.44839 
" clip-path="url(#p134e75baed)" style="fill: none; stroke-dasharray: 0.4,0.66; stroke-dashoffset: 0; stroke: #000000; stroke-width: 0.4"/>
     </g>
     <g id="line2d_120">
      <g>
       <use xlink:href="#meae996765a" x="94.44" y="70.44839" style="stroke: #000000; stroke-width: 0.6"/>
      </g>
     </g>
    </g>
    <g id="ytick_34">
     <g id="line2d_121">
      <path d="M 94.44 52.364433 
L 1420.56 52.364433 
" clip-path="url(#p134e75baed)" style="fill: none; stroke-dasharray: 0.4,0.66; stroke-dashoffset: 0; stroke: #000000; stroke-width: 0.4"/>
     </g>
     <g id="line2d_122">
      <g>
       <use xlink:href="#meae996765a" x="94.44" y="52.364433" style="stroke: #000000; stroke-width: 0.6"/>
      </g>
     </g>
    </g>
    <g id="text_14">
     <!-- Write Time (Milliseconds) -->
     <g transform="translate(33.886562 459.577969)rotate(-90)scale(0.18 -0.18)">
      <defs>
       <path id="DejaVuSans-57" d="M 213 4666 
L 850 4666 
L 1831 722 
L 2809 4666 
L 3519 4666 
L 4500 722 
L 5478 4666 
L 6119 4666 
L 4947 0 
L 4153 0 
L 3169 4050 
L 2175 0 
L 1381 0 
L 213 4666 
z
" transform="scale(0.015625)"/>
       <path id="DejaVuSans-54" d="M -19 4666 
L 3928 4666 
L 3928 4134 
L 2272 4134 
L 2272 0 
L 1638 0 
L 1638 4134 
L -19 4134 
L -19 4666 
z
" transform="scale(0.015625)"/>
       <path id="DejaVuSans-6d" d="M 3328 2828 
Q 3544 3216 3844 3400 
Q 4144 3584 4550 3584 
Q 5097 3584 5394 3201 
Q 5691 2819 5691 2113 
L 5691 0 
L 5113 0 
L 5113 2094 
Q 5113 2597 4934 2840 
Q 4756 3084 4391 3084 
Q 3944 3084 3684 2787 
Q 3425 2491 3425 1978 
L 3425 0 
L 2847 0 
L 2847 2094 
Q 2847 2600 2669 2842 
Q 2491 3084 2119 3084 
Q 1678 3084 1418 2786 
Q 1159 2488 1159 1978 
L 1159 0 
L 581 0 
L 581 3500 
L 1159 3500 
L 1159 2956 
Q 1356 3278 1631 3431 
Q 1906 3584 2284 3584 
Q 2666 3584 2933 3390 
Q 3200 3197 3328 2828 
z
" transform="scale(0.015625)"/>
       <path id="DejaVuSans-28" d="M 1984 4856 
Q 1566 4138 1362 3434 
Q 1159 2731 1159 2009 
Q 1159 1288 1364 580 
Q 1569 -128 1984 -844 
L 1484 -844 
Q 1016 -109 783 600 
Q 550 1309 550 2009 
Q 550 2706 781 3412 
Q 1013 4119 1484 4856 
L 1984 4856 
z
" transform="scale(0.015625)"/>
       <path id="DejaVuSans-6c" d="M 603 4863 
L 1178 4863 
L 1178 0 
L 603 0 
L 603 4863 
z
" transform="scale(0.015625)"/>
       <path id="DejaVuSans-6f" d="M 1959 3097 
Q 1497 3097 1228 2736 
Q 959 2375 959 1747 
Q 959 1119 1226 758 
Q 1494 397 1959 397 
Q 2419 397 2687 759 
Q 2956 1122 2956 1747 
Q 2956 2369 2687 2733 
Q 2419 3097 1959 3097 
z
M 1959 3584 
Q 2709 3584 3137 3096 
Q 3566 2609 3566 1747 
Q 3566 888 3137 398 
Q 2709 -91 1959 -91 
Q 1206 -91 779 398 
Q 353 888 353 1747 
Q 353 2609 779 3096 
Q 1206 3584 1959 3584 
z
" transform="scale(0.015625)"/>
       <path id="DejaVuSans-29" d="M 513 4856 
L 1013 4856 
Q 1481 4119 1714 3412 
Q 1947 2706 1947 2009 
Q 1947 1309 1714 600 
Q 1481 -109 1013 -844 
L 513 -844 
Q 928 -128 1133 580 
Q 1338 1288 1338 2009 
Q 1338 2731 1133 3434 
Q 928 4138 513 4856 
z
" transform="scale(0.015625)"/>
      </defs>
      <use xlink:href="#DejaVuSans-57"/>
      <use xlink:href="#DejaVuSans-72" x="94.376953"/>
      <use xlink:href="#DejaVuSans-69" x="135.490234"/>
      <use xlink:href="#DejaVuSans-74" x="163.273438"/>
      <use xlink:href="#DejaVuSans-65" x="202.482422"/>
      <use xlink:href="#DejaVuSans-20" x="264.005859"/>
      <use xlink:href="#DejaVuSans-54" x="295.792969"/>
      <use xlink:href="#DejaVuSans-69" x="353.751953"/>
      <use xlink:href="#DejaVuSans-6d" x="381.535156"/>
      <use xlink:href="#DejaVuSans-65" x="478.947266"/>
      <use xlink:href="#DejaVuSans-20" x="540.470703"/>
      <use xlink:href="#DejaVuSans-28" x="572.257812"/>
      <use xlink:href="#DejaVuSans-4d" x="611.271484"/>
      <use xlink:href="#DejaVuSans-69" x="697.550781"/>
      <use xlink:href="#DejaVuSans-6c" x="725.333984"/>
      <use xlink:href="#DejaVuSans-6c" x="753.117188"/>
      <use xlink:href="#DejaVuSans-69" x="780.900391"/>
      <use xlink:href="#DejaVuSans-73" x="808.683594"/>
      <use xlink:href="#DejaVuSans-65" x="860.783203"/>
      <use xlink:href="#DejaVuSans-63" x="922.306641"/>
      <use xlink:href="#DejaVuSans-6f" x="977.287109"/>
      <use xlink:href="#DejaVuSans-6e" x="1038.46875"/>
      <use xlink:href="#DejaVuSans-64" x="1101.847656"/>
      <use xlink:href="#DejaVuSans-73" x="1165.324219"/>
      <use xlink:href="#DejaVuSans-29" x="1217.423828"/>
     </g>
    </g>
   </g>
   <g id="LineCollection_1">
    <path d="M 245.135455 620.200695 
L 305.413636 620.200695 
" clip-path="url(#p134e75baed)" style="fill: none; stroke: #1f77b4; stroke-width: 1.5"/>
    <path d="M 486.248182 523.813202 
L 546.526364 523.813202 
" clip-path="url(#p134e75baed)" style="fill: none; stroke: #1f77b4; stroke-width: 1.5"/>
    <path d="M 727.360909 509.888555 
L 787.639091 509.888555 
" clip-path="url(#p134e75baed)" style="fill: none; stroke: #1f77b4; stroke-width: 1.5"/>
    <path d="M 968.473636 442.073715 
L 1028.751818 442.073715 
" clip-path="url(#p134e75baed)" style="fill: none; stroke: #1f77b4; stroke-width: 1.5"/>
    <path d="M 1209.586364 70.990909 
L 1269.864545 70.990909 
" clip-path="url(#p134e75baed)" style="fill: none; stroke: #1f77b4; stroke-width: 1.5"/>
   </g>
   <g id="LineCollection_2">
    <path d="M 245.135455 622.009091 
L 305.413636 622.009091 
" clip-path="url(#p134e75baed)" style="fill: none; stroke: #1f77b4; stroke-width: 1.5"/>
    <path d="M 486.248182 534.844416 
L 546.526364 534.844416 
" clip-path="url(#p134e75baed)" style="fill: none; stroke: #1f77b4; stroke-width: 1.5"/>
    <path d="M 727.360909 519.111373 
L 787.639091 519.111373 
" clip-path="url(#p134e75baed)" style="fill: none; stroke: #1f77b4; stroke-width: 1.5"/>
    <path d="M 968.473636 448.583939 
L 1028.751818 448.583939 
" clip-path="url(#p134e75baed)" style="fill: none; stroke: #1f77b4; stroke-width: 1.5"/>
    <path d="M 1209.586364 84.373038 
L 1269.864545 84.373038 
" clip-path="url(#p134e75baed)" style="fill: none; stroke: #1f77b4; stroke-width: 1.5"/>
   </g>
   <g id="LineCollection_3">
    <path d="M 275.274545 622.009091 
L 275.274545 620.200695 
" clip-path="url(#p134e75baed)" style="fill: none; stroke: #1f77b4; stroke-width: 1.5"/>
    <path d="M 516.387273 534.844416 
L 516.387273 523.813202 
" clip-path="url(#p134e75baed)" style="fill: none; stroke: #1f77b4; stroke-width: 1.5"/>
    <path d="M 757.5 519.111373 
L 757.5 509.888555 
" clip-path="url(#p134e75baed)" style="fill: none; stroke: #1f77b4; stroke-width: 1.5"/>
    <path d="M 998.612727 448.583939 
L 998.612727 442.073715 
" clip-path="url(#p134e75baed)" style="fill: none; stroke: #1f77b4; stroke-width: 1.5"/>
    <path d="M 1239.725455 84.373038 
L 1239.725455 70.990909 
" clip-path="url(#p134e75baed)" style="fill: none; stroke: #1f77b4; stroke-width: 1.5"/>
   </g>
   <g id="LineCollection_4">
    <path d="M 245.135455 621.828251 
L 305.413636 621.828251 
" clip-path="url(#p134e75baed)" style="fill: none; stroke: #1f77b4; stroke-width: 1.5"/>
    <path d="M 486.248182 529.14797 
L 546.526364 529.14797 
" clip-path="url(#p134e75baed)" style="fill: none; stroke: #1f77b4; stroke-width: 1.5"/>
    <path d="M 727.360909 515.585002 
L 787.639091 515.585002 
" clip-path="url(#p134e75baed)" style="fill: none; stroke: #1f77b4; stroke-width: 1.5"/>
    <path d="M 968.473636 445.328827 
L 1028.751818 445.328827 
" clip-path="url(#p134e75baed)" style="fill: none; stroke: #1f77b4; stroke-width: 1.5"/>
    <path d="M 1209.586364 77.772393 
L 1269.864545 77.772393 
" clip-path="url(#p134e75baed)" style="fill: none; stroke: #1f77b4; stroke-width: 1.5"/>
   </g>
   <g id="patch_3">
    <path d="M 94.44 649.56 
L 94.44 43.44 
" style="fill: none; stroke: #000000; stroke-width: 0.8; stroke-linejoin: miter; stroke-linecap: square"/>
   </g>
   <g id="patch_4">
    <path d="M 1420.56 649.56 
L 1420.56 43.44 
" style="fill: none; stroke: #000000; stroke-width: 0.8; stroke-linejoin: miter; stroke-linecap: square"/>
   </g>
   <g id="patch_5">
    <path d="M 94.44 649.56 
L 1420.56 649.56 
" style="fill: none; stroke: #000000; stroke-width: 0.8; stroke-linejoin: miter; stroke-linecap: square"/>
   </g>
   <g id="patch_6">
    <path d="M 94.44 43.44 
L 1420.56 43.44 
" style="fill: none; stroke: #000000; stroke-width: 0.8; stroke-linejoin: miter; stroke-linecap: square"/>
   </g>
   <g id="text_15">
    <!-- Queues Unbounded Data -->
    <g transform="translate(137.813898 178.952135)scale(0.18 -0.18)">
     <defs>
      <path id="DejaVuSans-51" d="M 2522 4238 
Q 1834 4238 1429 3725 
Q 1025 3213 1025 2328 
Q 1025 1447 1429 934 
Q 1834 422 2522 422 
Q 3209 422 3611 934 
Q 4013 1447 4013 2328 
Q 4013 3213 3611 3725 
Q 3209 4238 2522 4238 
z
M 3406 84 
L 4238 -825 
L 3475 -825 
L 2784 -78 
Q 2681 -84 2626 -87 
Q 2572 -91 2522 -91 
Q 1538 -91 948 567 
Q 359 1225 359 2328 
Q 359 3434 948 4092 
Q 1538 4750 2522 4750 
Q 3503 4750 4090 4092 
Q 4678 3434 4678 2328 
Q 4678 1516 4351 937 
Q 4025 359 3406 84 
z
" transform="scale(0.015625)"/>
      <path id="DejaVuSans-75" d="M 544 1381 
L 544 3500 
L 1119 3500 
L 1119 1403 
Q 1119 906 1312 657 
Q 1506 409 1894 409 
Q 2359 409 2629 706 
Q 2900 1003 2900 1516 
L 2900 3500 
L 3475 3500 
L 3475 0 
L 2900 0 
L 2900 538 
Q 2691 219 2414 64 
Q 2138 -91 1772 -91 
Q 1169 -91 856 284 
Q 544 659 544 1381 
z
M 1991 3584 
L 1991 3584 
z
" transform="scale(0.015625)"/>
      <path id="DejaVuSans-55" d="M 556 4666 
L 1191 4666 
L 1191 1831 
Q 1191 1081 1462 751 
Q 1734 422 2344 422 
Q 2950 422 3222 751 
Q 3494 1081 3494 1831 
L 3494 4666 
L 4128 4666 
L 4128 1753 
Q 4128 841 3676 375 
Q 3225 -91 2344 -91 
Q 1459 -91 1007 375 
Q 556 841 556 1753 
L 556 4666 
z
" transform="scale(0.015625)"/>
      <path id="DejaVuSans-62" d="M 3116 1747 
Q 3116 2381 2855 2742 
Q 2594 3103 2138 3103 
Q 1681 3103 1420 2742 
Q 1159 2381 1159 1747 
Q 1159 1113 1420 752 
Q 1681 391 2138 391 
Q 2594 391 2855 752 
Q 3116 1113 3116 1747 
z
M 1159 2969 
Q 1341 3281 1617 3432 
Q 1894 3584 2278 3584 
Q 2916 3584 3314 3078 
Q 3713 2572 3713 1747 
Q 3713 922 3314 415 
Q 2916 -91 2278 -91 
Q 1894 -91 1617 61 
Q 1341 213 1159 525 
L 1159 0 
L 581 0 
L 581 4863 
L 1159 4863 
L 1159 2969 
z
" transform="scale(0.015625)"/>
      <path id="DejaVuSans-44" d="M 1259 4147 
L 1259 519 
L 2022 519 
Q 2988 519 3436 956 
Q 3884 1394 3884 2338 
Q 3884 3275 3436 3711 
Q 2988 4147 2022 4147 
L 1259 4147 
z
M 628 4666 
L 1925 4666 
Q 3281 4666 3915 4102 
Q 4550 3538 4550 2338 
Q 4550 1131 3912 565 
Q 3275 0 1925 0 
L 628 0 
L 628 4666 
z
" transform="scale(0.015625)"/>
     </defs>
     <use xlink:href="#DejaVuSans-51"/>
     <use xlink:href="#DejaVuSans-75" x="78.710938"/>
     <use xlink:href="#DejaVuSans-65" x="142.089844"/>
     <use xlink:href="#DejaVuSans-75" x="203.613281"/>
     <use xlink:href="#DejaVuSans-65" x="266.992188"/>
     <use xlink:href="#DejaVuSans-73" x="328.515625"/>
     <use xlink:href="#DejaVuSans-20" x="380.615234"/>
     <use xlink:href="#DejaVuSans-55" x="412.402344"/>
     <use xlink:href="#DejaVuSans-6e" x="485.595703"/>
     <use xlink:href="#DejaVuSans-62" x="548.974609"/>
     <use xlink:href="#DejaVuSans-6f" x="612.451172"/>
     <use xlink:href="#DejaVuSans-75" x="673.632812"/>
     <use xlink:href="#DejaVuSans-6e" x="737.011719"/>
     <use xlink:href="#DejaVuSans-64" x="800.390625"/>
     <use xlink:href="#DejaVuSans-65" x="863.867188"/>
     <use xlink:href="#DejaVuSans-64" x="925.390625"/>
     <use xlink:href="#DejaVuSans-20" x="988.867188"/>
     <use xlink:href="#DejaVuSans-44" x="1020.654297"/>
     <use xlink:href="#DejaVuSans-61" x="1097.65625"/>
     <use xlink:href="#DejaVuSans-74" x="1158.935547"/>
     <use xlink:href="#DejaVuSans-61" x="1198.144531"/>
    </g>
   </g>
   <g id="text_16">
    <!-- All Reasonable Choices -->
    <g transform="translate(653.384063 178.952135)scale(0.18 -0.18)">
     <defs>
      <path id="DejaVuSans-41" d="M 2188 4044 
L 1331 1722 
L 3047 1722 
L 2188 4044 
z
M 1831 4666 
L 2547 4666 
L 4325 0 
L 3669 0 
L 3244 1197 
L 1141 1197 
L 716 0 
L 50 0 
L 1831 4666 
z
" transform="scale(0.015625)"/>
      <path id="DejaVuSans-52" d="M 2841 2188 
Q 3044 2119 3236 1894 
Q 3428 1669 3622 1275 
L 4263 0 
L 3584 0 
L 2988 1197 
Q 2756 1666 2539 1819 
Q 2322 1972 1947 1972 
L 1259 1972 
L 1259 0 
L 628 0 
L 628 4666 
L 2053 4666 
Q 2853 4666 3247 4331 
Q 3641 3997 3641 3322 
Q 3641 2881 3436 2590 
Q 3231 2300 2841 2188 
z
M 1259 4147 
L 1259 2491 
L 2053 2491 
Q 2509 2491 2742 2702 
Q 2975 2913 2975 3322 
Q 2975 3731 2742 3939 
Q 2509 4147 2053 4147 
L 1259 4147 
z
" transform="scale(0.015625)"/>
      <path id="DejaVuSans-43" d="M 4122 4306 
L 4122 3641 
Q 3803 3938 3442 4084 
Q 3081 4231 2675 4231 
Q 1875 4231 1450 3742 
Q 1025 3253 1025 2328 
Q 1025 1406 1450 917 
Q 1875 428 2675 428 
Q 3081 428 3442 575 
Q 3803 722 4122 1019 
L 4122 359 
Q 3791 134 3420 21 
Q 3050 -91 2638 -91 
Q 1578 -91 968 557 
Q 359 1206 359 2328 
Q 359 3453 968 4101 
Q 1578 4750 2638 4750 
Q 3056 4750 3426 4639 
Q 3797 4528 4122 4306 
z
" transform="scale(0.015625)"/>
      <path id="DejaVuSans-68" d="M 3513 2113 
L 3513 0 
L 2938 0 
L 2938 2094 
Q 2938 2591 2744 2837 
Q 2550 3084 2163 3084 
Q 1697 3084 1428 2787 
Q 1159 2491 1159 1978 
L 1159 0 
L 581 0 
L 581 4863 
L 1159 4863 
L 1159 2956 
Q 1366 3272 1645 3428 
Q 1925 3584 2291 3584 
Q 2894 3584 3203 3211 
Q 3513 2838 3513 2113 
z
" transform="scale(0.015625)"/>
     </defs>
     <use xlink:href="#DejaVuSans-41"/>
     <use xlink:href="#DejaVuSans-6c" x="68.408203"/>
     <use xlink:href="#DejaVuSans-6c" x="96.191406"/>
     <use xlink:href="#DejaVuSans-20" x="123.974609"/>
     <use xlink:href="#DejaVuSans-52" x="155.761719"/>
     <use xlink:href="#DejaVuSans-65" x="220.744141"/>
     <use xlink:href="#DejaVuSans-61" x="282.267578"/>
     <use xlink:href="#DejaVuSans-73" x="343.546875"/>
     <use xlink:href="#DejaVuSans-6f" x="395.646484"/>
     <use xlink:href="#DejaVuSans-6e" x="456.828125"/>
     <use xlink:href="#DejaVuSans-61" x="520.207031"/>
     <use xlink:href="#DejaVuSans-62" x="581.486328"/>
     <use xlink:href="#DejaVuSans-6c" x="644.962891"/>
     <use xlink:href="#DejaVuSans-65" x="672.746094"/>
     <use xlink:href="#DejaVuSans-20" x="734.269531"/>
     <use xlink:href="#DejaVuSans-43" x="766.056641"/>
     <use xlink:href="#DejaVuSans-68" x="835.880859"/>
     <use xlink:href="#DejaVuSans-6f" x="899.259766"/>
     <use xlink:href="#DejaVuSans-69" x="960.441406"/>
     <use xlink:href="#DejaVuSans-63" x="988.224609"/>
     <use xlink:href="#DejaVuSans-65" x="1043.205078"/>
     <use xlink:href="#DejaVuSans-73" x="1104.728516"/>
    </g>
   </g>
   <g id="text_17">
    <!-- Sloooooow -->
    <g transform="translate(1191.109986 178.952135)scale(0.18 -0.18)">
     <defs>
      <path id="DejaVuSans-77" d="M 269 3500 
L 844 3500 
L 1563 769 
L 2278 3500 
L 2956 3500 
L 3675 769 
L 4391 3500 
L 4966 3500 
L 4050 0 
L 3372 0 
L 2619 2869 
L 1863 0 
L 1184 0 
L 269 3500 
z
" transform="scale(0.015625)"/>
     </defs>
     <use xlink:href="#DejaVuSans-53"/>
     <use xlink:href="#DejaVuSans-6c" x="63.476562"/>
     <use xlink:href="#DejaVuSans-6f" x="91.259766"/>
     <use xlink:href="#DejaVuSans-6f" x="152.441406"/>
     <use xlink:href="#DejaVuSans-6f" x="213.623047"/>
     <use xlink:href="#DejaVuSans-6f" x="274.804688"/>
     <use xlink:href="#DejaVuSans-6f" x="335.986328"/>
     <use xlink:href="#DejaVuSans-6f" x="397.167969"/>
     <use xlink:href="#DejaVuSans-77" x="458.349609"/>
    </g>
   </g>
   <g id="text_18">
    <!-- Time to write 1GiB with various $\mathtt{fdatasync}$ Strategies -->
    <g transform="translate(466.872 37.44)scale(0.216 -0.216)">
     <defs>
      <path id="DejaVuSans-47" d="M 3809 666 
L 3809 1919 
L 2778 1919 
L 2778 2438 
L 4434 2438 
L 4434 434 
Q 4069 175 3628 42 
Q 3188 -91 2688 -91 
Q 1594 -91 976 548 
Q 359 1188 359 2328 
Q 359 3472 976 4111 
Q 1594 4750 2688 4750 
Q 3144 4750 3555 4637 
Q 3966 4525 4313 4306 
L 4313 3634 
Q 3963 3931 3569 4081 
Q 3175 4231 2741 4231 
Q 1884 4231 1454 3753 
Q 1025 3275 1025 2328 
Q 1025 1384 1454 906 
Q 1884 428 2741 428 
Q 3075 428 3337 486 
Q 3600 544 3809 666 
z
" transform="scale(0.015625)"/>
     </defs>
     <use xlink:href="#DejaVuSans-54" transform="translate(0 0.015625)"/>
     <use xlink:href="#DejaVuSans-69" transform="translate(61.083984 0.015625)"/>
     <use xlink:href="#DejaVuSans-6d" transform="translate(88.867188 0.015625)"/>
     <use xlink:href="#DejaVuSans-65" transform="translate(186.279297 0.015625)"/>
     <use xlink:href="#DejaVuSans-20" transform="translate(247.802734 0.015625)"/>
     <use xlink:href="#DejaVuSans-74" transform="translate(279.589844 0.015625)"/>
     <use xlink:href="#DejaVuSans-6f" transform="translate(318.798828 0.015625)"/>
     <use xlink:href="#DejaVuSans-20" transform="translate(379.980469 0.015625)"/>
     <use xlink:href="#DejaVuSans-77" transform="translate(411.767578 0.015625)"/>
     <use xlink:href="#DejaVuSans-72" transform="translate(493.554688 0.015625)"/>
     <use xlink:href="#DejaVuSans-69" transform="translate(534.667969 0.015625)"/>
     <use xlink:href="#DejaVuSans-74" transform="translate(562.451172 0.015625)"/>
     <use xlink:href="#DejaVuSans-65" transform="translate(601.660156 0.015625)"/>
     <use xlink:href="#DejaVuSans-20" transform="translate(663.183594 0.015625)"/>
     <use xlink:href="#DejaVuSans-31" transform="translate(694.970703 0.015625)"/>
     <use xlink:href="#DejaVuSans-47" transform="translate(758.59375 0.015625)"/>
     <use xlink:href="#DejaVuSans-69" transform="translate(836.083984 0.015625)"/>
     <use xlink:href="#DejaVuSans-42" transform="translate(863.867188 0.015625)"/>
     <use xlink:href="#DejaVuSans-20" transform="translate(932.470703 0.015625)"/>
     <use xlink:href="#DejaVuSans-77" transform="translate(964.257812 0.015625)"/>
     <use xlink:href="#DejaVuSans-69" transform="translate(1046.044922 0.015625)"/>
     <use xlink:href="#DejaVuSans-74" transform="translate(1073.828125 0.015625)"/>
     <use xlink:href="#DejaVuSans-68" transform="translate(1113.037109 0.015625)"/>
     <use xlink:href="#DejaVuSans-20" transform="translate(1176.416016 0.015625)"/>
     <use xlink:href="#DejaVuSans-76" transform="translate(1208.203125 0.015625)"/>
     <use xlink:href="#DejaVuSans-61" transform="translate(1267.382812 0.015625)"/>
     <use xlink:href="#DejaVuSans-72" transform="translate(1328.662109 0.015625)"/>
     <use xlink:href="#DejaVuSans-69" transform="translate(1369.775391 0.015625)"/>
     <use xlink:href="#DejaVuSans-6f" transform="translate(1397.558594 0.015625)"/>
     <use xlink:href="#DejaVuSans-75" transform="translate(1458.740234 0.015625)"/>
     <use xlink:href="#DejaVuSans-73" transform="translate(1522.119141 0.015625)"/>
     <use xlink:href="#DejaVuSans-20" transform="translate(1574.21875 0.015625)"/>
     <use xlink:href="#DejaVuSansMono-66" transform="translate(1606.005859 0.015625)"/>
     <use xlink:href="#DejaVuSansMono-64" transform="translate(1666.210938 0.015625)"/>
     <use xlink:href="#DejaVuSansMono-61" transform="translate(1726.416016 0.015625)"/>
     <use xlink:href="#DejaVuSansMono-74" transform="translate(1786.621094 0.015625)"/>
     <use xlink:href="#DejaVuSansMono-61" transform="translate(1846.826172 0.015625)"/>
     <use xlink:href="#DejaVuSansMono-73" transform="translate(1907.03125 0.015625)"/>
     <use xlink:href="#DejaVuSansMono-79" transform="translate(1967.236328 0.015625)"/>
     <use xlink:href="#DejaVuSansMono-6e" transform="translate(2027.441406 0.015625)"/>
     <use xlink:href="#DejaVuSansMono-63" transform="translate(2087.646484 0.015625)"/>
     <use xlink:href="#DejaVuSans-20" transform="translate(2147.851562 0.015625)"/>
     <use xlink:href="#DejaVuSans-53" transform="translate(2179.638672 0.015625)"/>
     <use xlink:href="#DejaVuSans-74" transform="translate(2243.115234 0.015625)"/>
     <use xlink:href="#DejaVuSans-72" transform="translate(2282.324219 0.015625)"/>
     <use xlink:href="#DejaVuSans-61" transform="translate(2323.4375 0.015625)"/>
     <use xlink:href="#DejaVuSans-74" transform="translate(2384.716797 0.015625)"/>
     <use xlink:href="#DejaVuSans-65" transform="translate(2423.925781 0.015625)"/>
     <use xlink:href="#DejaVuSans-67" transform="translate(2485.449219 0.015625)"/>
     <use xlink:href="#DejaVuSans-69" transform="translate(2548.925781 0.015625)"/>
     <use xlink:href="#DejaVuSans-65" transform="translate(2576.708984 0.015625)"/>
     <use xlink:href="#DejaVuSans-73" transform="translate(2638.232422 0.015625)"/>
    </g>
   </g>
  </g>
 </g>
 <defs>
  <clipPath id="p134e75baed">
   <rect x="94.44" y="43.44" width="1326.12" height="606.12"/>
  </clipPath>
 </defs>
</svg>
