<?xml version="1.0" encoding="utf-8" standalone="no"?>
<!DOCTYPE svg PUBLIC "-//W3C//DTD SVG 1.1//EN"
  "http://www.w3.org/Graphics/SVG/1.1/DTD/svg11.dtd">
<svg xmlns:xlink="http://www.w3.org/1999/xlink" width="1440pt" height="720pt" viewBox="0 0 1440 720" xmlns="http://www.w3.org/2000/svg" version="1.1">
 <metadata>
  <rdf:RDF xmlns:dc="http://purl.org/dc/elements/1.1/" xmlns:cc="http://creativecommons.org/ns#" xmlns:rdf="http://www.w3.org/1999/02/22-rdf-syntax-ns#">
   <cc:Work>
    <dc:type rdf:resource="http://purl.org/dc/dcmitype/StillImage"/>
    <dc:date>2023-06-25T20:09:52.364965</dc:date>
    <dc:format>image/svg+xml</dc:format>
    <dc:creator>
     <cc:Agent>
      <dc:title>Matplotlib v3.5.1, https://matplotlib.org/</dc:title>
     </cc:Agent>
    </dc:creator>
   </cc:Work>
  </rdf:RDF>
 </metadata>
 <defs>
  <style type="text/css">*{stroke-linejoin: round; stroke-linecap: butt}</style>
 </defs>
 <g id="figure_1">
  <g id="patch_1">
   <path d="M 0 720 
L 1440 720 
L 1440 0 
L 0 0 
L 0 720 
z
" style="fill: none"/>
  </g>
  <g id="axes_1">
   <g id="patch_2">
    <path d="M 180 630 
L 1296 630 
L 1296 86.4 
L 180 86.4 
z
" style="fill: #ffffff"/>
   </g>
   <g id="PolyCollection_1">
    <path d="M 364.474003 605.290909 
L 299.889633 605.290909 
L 297.458513 605.274527 
L 295.087706 605.258144 
L 292.811901 605.241762 
L 290.665538 605.225379 
L 288.681812 605.208997 
L 286.891674 605.192614 
L 285.322894 605.176232 
L 283.999213 605.159849 
L 282.939632 605.143467 
L 282.157879 605.127084 
L 281.662061 605.110702 
L 281.454545 605.09432 
L 281.532037 605.077937 
L 281.885878 605.061555 
L 282.502522 605.045172 
L 283.36418 605.02879 
L 284.449568 605.012407 
L 285.73475 604.996025 
L 287.194006 604.979642 
L 288.80069 604.96326 
L 290.528041 604.946877 
L 292.349909 604.930495 
L 294.24137 604.914113 
L 296.179213 604.89773 
L 298.142295 604.881348 
L 300.111749 604.864965 
L 302.071082 604.848583 
L 304.006145 604.8322 
L 305.905022 604.815818 
L 307.757847 604.799435 
L 309.556581 604.783053 
L 311.294759 604.76667 
L 312.967244 604.750288 
L 314.569998 604.733905 
L 316.099876 604.717523 
L 317.554462 604.701141 
L 318.931947 604.684758 
L 320.231037 604.668376 
L 321.450909 604.651993 
L 322.591188 604.635611 
L 323.651949 604.619228 
L 324.633728 604.602846 
L 325.537537 604.586463 
L 326.36488 604.570081 
L 327.117756 604.553698 
L 327.798648 604.537316 
L 328.410498 604.520933 
L 328.956669 604.504551 
L 329.440882 604.488169 
L 329.867155 604.471786 
L 330.239721 604.455404 
L 330.562947 604.439021 
L 330.841254 604.422639 
L 331.079028 604.406256 
L 331.280551 604.389874 
L 331.449934 604.373491 
L 331.591055 604.357109 
L 331.707516 604.340726 
L 331.80261 604.324344 
L 331.879295 604.307961 
L 331.940179 604.291579 
L 331.98752 604.275197 
L 332.023225 604.258814 
L 332.048863 604.242432 
L 332.065678 604.226049 
L 332.074604 604.209667 
L 332.076294 604.193284 
L 332.071136 604.176902 
L 332.059281 604.160519 
L 332.04067 604.144137 
L 332.015062 604.127754 
L 331.982066 604.111372 
L 331.941173 604.09499 
L 331.891791 604.078607 
L 331.833289 604.062225 
L 331.765034 604.045842 
L 331.686439 604.02946 
L 331.597009 604.013077 
L 331.496391 603.996695 
L 331.384423 603.980312 
L 331.261175 603.96393 
L 331.126998 603.947547 
L 330.982557 603.931165 
L 330.828856 603.914782 
L 330.667256 603.8984 
L 330.499477 603.882018 
L 330.327587 603.865635 
L 330.153971 603.849253 
L 329.981288 603.83287 
L 329.81241 603.816488 
L 329.650351 603.800105 
L 329.498176 603.783723 
L 329.35891 603.76734 
L 329.235439 603.750958 
L 329.130411 603.734575 
L 329.046141 603.718193 
L 328.984526 603.70181 
L 328.946978 603.685428 
L 328.934365 603.669046 
L 335.429272 603.669046 
L 335.429272 603.669046 
L 335.416658 603.685428 
L 335.37911 603.70181 
L 335.317496 603.718193 
L 335.233226 603.734575 
L 335.128197 603.750958 
L 335.004727 603.76734 
L 334.865461 603.783723 
L 334.713285 603.800105 
L 334.551226 603.816488 
L 334.382348 603.83287 
L 334.209665 603.849253 
L 334.036049 603.865635 
L 333.864159 603.882018 
L 333.696381 603.8984 
L 333.534781 603.914782 
L 333.381079 603.931165 
L 333.236638 603.947547 
L 333.102461 603.96393 
L 332.979214 603.980312 
L 332.867245 603.996695 
L 332.766627 604.013077 
L 332.677198 604.02946 
L 332.598602 604.045842 
L 332.530347 604.062225 
L 332.471845 604.078607 
L 332.422464 604.09499 
L 332.38157 604.111372 
L 332.348574 604.127754 
L 332.322966 604.144137 
L 332.304355 604.160519 
L 332.2925 604.176902 
L 332.287342 604.193284 
L 332.289032 604.209667 
L 332.297959 604.226049 
L 332.314773 604.242432 
L 332.340411 604.258814 
L 332.376116 604.275197 
L 332.423457 604.291579 
L 332.484341 604.307961 
L 332.561026 604.324344 
L 332.65612 604.340726 
L 332.772582 604.357109 
L 332.913702 604.373491 
L 333.083085 604.389874 
L 333.284609 604.406256 
L 333.522383 604.422639 
L 333.800689 604.439021 
L 334.123916 604.455404 
L 334.496482 604.471786 
L 334.922754 604.488169 
L 335.406968 604.504551 
L 335.953138 604.520933 
L 336.564989 604.537316 
L 337.245881 604.553698 
L 337.998757 604.570081 
L 338.8261 604.586463 
L 339.729908 604.602846 
L 340.711687 604.619228 
L 341.772448 604.635611 
L 342.912728 604.651993 
L 344.1326 604.668376 
L 345.43169 604.684758 
L 346.809174 604.701141 
L 348.263761 604.717523 
L 349.793639 604.733905 
L 351.396392 604.750288 
L 353.068877 604.76667 
L 354.807055 604.783053 
L 356.605789 604.799435 
L 358.458615 604.815818 
L 360.357492 604.8322 
L 362.292554 604.848583 
L 364.251887 604.864965 
L 366.221342 604.881348 
L 368.184423 604.89773 
L 370.122267 604.914113 
L 372.013728 604.930495 
L 373.835595 604.946877 
L 375.562946 604.96326 
L 377.16963 604.979642 
L 378.628886 604.996025 
L 379.914069 605.012407 
L 380.999457 605.02879 
L 381.861114 605.045172 
L 382.477759 605.061555 
L 382.831599 605.077937 
L 382.909091 605.09432 
L 382.701575 605.110702 
L 382.205758 605.127084 
L 381.424004 605.143467 
L 380.364424 605.159849 
L 379.040742 605.176232 
L 377.471963 605.192614 
L 375.681825 605.208997 
L 373.698098 605.225379 
L 371.551735 605.241762 
L 369.27593 605.258144 
L 366.905123 605.274527 
L 364.474003 605.290909 
z
" clip-path="url(#p326456d1d8)" style="fill: #1f77b4; fill-opacity: 0.3"/>
   </g>
   <g id="PolyCollection_2">
    <path d="M 540.333623 527.117087 
L 529.848196 527.117087 
L 529.733145 527.017154 
L 529.6267 526.917221 
L 529.525635 526.817288 
L 529.426069 526.717355 
L 529.323523 526.617422 
L 529.212993 526.517489 
L 529.089039 526.417556 
L 528.945869 526.317623 
L 528.777447 526.21769 
L 528.577585 526.117757 
L 528.340042 526.017824 
L 528.058615 525.917891 
L 527.72722 525.817958 
L 527.33997 525.718025 
L 526.891241 525.618092 
L 526.375731 525.518159 
L 525.788513 525.418226 
L 525.125093 525.318293 
L 524.381456 525.21836 
L 523.55413 525.118427 
L 522.640251 525.018494 
L 521.637641 524.918561 
L 520.544899 524.818628 
L 519.361504 524.718695 
L 518.087933 524.618762 
L 516.725789 524.518829 
L 515.277926 524.418896 
L 513.748586 524.318963 
L 512.14351 524.21903 
L 510.470042 524.119097 
L 508.7372 524.019164 
L 506.955705 523.919231 
L 505.137963 523.819298 
L 503.297996 523.719365 
L 501.451304 523.619432 
L 499.614664 523.519499 
L 497.80587 523.419566 
L 496.043403 523.319633 
L 494.346055 523.2197 
L 492.732505 523.119767 
L 491.220876 523.019834 
L 489.828265 522.919901 
L 488.570293 522.819968 
L 487.460676 522.720035 
L 486.510834 522.620102 
L 485.729575 522.520169 
L 485.12284 522.420236 
L 484.693553 522.320303 
L 484.441553 522.22037 
L 484.363636 522.120437 
L 484.453695 522.020504 
L 484.702945 521.920571 
L 485.100247 521.820638 
L 485.632483 521.720705 
L 486.284996 521.620772 
L 487.042062 521.520839 
L 487.887369 521.420906 
L 488.804498 521.320973 
L 489.777377 521.22104 
L 490.790689 521.121107 
L 491.830233 521.021174 
L 492.883215 520.921241 
L 493.938463 520.821308 
L 494.986575 520.721374 
L 496.019985 520.621441 
L 497.032958 520.521508 
L 498.021526 520.421575 
L 498.98336 520.321642 
L 499.917604 520.221709 
L 500.824674 520.121776 
L 501.706031 520.021843 
L 502.563952 519.92191 
L 503.401298 519.821977 
L 504.221287 519.722044 
L 505.027297 519.622111 
L 505.822684 519.522178 
L 506.61063 519.422245 
L 507.394024 519.322312 
L 508.175372 519.222379 
L 508.95674 519.122446 
L 509.739722 519.022513 
L 510.525433 518.92258 
L 511.314528 518.822647 
L 512.107231 518.722714 
L 512.903379 518.622781 
L 513.702476 518.522848 
L 514.503747 518.422915 
L 515.306196 518.322982 
L 516.108655 518.223049 
L 516.909836 518.123116 
L 517.708369 518.023183 
L 518.502835 517.92325 
L 519.291793 517.823317 
L 520.073794 517.723384 
L 520.847395 517.623451 
L 521.611159 517.523518 
L 522.363658 517.423585 
L 523.103473 517.323652 
L 523.829187 517.223719 
L 546.352631 517.223719 
L 546.352631 517.223719 
L 547.078345 517.323652 
L 547.81816 517.423585 
L 548.570659 517.523518 
L 549.334423 517.623451 
L 550.108024 517.723384 
L 550.890025 517.823317 
L 551.678983 517.92325 
L 552.473449 518.023183 
L 553.271982 518.123116 
L 554.073163 518.223049 
L 554.875622 518.322982 
L 555.678071 518.422915 
L 556.479342 518.522848 
L 557.278439 518.622781 
L 558.074587 518.722714 
L 558.86729 518.822647 
L 559.656385 518.92258 
L 560.442096 519.022513 
L 561.225078 519.122446 
L 562.006446 519.222379 
L 562.787794 519.322312 
L 563.571188 519.422245 
L 564.359134 519.522178 
L 565.154521 519.622111 
L 565.960531 519.722044 
L 566.780521 519.821977 
L 567.617866 519.92191 
L 568.475787 520.021843 
L 569.357144 520.121776 
L 570.264214 520.221709 
L 571.198458 520.321642 
L 572.160292 520.421575 
L 573.14886 520.521508 
L 574.161833 520.621441 
L 575.195243 520.721374 
L 576.243355 520.821308 
L 577.298603 520.921241 
L 578.351585 521.021174 
L 579.391129 521.121107 
L 580.404441 521.22104 
L 581.37732 521.320973 
L 582.29445 521.420906 
L 583.139756 521.520839 
L 583.896822 521.620772 
L 584.549335 521.720705 
L 585.081571 521.820638 
L 585.478873 521.920571 
L 585.728124 522.020504 
L 585.818182 522.120437 
L 585.740265 522.22037 
L 585.488265 522.320303 
L 585.058978 522.420236 
L 584.452243 522.520169 
L 583.670984 522.620102 
L 582.721142 522.720035 
L 581.611525 522.819968 
L 580.353553 522.919901 
L 578.960942 523.019834 
L 577.449313 523.119767 
L 575.835764 523.2197 
L 574.138415 523.319633 
L 572.375948 523.419566 
L 570.567154 523.519499 
L 568.730514 523.619432 
L 566.883822 523.719365 
L 565.043855 523.819298 
L 563.226114 523.919231 
L 561.444618 524.019164 
L 559.711776 524.119097 
L 558.038309 524.21903 
L 556.433232 524.318963 
L 554.903892 524.418896 
L 553.45603 524.518829 
L 552.093885 524.618762 
L 550.820315 524.718695 
L 549.636919 524.818628 
L 548.544177 524.918561 
L 547.541567 525.018494 
L 546.627688 525.118427 
L 545.800362 525.21836 
L 545.056725 525.318293 
L 544.393305 525.418226 
L 543.806087 525.518159 
L 543.290577 525.618092 
L 542.841848 525.718025 
L 542.454598 525.817958 
L 542.123203 525.917891 
L 541.841776 526.017824 
L 541.604233 526.117757 
L 541.404371 526.21769 
L 541.235949 526.317623 
L 541.09278 526.417556 
L 540.968825 526.517489 
L 540.858296 526.617422 
L 540.755749 526.717355 
L 540.656183 526.817288 
L 540.555118 526.917221 
L 540.448673 527.017154 
L 540.333623 527.117087 
z
" clip-path="url(#p326456d1d8)" style="fill: #1f77b4; fill-opacity: 0.3"/>
   </g>
   <g id="PolyCollection_3">
    <path d="M 749.408641 513.006874 
L 726.591359 513.006874 
L 725.755745 512.923324 
L 724.878828 512.839773 
L 723.959409 512.756222 
L 722.996416 512.672672 
L 721.988953 512.589121 
L 720.936358 512.505571 
L 719.838274 512.42202 
L 718.694707 512.33847 
L 717.506092 512.254919 
L 716.273362 512.171369 
L 714.998009 512.087818 
L 713.682144 512.004268 
L 712.328552 511.920717 
L 710.94074 511.837166 
L 709.522978 511.753616 
L 708.080328 511.670065 
L 706.618662 511.586515 
L 705.144664 511.502964 
L 703.665822 511.419414 
L 702.190393 511.335863 
L 700.72736 511.252313 
L 699.286357 511.168762 
L 697.877584 511.085212 
L 696.511696 511.001661 
L 695.199667 510.91811 
L 693.952646 510.83456 
L 692.781785 510.751009 
L 691.698061 510.667459 
L 690.712085 510.583908 
L 689.833906 510.500358 
L 689.072813 510.416807 
L 688.437144 510.333257 
L 687.934111 510.249706 
L 687.569632 510.166156 
L 687.348191 510.082605 
L 687.272727 509.999054 
L 687.344551 509.915504 
L 687.563294 509.831953 
L 687.926901 509.748403 
L 688.431652 509.664852 
L 689.072223 509.581302 
L 689.84178 509.497751 
L 690.732109 509.414201 
L 691.733764 509.33065 
L 692.836244 509.2471 
L 694.028183 509.163549 
L 695.297555 509.079998 
L 696.631877 508.996448 
L 698.018418 508.912897 
L 699.444395 508.829347 
L 700.897169 508.745796 
L 702.364416 508.662246 
L 703.834287 508.578695 
L 705.295548 508.495145 
L 706.7377 508.411594 
L 708.151079 508.328044 
L 709.526935 508.244493 
L 710.857494 508.160942 
L 712.136 508.077392 
L 713.356741 507.993841 
L 714.515064 507.910291 
L 715.607368 507.82674 
L 716.631095 507.74319 
L 717.5847 507.659639 
L 718.467619 507.576089 
L 719.280221 507.492538 
L 720.023749 507.408988 
L 720.700262 507.325437 
L 721.312557 507.241886 
L 721.864087 507.158336 
L 722.358873 507.074785 
L 722.801409 506.991235 
L 723.196562 506.907684 
L 723.549467 506.824134 
L 723.865427 506.740583 
L 724.149804 506.657033 
L 724.407925 506.573482 
L 724.644986 506.489932 
L 724.865969 506.406381 
L 725.075568 506.32283 
L 725.278124 506.23928 
L 725.477578 506.155729 
L 725.677436 506.072179 
L 725.880747 505.988628 
L 726.090094 505.905078 
L 726.307601 505.821527 
L 726.534943 505.737977 
L 726.773377 505.654426 
L 727.023764 505.570876 
L 727.28661 505.487325 
L 727.5621 505.403774 
L 727.85014 505.320224 
L 728.150386 505.236673 
L 728.462283 505.153123 
L 728.785096 505.069572 
L 729.117932 504.986022 
L 729.459763 504.902471 
L 729.809447 504.818921 
L 730.165741 504.73537 
L 745.834259 504.73537 
L 745.834259 504.73537 
L 746.190553 504.818921 
L 746.540237 504.902471 
L 746.882068 504.986022 
L 747.214904 505.069572 
L 747.537717 505.153123 
L 747.849614 505.236673 
L 748.14986 505.320224 
L 748.4379 505.403774 
L 748.71339 505.487325 
L 748.976236 505.570876 
L 749.226623 505.654426 
L 749.465057 505.737977 
L 749.692399 505.821527 
L 749.909906 505.905078 
L 750.119253 505.988628 
L 750.322564 506.072179 
L 750.522422 506.155729 
L 750.721876 506.23928 
L 750.924432 506.32283 
L 751.134031 506.406381 
L 751.355014 506.489932 
L 751.592075 506.573482 
L 751.850196 506.657033 
L 752.134573 506.740583 
L 752.450533 506.824134 
L 752.803438 506.907684 
L 753.198591 506.991235 
L 753.641127 507.074785 
L 754.135913 507.158336 
L 754.687443 507.241886 
L 755.299738 507.325437 
L 755.976251 507.408988 
L 756.719779 507.492538 
L 757.532381 507.576089 
L 758.4153 507.659639 
L 759.368905 507.74319 
L 760.392632 507.82674 
L 761.484936 507.910291 
L 762.643259 507.993841 
L 763.864 508.077392 
L 765.142506 508.160942 
L 766.473065 508.244493 
L 767.848921 508.328044 
L 769.2623 508.411594 
L 770.704452 508.495145 
L 772.165713 508.578695 
L 773.635584 508.662246 
L 775.102831 508.745796 
L 776.555605 508.829347 
L 777.981582 508.912897 
L 779.368123 508.996448 
L 780.702445 509.079998 
L 781.971817 509.163549 
L 783.163756 509.2471 
L 784.266236 509.33065 
L 785.267891 509.414201 
L 786.15822 509.497751 
L 786.927777 509.581302 
L 787.568348 509.664852 
L 788.073099 509.748403 
L 788.436706 509.831953 
L 788.655449 509.915504 
L 788.727273 509.999054 
L 788.651809 510.082605 
L 788.430368 510.166156 
L 788.065889 510.249706 
L 787.562856 510.333257 
L 786.927187 510.416807 
L 786.166094 510.500358 
L 785.287915 510.583908 
L 784.301939 510.667459 
L 783.218215 510.751009 
L 782.047354 510.83456 
L 780.800333 510.91811 
L 779.488304 511.001661 
L 778.122416 511.085212 
L 776.713643 511.168762 
L 775.27264 511.252313 
L 773.809607 511.335863 
L 772.334178 511.419414 
L 770.855336 511.502964 
L 769.381338 511.586515 
L 767.919672 511.670065 
L 766.477022 511.753616 
L 765.05926 511.837166 
L 763.671448 511.920717 
L 762.317856 512.004268 
L 761.001991 512.087818 
L 759.726638 512.171369 
L 758.493908 512.254919 
L 757.305293 512.33847 
L 756.161726 512.42202 
L 755.063642 512.505571 
L 754.011047 512.589121 
L 753.003584 512.672672 
L 752.040591 512.756222 
L 751.121172 512.839773 
L 750.244255 512.923324 
L 749.408641 513.006874 
z
" clip-path="url(#p326456d1d8)" style="fill: #1f77b4; fill-opacity: 0.3"/>
   </g>
   <g id="PolyCollection_4">
    <path d="M 959.279255 449.754196 
L 922.538927 449.754196 
L 921.363229 449.69522 
L 920.166321 449.636243 
L 918.953291 449.577266 
L 917.72968 449.518289 
L 916.50144 449.459312 
L 915.274873 449.400335 
L 914.05656 449.341358 
L 912.853278 449.282382 
L 911.671901 449.223405 
L 910.519295 449.164428 
L 909.402198 449.105451 
L 908.327101 449.046474 
L 907.300122 448.987497 
L 906.326877 448.92852 
L 905.41236 448.869544 
L 904.560826 448.810567 
L 903.775682 448.75159 
L 903.059401 448.692613 
L 902.413442 448.633636 
L 901.838194 448.574659 
L 901.332946 448.515682 
L 900.895875 448.456706 
L 900.52406 448.397729 
L 900.213523 448.338752 
L 899.959296 448.279775 
L 899.755508 448.220798 
L 899.595496 448.161821 
L 899.471938 448.102844 
L 899.377001 448.043868 
L 899.302501 447.984891 
L 899.24008 447.925914 
L 899.18138 447.866937 
L 899.118226 447.80796 
L 899.042807 447.748983 
L 898.947846 447.690006 
L 898.826769 447.63103 
L 898.673854 447.572053 
L 898.484366 447.513076 
L 898.254677 447.454099 
L 897.982359 447.395122 
L 897.666259 447.336145 
L 897.306546 447.277168 
L 896.904731 447.218192 
L 896.46367 447.159215 
L 895.987525 447.100238 
L 895.481712 447.041261 
L 894.952818 446.982284 
L 894.408494 446.923307 
L 893.857324 446.86433 
L 893.308676 446.805354 
L 892.772536 446.746377 
L 892.259318 446.6874 
L 891.779676 446.628423 
L 891.344296 446.569446 
L 890.963691 446.510469 
L 890.647995 446.451492 
L 890.406758 446.392516 
L 890.248757 446.333539 
L 890.181818 446.274562 
L 890.212653 446.215585 
L 890.346726 446.156608 
L 890.588137 446.097631 
L 890.939542 446.038654 
L 891.402099 445.979678 
L 891.975449 445.920701 
L 892.657725 445.861724 
L 893.445601 445.802747 
L 894.334362 445.74377 
L 895.318016 445.684793 
L 896.389417 445.625816 
L 897.540424 445.56684 
L 898.762066 445.507863 
L 900.04473 445.448886 
L 901.37835 445.389909 
L 902.752605 445.330932 
L 904.15711 445.271955 
L 905.581604 445.212978 
L 907.016124 445.154002 
L 908.451166 445.095025 
L 909.877827 445.036048 
L 911.287923 444.977071 
L 912.674092 444.918094 
L 914.02986 444.859117 
L 915.349696 444.80014 
L 916.629029 444.741164 
L 917.864256 444.682187 
L 919.052714 444.62321 
L 920.192642 444.564233 
L 921.283124 444.505256 
L 922.324009 444.446279 
L 923.315832 444.387303 
L 924.259718 444.328326 
L 925.157283 444.269349 
L 926.010535 444.210372 
L 926.821768 444.151395 
L 927.593472 444.092418 
L 928.328233 444.033441 
L 929.028657 443.974465 
L 929.697289 443.915488 
L 952.120893 443.915488 
L 952.120893 443.915488 
L 952.789525 443.974465 
L 953.489949 444.033441 
L 954.22471 444.092418 
L 954.996413 444.151395 
L 955.807647 444.210372 
L 956.660898 444.269349 
L 957.558464 444.328326 
L 958.50235 444.387303 
L 959.494173 444.446279 
L 960.535058 444.505256 
L 961.625539 444.564233 
L 962.765468 444.62321 
L 963.953926 444.682187 
L 965.189153 444.741164 
L 966.468486 444.80014 
L 967.788321 444.859117 
L 969.14409 444.918094 
L 970.530258 444.977071 
L 971.940355 445.036048 
L 973.367016 445.095025 
L 974.802058 445.154002 
L 976.236578 445.212978 
L 977.661072 445.271955 
L 979.065577 445.330932 
L 980.439832 445.389909 
L 981.773452 445.448886 
L 983.056116 445.507863 
L 984.277758 445.56684 
L 985.428764 445.625816 
L 986.500166 445.684793 
L 987.48382 445.74377 
L 988.372581 445.802747 
L 989.160456 445.861724 
L 989.842733 445.920701 
L 990.416082 445.979678 
L 990.87864 446.038654 
L 991.230045 446.097631 
L 991.471456 446.156608 
L 991.605528 446.215585 
L 991.636364 446.274562 
L 991.569425 446.333539 
L 991.411424 446.392516 
L 991.170187 446.451492 
L 990.85449 446.510469 
L 990.473886 446.569446 
L 990.038506 446.628423 
L 989.558864 446.6874 
L 989.045646 446.746377 
L 988.509506 446.805354 
L 987.960858 446.86433 
L 987.409688 446.923307 
L 986.865364 446.982284 
L 986.33647 447.041261 
L 985.830657 447.100238 
L 985.354512 447.159215 
L 984.91345 447.218192 
L 984.511636 447.277168 
L 984.151922 447.336145 
L 983.835822 447.395122 
L 983.563505 447.454099 
L 983.333815 447.513076 
L 983.144328 447.572053 
L 982.991412 447.63103 
L 982.870336 447.690006 
L 982.775375 447.748983 
L 982.699956 447.80796 
L 982.636802 447.866937 
L 982.578102 447.925914 
L 982.515681 447.984891 
L 982.441181 448.043868 
L 982.346244 448.102844 
L 982.222686 448.161821 
L 982.062674 448.220798 
L 981.858885 448.279775 
L 981.604659 448.338752 
L 981.294122 448.397729 
L 980.922307 448.456706 
L 980.485236 448.515682 
L 979.979988 448.574659 
L 979.40474 448.633636 
L 978.758781 448.692613 
L 978.0425 448.75159 
L 977.257356 448.810567 
L 976.405822 448.869544 
L 975.491305 448.92852 
L 974.51806 448.987497 
L 973.491081 449.046474 
L 972.415984 449.105451 
L 971.298887 449.164428 
L 970.14628 449.223405 
L 968.964904 449.282382 
L 967.761622 449.341358 
L 966.543309 449.400335 
L 965.316741 449.459312 
L 964.088501 449.518289 
L 962.864891 449.577266 
L 961.651861 449.636243 
L 960.454953 449.69522 
L 959.279255 449.754196 
z
" clip-path="url(#p326456d1d8)" style="fill: #1f77b4; fill-opacity: 0.3"/>
   </g>
   <g id="PolyCollection_5">
    <path d="M 1165.381637 123.110881 
L 1122.254727 123.110881 
L 1121.600972 122.989651 
L 1120.973477 122.868421 
L 1120.372496 122.74719 
L 1119.797727 122.62596 
L 1119.248305 122.50473 
L 1118.722817 122.3835 
L 1118.219324 122.26227 
L 1117.7354 122.141039 
L 1117.268172 122.019809 
L 1116.814384 121.898579 
L 1116.370458 121.777349 
L 1115.932568 121.656119 
L 1115.496722 121.534888 
L 1115.058848 121.413658 
L 1114.61488 121.292428 
L 1114.160849 121.171198 
L 1113.692968 121.049968 
L 1113.207725 120.928737 
L 1112.701958 120.807507 
L 1112.172934 120.686277 
L 1111.618414 120.565047 
L 1111.03671 120.443817 
L 1110.426738 120.322586 
L 1109.788043 120.201356 
L 1109.12083 120.080126 
L 1108.425967 119.958896 
L 1107.704985 119.837666 
L 1106.960059 119.716435 
L 1106.193974 119.595205 
L 1105.41009 119.473975 
L 1104.612281 119.352745 
L 1103.804877 119.231515 
L 1102.992591 119.110284 
L 1102.180441 118.989054 
L 1101.373668 118.867824 
L 1100.577653 118.746594 
L 1099.797831 118.625364 
L 1099.039608 118.504133 
L 1098.308278 118.382903 
L 1097.608953 118.261673 
L 1096.94649 118.140443 
L 1096.325431 118.019213 
L 1095.749952 117.897982 
L 1095.22382 117.776752 
L 1094.750361 117.655522 
L 1094.332433 117.534292 
L 1093.972417 117.413061 
L 1093.672211 117.291831 
L 1093.433233 117.170601 
L 1093.25643 117.049371 
L 1093.1423 116.928141 
L 1093.090909 116.80691 
L 1093.10192 116.68568 
L 1093.174619 116.56445 
L 1093.307944 116.44322 
L 1093.500518 116.32199 
L 1093.750676 116.200759 
L 1094.056494 116.079529 
L 1094.415816 115.958299 
L 1094.826281 115.837069 
L 1095.285346 115.715839 
L 1095.79031 115.594608 
L 1096.338333 115.473378 
L 1096.926462 115.352148 
L 1097.551646 115.230918 
L 1098.210764 115.109688 
L 1098.900641 114.988457 
L 1099.618078 114.867227 
L 1100.359873 114.745997 
L 1101.122851 114.624767 
L 1101.903888 114.503537 
L 1102.699948 114.382306 
L 1103.508108 114.261076 
L 1104.325591 114.139846 
L 1105.149799 114.018616 
L 1105.978338 113.897386 
L 1106.809049 113.776155 
L 1107.640029 113.654925 
L 1108.469652 113.533695 
L 1109.29658 113.412465 
L 1110.119775 113.291235 
L 1110.938497 113.170004 
L 1111.752301 113.048774 
L 1112.561018 112.927544 
L 1113.364743 112.806314 
L 1114.1638 112.685084 
L 1114.958714 112.563853 
L 1115.75017 112.442623 
L 1116.538969 112.321393 
L 1117.325983 112.200163 
L 1118.112108 112.078933 
L 1118.898213 111.957702 
L 1119.685095 111.836472 
L 1120.473434 111.715242 
L 1121.263754 111.594012 
L 1122.056385 111.472782 
L 1122.851437 111.351551 
L 1123.648774 111.230321 
L 1124.448006 111.109091 
L 1163.188357 111.109091 
L 1163.188357 111.109091 
L 1163.98759 111.230321 
L 1164.784927 111.351551 
L 1165.579978 111.472782 
L 1166.372609 111.594012 
L 1167.162929 111.715242 
L 1167.951269 111.836472 
L 1168.738151 111.957702 
L 1169.524256 112.078933 
L 1170.31038 112.200163 
L 1171.097395 112.321393 
L 1171.886194 112.442623 
L 1172.677649 112.563853 
L 1173.472564 112.685084 
L 1174.271621 112.806314 
L 1175.075346 112.927544 
L 1175.884063 113.048774 
L 1176.697866 113.170004 
L 1177.516589 113.291235 
L 1178.339784 113.412465 
L 1179.166712 113.533695 
L 1179.996335 113.654925 
L 1180.827315 113.776155 
L 1181.658025 113.897386 
L 1182.486565 114.018616 
L 1183.310772 114.139846 
L 1184.128256 114.261076 
L 1184.936415 114.382306 
L 1185.732475 114.503537 
L 1186.513513 114.624767 
L 1187.27649 114.745997 
L 1188.018286 114.867227 
L 1188.735723 114.988457 
L 1189.4256 115.109688 
L 1190.084717 115.230918 
L 1190.709902 115.352148 
L 1191.29803 115.473378 
L 1191.846054 115.594608 
L 1192.351018 115.715839 
L 1192.810083 115.837069 
L 1193.220548 115.958299 
L 1193.57987 116.079529 
L 1193.885688 116.200759 
L 1194.135845 116.32199 
L 1194.32842 116.44322 
L 1194.461745 116.56445 
L 1194.534444 116.68568 
L 1194.545455 116.80691 
L 1194.494064 116.928141 
L 1194.379934 117.049371 
L 1194.203131 117.170601 
L 1193.964152 117.291831 
L 1193.663946 117.413061 
L 1193.303931 117.534292 
L 1192.886003 117.655522 
L 1192.412543 117.776752 
L 1191.886412 117.897982 
L 1191.310933 118.019213 
L 1190.689874 118.140443 
L 1190.02741 118.261673 
L 1189.328085 118.382903 
L 1188.596756 118.504133 
L 1187.838532 118.625364 
L 1187.058711 118.746594 
L 1186.262696 118.867824 
L 1185.455923 118.989054 
L 1184.643773 119.110284 
L 1183.831486 119.231515 
L 1183.024083 119.352745 
L 1182.226274 119.473975 
L 1181.44239 119.595205 
L 1180.676305 119.716435 
L 1179.931378 119.837666 
L 1179.210397 119.958896 
L 1178.515534 120.080126 
L 1177.848321 120.201356 
L 1177.209626 120.322586 
L 1176.599653 120.443817 
L 1176.01795 120.565047 
L 1175.46343 120.686277 
L 1174.934405 120.807507 
L 1174.428638 120.928737 
L 1173.943395 121.049968 
L 1173.475515 121.171198 
L 1173.021483 121.292428 
L 1172.577515 121.413658 
L 1172.139642 121.534888 
L 1171.703796 121.656119 
L 1171.265906 121.777349 
L 1170.821979 121.898579 
L 1170.368191 122.019809 
L 1169.900964 122.141039 
L 1169.417039 122.26227 
L 1168.913547 122.3835 
L 1168.388058 122.50473 
L 1167.838636 122.62596 
L 1167.263867 122.74719 
L 1166.662887 122.868421 
L 1166.035391 122.989651 
L 1165.381637 123.110881 
z
" clip-path="url(#p326456d1d8)" style="fill: #1f77b4; fill-opacity: 0.3"/>
   </g>
   <g id="PolyCollection_6">
    <defs>
     <path id="md6712744d5" d="M 129.272727 -633.6 
L 129.272727 -90 
L 433.636364 -90 
L 433.636364 -633.6 
L 433.636364 -633.6 
L 129.272727 -633.6 
z
" style="stroke: #ff0000; stroke-opacity: 0.05"/>
    </defs>
    <g clip-path="url(#p326456d1d8)">
     <use xlink:href="#md6712744d5" x="0" y="720" style="fill: #ff0000; fill-opacity: 0.05; stroke: #ff0000; stroke-opacity: 0.05"/>
    </g>
   </g>
   <g id="PolyCollection_7">
    <defs>
     <path id="m7bb0bf0e6a" d="M 433.636364 -633.6 
L 433.636364 -90 
L 1042.363636 -90 
L 1042.363636 -633.6 
L 1042.363636 -633.6 
L 433.636364 -633.6 
z
" style="stroke: #008000; stroke-opacity: 0.05"/>
    </defs>
    <g clip-path="url(#p326456d1d8)">
     <use xlink:href="#m7bb0bf0e6a" x="0" y="720" style="fill: #008000; fill-opacity: 0.05; stroke: #008000; stroke-opacity: 0.05"/>
    </g>
   </g>
   <g id="PolyCollection_8">
    <defs>
     <path id="m6c131447a5" d="M 1042.363636 -633.6 
L 1042.363636 -90 
L 1448.181818 -90 
L 1448.181818 -633.6 
L 1448.181818 -633.6 
L 1042.363636 -633.6 
z
" style="stroke: #ff0000; stroke-opacity: 0.05"/>
    </defs>
    <g clip-path="url(#p326456d1d8)">
     <use xlink:href="#m6c131447a5" x="0" y="720" style="fill: #ff0000; fill-opacity: 0.05; stroke: #ff0000; stroke-opacity: 0.05"/>
    </g>
   </g>
   <g id="matplotlib.axis_1">
    <g id="xtick_1">
     <g id="line2d_1">
      <path d="M 332.181818 630 
L 332.181818 86.4 
" clip-path="url(#p326456d1d8)" style="fill: none; stroke-dasharray: 3.7,1.6; stroke-dashoffset: 0; stroke: #666666"/>
     </g>
     <g id="line2d_2">
      <defs>
       <path id="m640e45fa53" d="M 0 0 
L 0 3.5 
" style="stroke: #000000; stroke-width: 0.8"/>
      </defs>
      <g>
       <use xlink:href="#m640e45fa53" x="332.181818" y="630" style="stroke: #000000; stroke-width: 0.8"/>
      </g>
     </g>
     <g id="text_1">
      <!-- fsync never -->
      <g transform="translate(279.679474 650.677187)scale(0.18 -0.18)">
       <defs>
        <path id="DejaVuSans-66" d="M 2375 4863 
L 2375 4384 
L 1825 4384 
Q 1516 4384 1395 4259 
Q 1275 4134 1275 3809 
L 1275 3500 
L 2222 3500 
L 2222 3053 
L 1275 3053 
L 1275 0 
L 697 0 
L 697 3053 
L 147 3053 
L 147 3500 
L 697 3500 
L 697 3744 
Q 697 4328 969 4595 
Q 1241 4863 1831 4863 
L 2375 4863 
z
" transform="scale(0.015625)"/>
        <path id="DejaVuSans-73" d="M 2834 3397 
L 2834 2853 
Q 2591 2978 2328 3040 
Q 2066 3103 1784 3103 
Q 1356 3103 1142 2972 
Q 928 2841 928 2578 
Q 928 2378 1081 2264 
Q 1234 2150 1697 2047 
L 1894 2003 
Q 2506 1872 2764 1633 
Q 3022 1394 3022 966 
Q 3022 478 2636 193 
Q 2250 -91 1575 -91 
Q 1294 -91 989 -36 
Q 684 19 347 128 
L 347 722 
Q 666 556 975 473 
Q 1284 391 1588 391 
Q 1994 391 2212 530 
Q 2431 669 2431 922 
Q 2431 1156 2273 1281 
Q 2116 1406 1581 1522 
L 1381 1569 
Q 847 1681 609 1914 
Q 372 2147 372 2553 
Q 372 3047 722 3315 
Q 1072 3584 1716 3584 
Q 2034 3584 2315 3537 
Q 2597 3491 2834 3397 
z
" transform="scale(0.015625)"/>
        <path id="DejaVuSans-79" d="M 2059 -325 
Q 1816 -950 1584 -1140 
Q 1353 -1331 966 -1331 
L 506 -1331 
L 506 -850 
L 844 -850 
Q 1081 -850 1212 -737 
Q 1344 -625 1503 -206 
L 1606 56 
L 191 3500 
L 800 3500 
L 1894 763 
L 2988 3500 
L 3597 3500 
L 2059 -325 
z
" transform="scale(0.015625)"/>
        <path id="DejaVuSans-6e" d="M 3513 2113 
L 3513 0 
L 2938 0 
L 2938 2094 
Q 2938 2591 2744 2837 
Q 2550 3084 2163 3084 
Q 1697 3084 1428 2787 
Q 1159 2491 1159 1978 
L 1159 0 
L 581 0 
L 581 3500 
L 1159 3500 
L 1159 2956 
Q 1366 3272 1645 3428 
Q 1925 3584 2291 3584 
Q 2894 3584 3203 3211 
Q 3513 2838 3513 2113 
z
" transform="scale(0.015625)"/>
        <path id="DejaVuSans-63" d="M 3122 3366 
L 3122 2828 
Q 2878 2963 2633 3030 
Q 2388 3097 2138 3097 
Q 1578 3097 1268 2742 
Q 959 2388 959 1747 
Q 959 1106 1268 751 
Q 1578 397 2138 397 
Q 2388 397 2633 464 
Q 2878 531 3122 666 
L 3122 134 
Q 2881 22 2623 -34 
Q 2366 -91 2075 -91 
Q 1284 -91 818 406 
Q 353 903 353 1747 
Q 353 2603 823 3093 
Q 1294 3584 2113 3584 
Q 2378 3584 2631 3529 
Q 2884 3475 3122 3366 
z
" transform="scale(0.015625)"/>
        <path id="DejaVuSans-20" transform="scale(0.015625)"/>
        <path id="DejaVuSans-65" d="M 3597 1894 
L 3597 1613 
L 953 1613 
Q 991 1019 1311 708 
Q 1631 397 2203 397 
Q 2534 397 2845 478 
Q 3156 559 3463 722 
L 3463 178 
Q 3153 47 2828 -22 
Q 2503 -91 2169 -91 
Q 1331 -91 842 396 
Q 353 884 353 1716 
Q 353 2575 817 3079 
Q 1281 3584 2069 3584 
Q 2775 3584 3186 3129 
Q 3597 2675 3597 1894 
z
M 3022 2063 
Q 3016 2534 2758 2815 
Q 2500 3097 2075 3097 
Q 1594 3097 1305 2825 
Q 1016 2553 972 2059 
L 3022 2063 
z
" transform="scale(0.015625)"/>
        <path id="DejaVuSans-76" d="M 191 3500 
L 800 3500 
L 1894 563 
L 2988 3500 
L 3597 3500 
L 2284 0 
L 1503 0 
L 191 3500 
z
" transform="scale(0.015625)"/>
        <path id="DejaVuSans-72" d="M 2631 2963 
Q 2534 3019 2420 3045 
Q 2306 3072 2169 3072 
Q 1681 3072 1420 2755 
Q 1159 2438 1159 1844 
L 1159 0 
L 581 0 
L 581 3500 
L 1159 3500 
L 1159 2956 
Q 1341 3275 1631 3429 
Q 1922 3584 2338 3584 
Q 2397 3584 2469 3576 
Q 2541 3569 2628 3553 
L 2631 2963 
z
" transform="scale(0.015625)"/>
       </defs>
       <use xlink:href="#DejaVuSans-66"/>
       <use xlink:href="#DejaVuSans-73" x="35.205078"/>
       <use xlink:href="#DejaVuSans-79" x="87.304688"/>
       <use xlink:href="#DejaVuSans-6e" x="146.484375"/>
       <use xlink:href="#DejaVuSans-63" x="209.863281"/>
       <use xlink:href="#DejaVuSans-20" x="264.84375"/>
       <use xlink:href="#DejaVuSans-6e" x="296.630859"/>
       <use xlink:href="#DejaVuSans-65" x="360.009766"/>
       <use xlink:href="#DejaVuSans-76" x="421.533203"/>
       <use xlink:href="#DejaVuSans-65" x="480.712891"/>
       <use xlink:href="#DejaVuSans-72" x="542.236328"/>
      </g>
     </g>
    </g>
    <g id="xtick_2">
     <g id="line2d_3">
      <path d="M 535.090909 630 
L 535.090909 86.4 
" clip-path="url(#p326456d1d8)" style="fill: none; stroke-dasharray: 3.7,1.6; stroke-dashoffset: 0; stroke: #666666"/>
     </g>
     <g id="line2d_4">
      <g>
       <use xlink:href="#m640e45fa53" x="535.090909" y="630" style="stroke: #000000; stroke-width: 0.8"/>
      </g>
     </g>
     <g id="text_2">
      <!-- fsync@end -->
      <g transform="translate(485.299815 650.677187)scale(0.18 -0.18)">
       <defs>
        <path id="DejaVuSans-40" d="M 2381 1678 
Q 2381 1231 2603 976 
Q 2825 722 3213 722 
Q 3597 722 3817 978 
Q 4038 1234 4038 1678 
Q 4038 2116 3813 2373 
Q 3588 2631 3206 2631 
Q 2828 2631 2604 2375 
Q 2381 2119 2381 1678 
z
M 4084 744 
Q 3897 503 3655 389 
Q 3413 275 3091 275 
Q 2553 275 2217 664 
Q 1881 1053 1881 1678 
Q 1881 2303 2218 2693 
Q 2556 3084 3091 3084 
Q 3413 3084 3656 2967 
Q 3900 2850 4084 2613 
L 4084 3022 
L 4531 3022 
L 4531 722 
Q 4988 791 5245 1139 
Q 5503 1488 5503 2041 
Q 5503 2375 5404 2669 
Q 5306 2963 5106 3213 
Q 4781 3622 4314 3839 
Q 3847 4056 3297 4056 
Q 2913 4056 2559 3954 
Q 2206 3853 1906 3653 
Q 1416 3334 1139 2817 
Q 863 2300 863 1697 
Q 863 1200 1042 765 
Q 1222 331 1563 0 
Q 1891 -325 2322 -495 
Q 2753 -666 3244 -666 
Q 3647 -666 4036 -530 
Q 4425 -394 4750 -141 
L 5031 -488 
Q 4641 -791 4180 -952 
Q 3719 -1113 3244 -1113 
Q 2666 -1113 2153 -908 
Q 1641 -703 1241 -313 
Q 841 78 631 592 
Q 422 1106 422 1697 
Q 422 2266 634 2781 
Q 847 3297 1241 3688 
Q 1644 4084 2172 4295 
Q 2700 4506 3291 4506 
Q 3953 4506 4520 4234 
Q 5088 3963 5472 3463 
Q 5706 3156 5829 2797 
Q 5953 2438 5953 2053 
Q 5953 1231 5456 756 
Q 4959 281 4084 263 
L 4084 744 
z
" transform="scale(0.015625)"/>
        <path id="DejaVuSans-64" d="M 2906 2969 
L 2906 4863 
L 3481 4863 
L 3481 0 
L 2906 0 
L 2906 525 
Q 2725 213 2448 61 
Q 2172 -91 1784 -91 
Q 1150 -91 751 415 
Q 353 922 353 1747 
Q 353 2572 751 3078 
Q 1150 3584 1784 3584 
Q 2172 3584 2448 3432 
Q 2725 3281 2906 2969 
z
M 947 1747 
Q 947 1113 1208 752 
Q 1469 391 1925 391 
Q 2381 391 2643 752 
Q 2906 1113 2906 1747 
Q 2906 2381 2643 2742 
Q 2381 3103 1925 3103 
Q 1469 3103 1208 2742 
Q 947 2381 947 1747 
z
" transform="scale(0.015625)"/>
       </defs>
       <use xlink:href="#DejaVuSans-66"/>
       <use xlink:href="#DejaVuSans-73" x="35.205078"/>
       <use xlink:href="#DejaVuSans-79" x="87.304688"/>
       <use xlink:href="#DejaVuSans-6e" x="146.484375"/>
       <use xlink:href="#DejaVuSans-63" x="209.863281"/>
       <use xlink:href="#DejaVuSans-40" x="264.84375"/>
       <use xlink:href="#DejaVuSans-65" x="364.84375"/>
       <use xlink:href="#DejaVuSans-6e" x="426.367188"/>
       <use xlink:href="#DejaVuSans-64" x="489.746094"/>
      </g>
     </g>
    </g>
    <g id="xtick_3">
     <g id="line2d_5">
      <path d="M 738 630 
L 738 86.4 
" clip-path="url(#p326456d1d8)" style="fill: none; stroke-dasharray: 3.7,1.6; stroke-dashoffset: 0; stroke: #666666"/>
     </g>
     <g id="line2d_6">
      <g>
       <use xlink:href="#m640e45fa53" x="738" y="630" style="stroke: #000000; stroke-width: 0.8"/>
      </g>
     </g>
     <g id="text_3">
      <!-- fsync@100MiB -->
      <g transform="translate(671.544844 650.677187)scale(0.18 -0.18)">
       <defs>
        <path id="DejaVuSans-31" d="M 794 531 
L 1825 531 
L 1825 4091 
L 703 3866 
L 703 4441 
L 1819 4666 
L 2450 4666 
L 2450 531 
L 3481 531 
L 3481 0 
L 794 0 
L 794 531 
z
" transform="scale(0.015625)"/>
        <path id="DejaVuSans-30" d="M 2034 4250 
Q 1547 4250 1301 3770 
Q 1056 3291 1056 2328 
Q 1056 1369 1301 889 
Q 1547 409 2034 409 
Q 2525 409 2770 889 
Q 3016 1369 3016 2328 
Q 3016 3291 2770 3770 
Q 2525 4250 2034 4250 
z
M 2034 4750 
Q 2819 4750 3233 4129 
Q 3647 3509 3647 2328 
Q 3647 1150 3233 529 
Q 2819 -91 2034 -91 
Q 1250 -91 836 529 
Q 422 1150 422 2328 
Q 422 3509 836 4129 
Q 1250 4750 2034 4750 
z
" transform="scale(0.015625)"/>
        <path id="DejaVuSans-4d" d="M 628 4666 
L 1569 4666 
L 2759 1491 
L 3956 4666 
L 4897 4666 
L 4897 0 
L 4281 0 
L 4281 4097 
L 3078 897 
L 2444 897 
L 1241 4097 
L 1241 0 
L 628 0 
L 628 4666 
z
" transform="scale(0.015625)"/>
        <path id="DejaVuSans-69" d="M 603 3500 
L 1178 3500 
L 1178 0 
L 603 0 
L 603 3500 
z
M 603 4863 
L 1178 4863 
L 1178 4134 
L 603 4134 
L 603 4863 
z
" transform="scale(0.015625)"/>
        <path id="DejaVuSans-42" d="M 1259 2228 
L 1259 519 
L 2272 519 
Q 2781 519 3026 730 
Q 3272 941 3272 1375 
Q 3272 1813 3026 2020 
Q 2781 2228 2272 2228 
L 1259 2228 
z
M 1259 4147 
L 1259 2741 
L 2194 2741 
Q 2656 2741 2882 2914 
Q 3109 3088 3109 3444 
Q 3109 3797 2882 3972 
Q 2656 4147 2194 4147 
L 1259 4147 
z
M 628 4666 
L 2241 4666 
Q 2963 4666 3353 4366 
Q 3744 4066 3744 3513 
Q 3744 3084 3544 2831 
Q 3344 2578 2956 2516 
Q 3422 2416 3680 2098 
Q 3938 1781 3938 1306 
Q 3938 681 3513 340 
Q 3088 0 2303 0 
L 628 0 
L 628 4666 
z
" transform="scale(0.015625)"/>
       </defs>
       <use xlink:href="#DejaVuSans-66"/>
       <use xlink:href="#DejaVuSans-73" x="35.205078"/>
       <use xlink:href="#DejaVuSans-79" x="87.304688"/>
       <use xlink:href="#DejaVuSans-6e" x="146.484375"/>
       <use xlink:href="#DejaVuSans-63" x="209.863281"/>
       <use xlink:href="#DejaVuSans-40" x="264.84375"/>
       <use xlink:href="#DejaVuSans-31" x="364.84375"/>
       <use xlink:href="#DejaVuSans-30" x="428.466797"/>
       <use xlink:href="#DejaVuSans-30" x="492.089844"/>
       <use xlink:href="#DejaVuSans-4d" x="555.712891"/>
       <use xlink:href="#DejaVuSans-69" x="641.992188"/>
       <use xlink:href="#DejaVuSans-42" x="669.775391"/>
      </g>
     </g>
    </g>
    <g id="xtick_4">
     <g id="line2d_7">
      <path d="M 940.909091 630 
L 940.909091 86.4 
" clip-path="url(#p326456d1d8)" style="fill: none; stroke-dasharray: 3.7,1.6; stroke-dashoffset: 0; stroke: #666666"/>
     </g>
     <g id="line2d_8">
      <g>
       <use xlink:href="#m640e45fa53" x="940.909091" y="630" style="stroke: #000000; stroke-width: 0.8"/>
      </g>
     </g>
     <g id="text_4">
      <!-- fsync@10MiB -->
      <g transform="translate(880.180185 650.677187)scale(0.18 -0.18)">
       <use xlink:href="#DejaVuSans-66"/>
       <use xlink:href="#DejaVuSans-73" x="35.205078"/>
       <use xlink:href="#DejaVuSans-79" x="87.304688"/>
       <use xlink:href="#DejaVuSans-6e" x="146.484375"/>
       <use xlink:href="#DejaVuSans-63" x="209.863281"/>
       <use xlink:href="#DejaVuSans-40" x="264.84375"/>
       <use xlink:href="#DejaVuSans-31" x="364.84375"/>
       <use xlink:href="#DejaVuSans-30" x="428.466797"/>
       <use xlink:href="#DejaVuSans-4d" x="492.089844"/>
       <use xlink:href="#DejaVuSans-69" x="578.369141"/>
       <use xlink:href="#DejaVuSans-42" x="606.152344"/>
      </g>
     </g>
    </g>
    <g id="xtick_5">
     <g id="line2d_9">
      <path d="M 1143.818182 630 
L 1143.818182 86.4 
" clip-path="url(#p326456d1d8)" style="fill: none; stroke-dasharray: 3.7,1.6; stroke-dashoffset: 0; stroke: #666666"/>
     </g>
     <g id="line2d_10">
      <g>
       <use xlink:href="#m640e45fa53" x="1143.818182" y="630" style="stroke: #000000; stroke-width: 0.8"/>
      </g>
     </g>
     <g id="text_5">
      <!-- fsync@1MiB -->
      <g transform="translate(1088.815526 650.677187)scale(0.18 -0.18)">
       <use xlink:href="#DejaVuSans-66"/>
       <use xlink:href="#DejaVuSans-73" x="35.205078"/>
       <use xlink:href="#DejaVuSans-79" x="87.304688"/>
       <use xlink:href="#DejaVuSans-6e" x="146.484375"/>
       <use xlink:href="#DejaVuSans-63" x="209.863281"/>
       <use xlink:href="#DejaVuSans-40" x="264.84375"/>
       <use xlink:href="#DejaVuSans-31" x="364.84375"/>
       <use xlink:href="#DejaVuSans-4d" x="428.466797"/>
       <use xlink:href="#DejaVuSans-69" x="514.746094"/>
       <use xlink:href="#DejaVuSans-42" x="542.529297"/>
      </g>
     </g>
    </g>
    <g id="xtick_6">
     <g id="line2d_11">
      <path d="M 210.436364 630 
L 210.436364 86.4 
" clip-path="url(#p326456d1d8)" style="fill: none; stroke-dasharray: 0.4,0.66; stroke-dashoffset: 0; stroke: #000000; stroke-width: 0.4"/>
     </g>
     <g id="line2d_12">
      <defs>
       <path id="m47e339d318" d="M 0 0 
L 0 2 
" style="stroke: #000000; stroke-width: 0.6"/>
      </defs>
      <g>
       <use xlink:href="#m47e339d318" x="210.436364" y="630" style="stroke: #000000; stroke-width: 0.6"/>
      </g>
     </g>
    </g>
    <g id="xtick_7">
     <g id="line2d_13">
      <path d="M 251.018182 630 
L 251.018182 86.4 
" clip-path="url(#p326456d1d8)" style="fill: none; stroke-dasharray: 0.4,0.66; stroke-dashoffset: 0; stroke: #000000; stroke-width: 0.4"/>
     </g>
     <g id="line2d_14">
      <g>
       <use xlink:href="#m47e339d318" x="251.018182" y="630" style="stroke: #000000; stroke-width: 0.6"/>
      </g>
     </g>
    </g>
    <g id="xtick_8">
     <g id="line2d_15">
      <path d="M 291.6 630 
L 291.6 86.4 
" clip-path="url(#p326456d1d8)" style="fill: none; stroke-dasharray: 0.4,0.66; stroke-dashoffset: 0; stroke: #000000; stroke-width: 0.4"/>
     </g>
     <g id="line2d_16">
      <g>
       <use xlink:href="#m47e339d318" x="291.6" y="630" style="stroke: #000000; stroke-width: 0.6"/>
      </g>
     </g>
    </g>
    <g id="xtick_9">
     <g id="line2d_17">
      <path d="M 372.763636 630 
L 372.763636 86.4 
" clip-path="url(#p326456d1d8)" style="fill: none; stroke-dasharray: 0.4,0.66; stroke-dashoffset: 0; stroke: #000000; stroke-width: 0.4"/>
     </g>
     <g id="line2d_18">
      <g>
       <use xlink:href="#m47e339d318" x="372.763636" y="630" style="stroke: #000000; stroke-width: 0.6"/>
      </g>
     </g>
    </g>
    <g id="xtick_10">
     <g id="line2d_19">
      <path d="M 413.345455 630 
L 413.345455 86.4 
" clip-path="url(#p326456d1d8)" style="fill: none; stroke-dasharray: 0.4,0.66; stroke-dashoffset: 0; stroke: #000000; stroke-width: 0.4"/>
     </g>
     <g id="line2d_20">
      <g>
       <use xlink:href="#m47e339d318" x="413.345455" y="630" style="stroke: #000000; stroke-width: 0.6"/>
      </g>
     </g>
    </g>
    <g id="xtick_11">
     <g id="line2d_21">
      <path d="M 453.927273 630 
L 453.927273 86.4 
" clip-path="url(#p326456d1d8)" style="fill: none; stroke-dasharray: 0.4,0.66; stroke-dashoffset: 0; stroke: #000000; stroke-width: 0.4"/>
     </g>
     <g id="line2d_22">
      <g>
       <use xlink:href="#m47e339d318" x="453.927273" y="630" style="stroke: #000000; stroke-width: 0.6"/>
      </g>
     </g>
    </g>
    <g id="xtick_12">
     <g id="line2d_23">
      <path d="M 494.509091 630 
L 494.509091 86.4 
" clip-path="url(#p326456d1d8)" style="fill: none; stroke-dasharray: 0.4,0.66; stroke-dashoffset: 0; stroke: #000000; stroke-width: 0.4"/>
     </g>
     <g id="line2d_24">
      <g>
       <use xlink:href="#m47e339d318" x="494.509091" y="630" style="stroke: #000000; stroke-width: 0.6"/>
      </g>
     </g>
    </g>
    <g id="xtick_13">
     <g id="line2d_25">
      <path d="M 575.672727 630 
L 575.672727 86.4 
" clip-path="url(#p326456d1d8)" style="fill: none; stroke-dasharray: 0.4,0.66; stroke-dashoffset: 0; stroke: #000000; stroke-width: 0.4"/>
     </g>
     <g id="line2d_26">
      <g>
       <use xlink:href="#m47e339d318" x="575.672727" y="630" style="stroke: #000000; stroke-width: 0.6"/>
      </g>
     </g>
    </g>
    <g id="xtick_14">
     <g id="line2d_27">
      <path d="M 616.254545 630 
L 616.254545 86.4 
" clip-path="url(#p326456d1d8)" style="fill: none; stroke-dasharray: 0.4,0.66; stroke-dashoffset: 0; stroke: #000000; stroke-width: 0.4"/>
     </g>
     <g id="line2d_28">
      <g>
       <use xlink:href="#m47e339d318" x="616.254545" y="630" style="stroke: #000000; stroke-width: 0.6"/>
      </g>
     </g>
    </g>
    <g id="xtick_15">
     <g id="line2d_29">
      <path d="M 656.836364 630 
L 656.836364 86.4 
" clip-path="url(#p326456d1d8)" style="fill: none; stroke-dasharray: 0.4,0.66; stroke-dashoffset: 0; stroke: #000000; stroke-width: 0.4"/>
     </g>
     <g id="line2d_30">
      <g>
       <use xlink:href="#m47e339d318" x="656.836364" y="630" style="stroke: #000000; stroke-width: 0.6"/>
      </g>
     </g>
    </g>
    <g id="xtick_16">
     <g id="line2d_31">
      <path d="M 697.418182 630 
L 697.418182 86.4 
" clip-path="url(#p326456d1d8)" style="fill: none; stroke-dasharray: 0.4,0.66; stroke-dashoffset: 0; stroke: #000000; stroke-width: 0.4"/>
     </g>
     <g id="line2d_32">
      <g>
       <use xlink:href="#m47e339d318" x="697.418182" y="630" style="stroke: #000000; stroke-width: 0.6"/>
      </g>
     </g>
    </g>
    <g id="xtick_17">
     <g id="line2d_33">
      <path d="M 778.581818 630 
L 778.581818 86.4 
" clip-path="url(#p326456d1d8)" style="fill: none; stroke-dasharray: 0.4,0.66; stroke-dashoffset: 0; stroke: #000000; stroke-width: 0.4"/>
     </g>
     <g id="line2d_34">
      <g>
       <use xlink:href="#m47e339d318" x="778.581818" y="630" style="stroke: #000000; stroke-width: 0.6"/>
      </g>
     </g>
    </g>
    <g id="xtick_18">
     <g id="line2d_35">
      <path d="M 819.163636 630 
L 819.163636 86.4 
" clip-path="url(#p326456d1d8)" style="fill: none; stroke-dasharray: 0.4,0.66; stroke-dashoffset: 0; stroke: #000000; stroke-width: 0.4"/>
     </g>
     <g id="line2d_36">
      <g>
       <use xlink:href="#m47e339d318" x="819.163636" y="630" style="stroke: #000000; stroke-width: 0.6"/>
      </g>
     </g>
    </g>
    <g id="xtick_19">
     <g id="line2d_37">
      <path d="M 859.745455 630 
L 859.745455 86.4 
" clip-path="url(#p326456d1d8)" style="fill: none; stroke-dasharray: 0.4,0.66; stroke-dashoffset: 0; stroke: #000000; stroke-width: 0.4"/>
     </g>
     <g id="line2d_38">
      <g>
       <use xlink:href="#m47e339d318" x="859.745455" y="630" style="stroke: #000000; stroke-width: 0.6"/>
      </g>
     </g>
    </g>
    <g id="xtick_20">
     <g id="line2d_39">
      <path d="M 900.327273 630 
L 900.327273 86.4 
" clip-path="url(#p326456d1d8)" style="fill: none; stroke-dasharray: 0.4,0.66; stroke-dashoffset: 0; stroke: #000000; stroke-width: 0.4"/>
     </g>
     <g id="line2d_40">
      <g>
       <use xlink:href="#m47e339d318" x="900.327273" y="630" style="stroke: #000000; stroke-width: 0.6"/>
      </g>
     </g>
    </g>
    <g id="xtick_21">
     <g id="line2d_41">
      <path d="M 981.490909 630 
L 981.490909 86.4 
" clip-path="url(#p326456d1d8)" style="fill: none; stroke-dasharray: 0.4,0.66; stroke-dashoffset: 0; stroke: #000000; stroke-width: 0.4"/>
     </g>
     <g id="line2d_42">
      <g>
       <use xlink:href="#m47e339d318" x="981.490909" y="630" style="stroke: #000000; stroke-width: 0.6"/>
      </g>
     </g>
    </g>
    <g id="xtick_22">
     <g id="line2d_43">
      <path d="M 1022.072727 630 
L 1022.072727 86.4 
" clip-path="url(#p326456d1d8)" style="fill: none; stroke-dasharray: 0.4,0.66; stroke-dashoffset: 0; stroke: #000000; stroke-width: 0.4"/>
     </g>
     <g id="line2d_44">
      <g>
       <use xlink:href="#m47e339d318" x="1022.072727" y="630" style="stroke: #000000; stroke-width: 0.6"/>
      </g>
     </g>
    </g>
    <g id="xtick_23">
     <g id="line2d_45">
      <path d="M 1062.654545 630 
L 1062.654545 86.4 
" clip-path="url(#p326456d1d8)" style="fill: none; stroke-dasharray: 0.4,0.66; stroke-dashoffset: 0; stroke: #000000; stroke-width: 0.4"/>
     </g>
     <g id="line2d_46">
      <g>
       <use xlink:href="#m47e339d318" x="1062.654545" y="630" style="stroke: #000000; stroke-width: 0.6"/>
      </g>
     </g>
    </g>
    <g id="xtick_24">
     <g id="line2d_47">
      <path d="M 1103.236364 630 
L 1103.236364 86.4 
" clip-path="url(#p326456d1d8)" style="fill: none; stroke-dasharray: 0.4,0.66; stroke-dashoffset: 0; stroke: #000000; stroke-width: 0.4"/>
     </g>
     <g id="line2d_48">
      <g>
       <use xlink:href="#m47e339d318" x="1103.236364" y="630" style="stroke: #000000; stroke-width: 0.6"/>
      </g>
     </g>
    </g>
    <g id="xtick_25">
     <g id="line2d_49">
      <path d="M 1184.4 630 
L 1184.4 86.4 
" clip-path="url(#p326456d1d8)" style="fill: none; stroke-dasharray: 0.4,0.66; stroke-dashoffset: 0; stroke: #000000; stroke-width: 0.4"/>
     </g>
     <g id="line2d_50">
      <g>
       <use xlink:href="#m47e339d318" x="1184.4" y="630" style="stroke: #000000; stroke-width: 0.6"/>
      </g>
     </g>
    </g>
    <g id="xtick_26">
     <g id="line2d_51">
      <path d="M 1224.981818 630 
L 1224.981818 86.4 
" clip-path="url(#p326456d1d8)" style="fill: none; stroke-dasharray: 0.4,0.66; stroke-dashoffset: 0; stroke: #000000; stroke-width: 0.4"/>
     </g>
     <g id="line2d_52">
      <g>
       <use xlink:href="#m47e339d318" x="1224.981818" y="630" style="stroke: #000000; stroke-width: 0.6"/>
      </g>
     </g>
    </g>
    <g id="xtick_27">
     <g id="line2d_53">
      <path d="M 1265.563636 630 
L 1265.563636 86.4 
" clip-path="url(#p326456d1d8)" style="fill: none; stroke-dasharray: 0.4,0.66; stroke-dashoffset: 0; stroke: #000000; stroke-width: 0.4"/>
     </g>
     <g id="line2d_54">
      <g>
       <use xlink:href="#m47e339d318" x="1265.563636" y="630" style="stroke: #000000; stroke-width: 0.6"/>
      </g>
     </g>
    </g>
    <g id="text_6">
     <!-- $\mathtt{fdatasync}$ Strategy -->
     <g transform="translate(647.73 672.100625)scale(0.18 -0.18)">
      <defs>
       <path id="DejaVuSansMono-66" d="M 3322 4863 
L 3322 4384 
L 2669 4384 
Q 2359 4384 2239 4257 
Q 2119 4131 2119 3809 
L 2119 3500 
L 3322 3500 
L 3322 3053 
L 2119 3053 
L 2119 0 
L 1544 0 
L 1544 3053 
L 609 3053 
L 609 3500 
L 1544 3500 
L 1544 3744 
Q 1544 4319 1808 4591 
Q 2072 4863 2631 4863 
L 3322 4863 
z
" transform="scale(0.015625)"/>
       <path id="DejaVuSansMono-64" d="M 2681 3053 
L 2681 4863 
L 3256 4863 
L 3256 0 
L 2681 0 
L 2681 441 
Q 2538 181 2298 45 
Q 2059 -91 1747 -91 
Q 1113 -91 748 401 
Q 384 894 384 1759 
Q 384 2613 750 3098 
Q 1116 3584 1747 3584 
Q 2063 3584 2303 3448 
Q 2544 3313 2681 3053 
z
M 991 1747 
Q 991 1078 1203 737 
Q 1416 397 1831 397 
Q 2247 397 2464 740 
Q 2681 1084 2681 1747 
Q 2681 2413 2464 2755 
Q 2247 3097 1831 3097 
Q 1416 3097 1203 2756 
Q 991 2416 991 1747 
z
" transform="scale(0.015625)"/>
       <path id="DejaVuSansMono-61" d="M 2194 1759 
L 2003 1759 
Q 1500 1759 1245 1582 
Q 991 1406 991 1056 
Q 991 741 1181 566 
Q 1372 391 1709 391 
Q 2184 391 2456 720 
Q 2728 1050 2731 1631 
L 2731 1759 
L 2194 1759 
z
M 3309 1997 
L 3309 0 
L 2731 0 
L 2731 519 
Q 2547 206 2267 57 
Q 1988 -91 1588 -91 
Q 1053 -91 734 211 
Q 416 513 416 1019 
Q 416 1603 808 1906 
Q 1200 2209 1959 2209 
L 2731 2209 
L 2731 2300 
Q 2728 2719 2518 2908 
Q 2309 3097 1850 3097 
Q 1556 3097 1256 3012 
Q 956 2928 672 2766 
L 672 3341 
Q 991 3463 1283 3523 
Q 1575 3584 1850 3584 
Q 2284 3584 2592 3456 
Q 2900 3328 3091 3072 
Q 3209 2916 3259 2686 
Q 3309 2456 3309 1997 
z
" transform="scale(0.015625)"/>
       <path id="DejaVuSansMono-74" d="M 1919 4494 
L 1919 3500 
L 3225 3500 
L 3225 3053 
L 1919 3053 
L 1919 1153 
Q 1919 766 2066 612 
Q 2213 459 2578 459 
L 3225 459 
L 3225 0 
L 2522 0 
Q 1875 0 1609 259 
Q 1344 519 1344 1153 
L 1344 3053 
L 409 3053 
L 409 3500 
L 1344 3500 
L 1344 4494 
L 1919 4494 
z
" transform="scale(0.015625)"/>
       <path id="DejaVuSansMono-73" d="M 3041 3378 
L 3041 2816 
Q 2794 2959 2544 3031 
Q 2294 3103 2034 3103 
Q 1644 3103 1451 2976 
Q 1259 2850 1259 2591 
Q 1259 2356 1403 2240 
Q 1547 2125 2119 2016 
L 2350 1972 
Q 2778 1891 2998 1647 
Q 3219 1403 3219 1013 
Q 3219 494 2850 201 
Q 2481 -91 1825 -91 
Q 1566 -91 1281 -36 
Q 997 19 666 128 
L 666 722 
Q 988 556 1281 473 
Q 1575 391 1838 391 
Q 2219 391 2428 545 
Q 2638 700 2638 978 
Q 2638 1378 1872 1531 
L 1847 1538 
L 1631 1581 
Q 1134 1678 906 1908 
Q 678 2138 678 2534 
Q 678 3038 1018 3311 
Q 1359 3584 1991 3584 
Q 2272 3584 2531 3532 
Q 2791 3481 3041 3378 
z
" transform="scale(0.015625)"/>
       <path id="DejaVuSansMono-79" d="M 2681 1125 
Q 2538 759 2316 163 
Q 2006 -663 1900 -844 
Q 1756 -1088 1540 -1209 
Q 1325 -1331 1038 -1331 
L 575 -1331 
L 575 -850 
L 916 -850 
Q 1169 -850 1312 -703 
Q 1456 -556 1678 56 
L 325 3500 
L 934 3500 
L 1972 763 
L 2994 3500 
L 3603 3500 
L 2681 1125 
z
" transform="scale(0.015625)"/>
       <path id="DejaVuSansMono-6e" d="M 3284 2169 
L 3284 0 
L 2706 0 
L 2706 2169 
Q 2706 2641 2540 2862 
Q 2375 3084 2022 3084 
Q 1619 3084 1401 2798 
Q 1184 2513 1184 1978 
L 1184 0 
L 609 0 
L 609 3500 
L 1184 3500 
L 1184 2975 
Q 1338 3275 1600 3429 
Q 1863 3584 2222 3584 
Q 2756 3584 3020 3232 
Q 3284 2881 3284 2169 
z
" transform="scale(0.015625)"/>
       <path id="DejaVuSansMono-63" d="M 3316 178 
Q 3084 44 2839 -23 
Q 2594 -91 2338 -91 
Q 1525 -91 1067 396 
Q 609 884 609 1747 
Q 609 2609 1067 3096 
Q 1525 3584 2338 3584 
Q 2591 3584 2831 3518 
Q 3072 3453 3316 3316 
L 3316 2713 
Q 3088 2916 2858 3006 
Q 2628 3097 2338 3097 
Q 1797 3097 1506 2747 
Q 1216 2397 1216 1747 
Q 1216 1100 1508 748 
Q 1800 397 2338 397 
Q 2638 397 2875 489 
Q 3113 581 3316 775 
L 3316 178 
z
" transform="scale(0.015625)"/>
       <path id="DejaVuSans-53" d="M 3425 4513 
L 3425 3897 
Q 3066 4069 2747 4153 
Q 2428 4238 2131 4238 
Q 1616 4238 1336 4038 
Q 1056 3838 1056 3469 
Q 1056 3159 1242 3001 
Q 1428 2844 1947 2747 
L 2328 2669 
Q 3034 2534 3370 2195 
Q 3706 1856 3706 1288 
Q 3706 609 3251 259 
Q 2797 -91 1919 -91 
Q 1588 -91 1214 -16 
Q 841 59 441 206 
L 441 856 
Q 825 641 1194 531 
Q 1563 422 1919 422 
Q 2459 422 2753 634 
Q 3047 847 3047 1241 
Q 3047 1584 2836 1778 
Q 2625 1972 2144 2069 
L 1759 2144 
Q 1053 2284 737 2584 
Q 422 2884 422 3419 
Q 422 4038 858 4394 
Q 1294 4750 2059 4750 
Q 2388 4750 2728 4690 
Q 3069 4631 3425 4513 
z
" transform="scale(0.015625)"/>
       <path id="DejaVuSans-74" d="M 1172 4494 
L 1172 3500 
L 2356 3500 
L 2356 3053 
L 1172 3053 
L 1172 1153 
Q 1172 725 1289 603 
Q 1406 481 1766 481 
L 2356 481 
L 2356 0 
L 1766 0 
Q 1100 0 847 248 
Q 594 497 594 1153 
L 594 3053 
L 172 3053 
L 172 3500 
L 594 3500 
L 594 4494 
L 1172 4494 
z
" transform="scale(0.015625)"/>
       <path id="DejaVuSans-61" d="M 2194 1759 
Q 1497 1759 1228 1600 
Q 959 1441 959 1056 
Q 959 750 1161 570 
Q 1363 391 1709 391 
Q 2188 391 2477 730 
Q 2766 1069 2766 1631 
L 2766 1759 
L 2194 1759 
z
M 3341 1997 
L 3341 0 
L 2766 0 
L 2766 531 
Q 2569 213 2275 61 
Q 1981 -91 1556 -91 
Q 1019 -91 701 211 
Q 384 513 384 1019 
Q 384 1609 779 1909 
Q 1175 2209 1959 2209 
L 2766 2209 
L 2766 2266 
Q 2766 2663 2505 2880 
Q 2244 3097 1772 3097 
Q 1472 3097 1187 3025 
Q 903 2953 641 2809 
L 641 3341 
Q 956 3463 1253 3523 
Q 1550 3584 1831 3584 
Q 2591 3584 2966 3190 
Q 3341 2797 3341 1997 
z
" transform="scale(0.015625)"/>
       <path id="DejaVuSans-67" d="M 2906 1791 
Q 2906 2416 2648 2759 
Q 2391 3103 1925 3103 
Q 1463 3103 1205 2759 
Q 947 2416 947 1791 
Q 947 1169 1205 825 
Q 1463 481 1925 481 
Q 2391 481 2648 825 
Q 2906 1169 2906 1791 
z
M 3481 434 
Q 3481 -459 3084 -895 
Q 2688 -1331 1869 -1331 
Q 1566 -1331 1297 -1286 
Q 1028 -1241 775 -1147 
L 775 -588 
Q 1028 -725 1275 -790 
Q 1522 -856 1778 -856 
Q 2344 -856 2625 -561 
Q 2906 -266 2906 331 
L 2906 616 
Q 2728 306 2450 153 
Q 2172 0 1784 0 
Q 1141 0 747 490 
Q 353 981 353 1791 
Q 353 2603 747 3093 
Q 1141 3584 1784 3584 
Q 2172 3584 2450 3431 
Q 2728 3278 2906 2969 
L 2906 3500 
L 3481 3500 
L 3481 434 
z
" transform="scale(0.015625)"/>
      </defs>
      <use xlink:href="#DejaVuSansMono-66" transform="translate(0 0.015625)"/>
      <use xlink:href="#DejaVuSansMono-64" transform="translate(60.205078 0.015625)"/>
      <use xlink:href="#DejaVuSansMono-61" transform="translate(120.410156 0.015625)"/>
      <use xlink:href="#DejaVuSansMono-74" transform="translate(180.615234 0.015625)"/>
      <use xlink:href="#DejaVuSansMono-61" transform="translate(240.820312 0.015625)"/>
      <use xlink:href="#DejaVuSansMono-73" transform="translate(301.025391 0.015625)"/>
      <use xlink:href="#DejaVuSansMono-79" transform="translate(361.230469 0.015625)"/>
      <use xlink:href="#DejaVuSansMono-6e" transform="translate(421.435547 0.015625)"/>
      <use xlink:href="#DejaVuSansMono-63" transform="translate(481.640625 0.015625)"/>
      <use xlink:href="#DejaVuSans-20" transform="translate(541.845703 0.015625)"/>
      <use xlink:href="#DejaVuSans-53" transform="translate(573.632812 0.015625)"/>
      <use xlink:href="#DejaVuSans-74" transform="translate(637.109375 0.015625)"/>
      <use xlink:href="#DejaVuSans-72" transform="translate(676.318359 0.015625)"/>
      <use xlink:href="#DejaVuSans-61" transform="translate(717.431641 0.015625)"/>
      <use xlink:href="#DejaVuSans-74" transform="translate(778.710938 0.015625)"/>
      <use xlink:href="#DejaVuSans-65" transform="translate(817.919922 0.015625)"/>
      <use xlink:href="#DejaVuSans-67" transform="translate(879.443359 0.015625)"/>
      <use xlink:href="#DejaVuSans-79" transform="translate(942.919922 0.015625)"/>
     </g>
    </g>
   </g>
   <g id="matplotlib.axis_2">
    <g id="ytick_1">
     <g id="line2d_55">
      <path d="M 180 629.618862 
L 1296 629.618862 
" clip-path="url(#p326456d1d8)" style="fill: none; stroke-dasharray: 3.7,1.6; stroke-dashoffset: 0; stroke: #666666"/>
     </g>
     <g id="line2d_56">
      <defs>
       <path id="mb5f27a72be" d="M 0 0 
L -3.5 0 
" style="stroke: #000000; stroke-width: 0.8"/>
      </defs>
      <g>
       <use xlink:href="#mb5f27a72be" x="180" y="629.618862" style="stroke: #000000; stroke-width: 0.8"/>
      </g>
     </g>
     <g id="text_7">
      <!-- 0 -->
      <g transform="translate(161.5475 636.457456)scale(0.18 -0.18)">
       <use xlink:href="#DejaVuSans-30"/>
      </g>
     </g>
    </g>
    <g id="ytick_2">
     <g id="line2d_57">
      <path d="M 180 548.525685 
L 1296 548.525685 
" clip-path="url(#p326456d1d8)" style="fill: none; stroke-dasharray: 3.7,1.6; stroke-dashoffset: 0; stroke: #666666"/>
     </g>
     <g id="line2d_58">
      <g>
       <use xlink:href="#mb5f27a72be" x="180" y="548.525685" style="stroke: #000000; stroke-width: 0.8"/>
      </g>
     </g>
     <g id="text_8">
      <!-- 500 -->
      <g transform="translate(138.6425 555.364279)scale(0.18 -0.18)">
       <defs>
        <path id="DejaVuSans-35" d="M 691 4666 
L 3169 4666 
L 3169 4134 
L 1269 4134 
L 1269 2991 
Q 1406 3038 1543 3061 
Q 1681 3084 1819 3084 
Q 2600 3084 3056 2656 
Q 3513 2228 3513 1497 
Q 3513 744 3044 326 
Q 2575 -91 1722 -91 
Q 1428 -91 1123 -41 
Q 819 9 494 109 
L 494 744 
Q 775 591 1075 516 
Q 1375 441 1709 441 
Q 2250 441 2565 725 
Q 2881 1009 2881 1497 
Q 2881 1984 2565 2268 
Q 2250 2553 1709 2553 
Q 1456 2553 1204 2497 
Q 953 2441 691 2322 
L 691 4666 
z
" transform="scale(0.015625)"/>
       </defs>
       <use xlink:href="#DejaVuSans-35"/>
       <use xlink:href="#DejaVuSans-30" x="63.623047"/>
       <use xlink:href="#DejaVuSans-30" x="127.246094"/>
      </g>
     </g>
    </g>
    <g id="ytick_3">
     <g id="line2d_59">
      <path d="M 180 467.432509 
L 1296 467.432509 
" clip-path="url(#p326456d1d8)" style="fill: none; stroke-dasharray: 3.7,1.6; stroke-dashoffset: 0; stroke: #666666"/>
     </g>
     <g id="line2d_60">
      <g>
       <use xlink:href="#mb5f27a72be" x="180" y="467.432509" style="stroke: #000000; stroke-width: 0.8"/>
      </g>
     </g>
     <g id="text_9">
      <!-- 1000 -->
      <g transform="translate(127.19 474.271103)scale(0.18 -0.18)">
       <use xlink:href="#DejaVuSans-31"/>
       <use xlink:href="#DejaVuSans-30" x="63.623047"/>
       <use xlink:href="#DejaVuSans-30" x="127.246094"/>
       <use xlink:href="#DejaVuSans-30" x="190.869141"/>
      </g>
     </g>
    </g>
    <g id="ytick_4">
     <g id="line2d_61">
      <path d="M 180 386.339332 
L 1296 386.339332 
" clip-path="url(#p326456d1d8)" style="fill: none; stroke-dasharray: 3.7,1.6; stroke-dashoffset: 0; stroke: #666666"/>
     </g>
     <g id="line2d_62">
      <g>
       <use xlink:href="#mb5f27a72be" x="180" y="386.339332" style="stroke: #000000; stroke-width: 0.8"/>
      </g>
     </g>
     <g id="text_10">
      <!-- 1500 -->
      <g transform="translate(127.19 393.177926)scale(0.18 -0.18)">
       <use xlink:href="#DejaVuSans-31"/>
       <use xlink:href="#DejaVuSans-35" x="63.623047"/>
       <use xlink:href="#DejaVuSans-30" x="127.246094"/>
       <use xlink:href="#DejaVuSans-30" x="190.869141"/>
      </g>
     </g>
    </g>
    <g id="ytick_5">
     <g id="line2d_63">
      <path d="M 180 305.246156 
L 1296 305.246156 
" clip-path="url(#p326456d1d8)" style="fill: none; stroke-dasharray: 3.7,1.6; stroke-dashoffset: 0; stroke: #666666"/>
     </g>
     <g id="line2d_64">
      <g>
       <use xlink:href="#mb5f27a72be" x="180" y="305.246156" style="stroke: #000000; stroke-width: 0.8"/>
      </g>
     </g>
     <g id="text_11">
      <!-- 2000 -->
      <g transform="translate(127.19 312.084749)scale(0.18 -0.18)">
       <defs>
        <path id="DejaVuSans-32" d="M 1228 531 
L 3431 531 
L 3431 0 
L 469 0 
L 469 531 
Q 828 903 1448 1529 
Q 2069 2156 2228 2338 
Q 2531 2678 2651 2914 
Q 2772 3150 2772 3378 
Q 2772 3750 2511 3984 
Q 2250 4219 1831 4219 
Q 1534 4219 1204 4116 
Q 875 4013 500 3803 
L 500 4441 
Q 881 4594 1212 4672 
Q 1544 4750 1819 4750 
Q 2544 4750 2975 4387 
Q 3406 4025 3406 3419 
Q 3406 3131 3298 2873 
Q 3191 2616 2906 2266 
Q 2828 2175 2409 1742 
Q 1991 1309 1228 531 
z
" transform="scale(0.015625)"/>
       </defs>
       <use xlink:href="#DejaVuSans-32"/>
       <use xlink:href="#DejaVuSans-30" x="63.623047"/>
       <use xlink:href="#DejaVuSans-30" x="127.246094"/>
       <use xlink:href="#DejaVuSans-30" x="190.869141"/>
      </g>
     </g>
    </g>
    <g id="ytick_6">
     <g id="line2d_65">
      <path d="M 180 224.152979 
L 1296 224.152979 
" clip-path="url(#p326456d1d8)" style="fill: none; stroke-dasharray: 3.7,1.6; stroke-dashoffset: 0; stroke: #666666"/>
     </g>
     <g id="line2d_66">
      <g>
       <use xlink:href="#mb5f27a72be" x="180" y="224.152979" style="stroke: #000000; stroke-width: 0.8"/>
      </g>
     </g>
     <g id="text_12">
      <!-- 2500 -->
      <g transform="translate(127.19 230.991573)scale(0.18 -0.18)">
       <use xlink:href="#DejaVuSans-32"/>
       <use xlink:href="#DejaVuSans-35" x="63.623047"/>
       <use xlink:href="#DejaVuSans-30" x="127.246094"/>
       <use xlink:href="#DejaVuSans-30" x="190.869141"/>
      </g>
     </g>
    </g>
    <g id="ytick_7">
     <g id="line2d_67">
      <path d="M 180 143.059802 
L 1296 143.059802 
" clip-path="url(#p326456d1d8)" style="fill: none; stroke-dasharray: 3.7,1.6; stroke-dashoffset: 0; stroke: #666666"/>
     </g>
     <g id="line2d_68">
      <g>
       <use xlink:href="#mb5f27a72be" x="180" y="143.059802" style="stroke: #000000; stroke-width: 0.8"/>
      </g>
     </g>
     <g id="text_13">
      <!-- 3000 -->
      <g transform="translate(127.19 149.898396)scale(0.18 -0.18)">
       <defs>
        <path id="DejaVuSans-33" d="M 2597 2516 
Q 3050 2419 3304 2112 
Q 3559 1806 3559 1356 
Q 3559 666 3084 287 
Q 2609 -91 1734 -91 
Q 1441 -91 1130 -33 
Q 819 25 488 141 
L 488 750 
Q 750 597 1062 519 
Q 1375 441 1716 441 
Q 2309 441 2620 675 
Q 2931 909 2931 1356 
Q 2931 1769 2642 2001 
Q 2353 2234 1838 2234 
L 1294 2234 
L 1294 2753 
L 1863 2753 
Q 2328 2753 2575 2939 
Q 2822 3125 2822 3475 
Q 2822 3834 2567 4026 
Q 2313 4219 1838 4219 
Q 1578 4219 1281 4162 
Q 984 4106 628 3988 
L 628 4550 
Q 988 4650 1302 4700 
Q 1616 4750 1894 4750 
Q 2613 4750 3031 4423 
Q 3450 4097 3450 3541 
Q 3450 3153 3228 2886 
Q 3006 2619 2597 2516 
z
" transform="scale(0.015625)"/>
       </defs>
       <use xlink:href="#DejaVuSans-33"/>
       <use xlink:href="#DejaVuSans-30" x="63.623047"/>
       <use xlink:href="#DejaVuSans-30" x="127.246094"/>
       <use xlink:href="#DejaVuSans-30" x="190.869141"/>
      </g>
     </g>
    </g>
    <g id="ytick_8">
     <g id="line2d_69">
      <path d="M 180 613.400227 
L 1296 613.400227 
" clip-path="url(#p326456d1d8)" style="fill: none; stroke-dasharray: 0.4,0.66; stroke-dashoffset: 0; stroke: #000000; stroke-width: 0.4"/>
     </g>
     <g id="line2d_70">
      <defs>
       <path id="m8110ed254c" d="M 0 0 
L -2 0 
" style="stroke: #000000; stroke-width: 0.6"/>
      </defs>
      <g>
       <use xlink:href="#m8110ed254c" x="180" y="613.400227" style="stroke: #000000; stroke-width: 0.6"/>
      </g>
     </g>
    </g>
    <g id="ytick_9">
     <g id="line2d_71">
      <path d="M 180 597.181591 
L 1296 597.181591 
" clip-path="url(#p326456d1d8)" style="fill: none; stroke-dasharray: 0.4,0.66; stroke-dashoffset: 0; stroke: #000000; stroke-width: 0.4"/>
     </g>
     <g id="line2d_72">
      <g>
       <use xlink:href="#m8110ed254c" x="180" y="597.181591" style="stroke: #000000; stroke-width: 0.6"/>
      </g>
     </g>
    </g>
    <g id="ytick_10">
     <g id="line2d_73">
      <path d="M 180 580.962956 
L 1296 580.962956 
" clip-path="url(#p326456d1d8)" style="fill: none; stroke-dasharray: 0.4,0.66; stroke-dashoffset: 0; stroke: #000000; stroke-width: 0.4"/>
     </g>
     <g id="line2d_74">
      <g>
       <use xlink:href="#m8110ed254c" x="180" y="580.962956" style="stroke: #000000; stroke-width: 0.6"/>
      </g>
     </g>
    </g>
    <g id="ytick_11">
     <g id="line2d_75">
      <path d="M 180 564.744321 
L 1296 564.744321 
" clip-path="url(#p326456d1d8)" style="fill: none; stroke-dasharray: 0.4,0.66; stroke-dashoffset: 0; stroke: #000000; stroke-width: 0.4"/>
     </g>
     <g id="line2d_76">
      <g>
       <use xlink:href="#m8110ed254c" x="180" y="564.744321" style="stroke: #000000; stroke-width: 0.6"/>
      </g>
     </g>
    </g>
    <g id="ytick_12">
     <g id="line2d_77">
      <path d="M 180 532.30705 
L 1296 532.30705 
" clip-path="url(#p326456d1d8)" style="fill: none; stroke-dasharray: 0.4,0.66; stroke-dashoffset: 0; stroke: #000000; stroke-width: 0.4"/>
     </g>
     <g id="line2d_78">
      <g>
       <use xlink:href="#m8110ed254c" x="180" y="532.30705" style="stroke: #000000; stroke-width: 0.6"/>
      </g>
     </g>
    </g>
    <g id="ytick_13">
     <g id="line2d_79">
      <path d="M 180 516.088415 
L 1296 516.088415 
" clip-path="url(#p326456d1d8)" style="fill: none; stroke-dasharray: 0.4,0.66; stroke-dashoffset: 0; stroke: #000000; stroke-width: 0.4"/>
     </g>
     <g id="line2d_80">
      <g>
       <use xlink:href="#m8110ed254c" x="180" y="516.088415" style="stroke: #000000; stroke-width: 0.6"/>
      </g>
     </g>
    </g>
    <g id="ytick_14">
     <g id="line2d_81">
      <path d="M 180 499.86978 
L 1296 499.86978 
" clip-path="url(#p326456d1d8)" style="fill: none; stroke-dasharray: 0.4,0.66; stroke-dashoffset: 0; stroke: #000000; stroke-width: 0.4"/>
     </g>
     <g id="line2d_82">
      <g>
       <use xlink:href="#m8110ed254c" x="180" y="499.86978" style="stroke: #000000; stroke-width: 0.6"/>
      </g>
     </g>
    </g>
    <g id="ytick_15">
     <g id="line2d_83">
      <path d="M 180 483.651144 
L 1296 483.651144 
" clip-path="url(#p326456d1d8)" style="fill: none; stroke-dasharray: 0.4,0.66; stroke-dashoffset: 0; stroke: #000000; stroke-width: 0.4"/>
     </g>
     <g id="line2d_84">
      <g>
       <use xlink:href="#m8110ed254c" x="180" y="483.651144" style="stroke: #000000; stroke-width: 0.6"/>
      </g>
     </g>
    </g>
    <g id="ytick_16">
     <g id="line2d_85">
      <path d="M 180 451.213874 
L 1296 451.213874 
" clip-path="url(#p326456d1d8)" style="fill: none; stroke-dasharray: 0.4,0.66; stroke-dashoffset: 0; stroke: #000000; stroke-width: 0.4"/>
     </g>
     <g id="line2d_86">
      <g>
       <use xlink:href="#m8110ed254c" x="180" y="451.213874" style="stroke: #000000; stroke-width: 0.6"/>
      </g>
     </g>
    </g>
    <g id="ytick_17">
     <g id="line2d_87">
      <path d="M 180 434.995238 
L 1296 434.995238 
" clip-path="url(#p326456d1d8)" style="fill: none; stroke-dasharray: 0.4,0.66; stroke-dashoffset: 0; stroke: #000000; stroke-width: 0.4"/>
     </g>
     <g id="line2d_88">
      <g>
       <use xlink:href="#m8110ed254c" x="180" y="434.995238" style="stroke: #000000; stroke-width: 0.6"/>
      </g>
     </g>
    </g>
    <g id="ytick_18">
     <g id="line2d_89">
      <path d="M 180 418.776603 
L 1296 418.776603 
" clip-path="url(#p326456d1d8)" style="fill: none; stroke-dasharray: 0.4,0.66; stroke-dashoffset: 0; stroke: #000000; stroke-width: 0.4"/>
     </g>
     <g id="line2d_90">
      <g>
       <use xlink:href="#m8110ed254c" x="180" y="418.776603" style="stroke: #000000; stroke-width: 0.6"/>
      </g>
     </g>
    </g>
    <g id="ytick_19">
     <g id="line2d_91">
      <path d="M 180 402.557968 
L 1296 402.557968 
" clip-path="url(#p326456d1d8)" style="fill: none; stroke-dasharray: 0.4,0.66; stroke-dashoffset: 0; stroke: #000000; stroke-width: 0.4"/>
     </g>
     <g id="line2d_92">
      <g>
       <use xlink:href="#m8110ed254c" x="180" y="402.557968" style="stroke: #000000; stroke-width: 0.6"/>
      </g>
     </g>
    </g>
    <g id="ytick_20">
     <g id="line2d_93">
      <path d="M 180 370.120697 
L 1296 370.120697 
" clip-path="url(#p326456d1d8)" style="fill: none; stroke-dasharray: 0.4,0.66; stroke-dashoffset: 0; stroke: #000000; stroke-width: 0.4"/>
     </g>
     <g id="line2d_94">
      <g>
       <use xlink:href="#m8110ed254c" x="180" y="370.120697" style="stroke: #000000; stroke-width: 0.6"/>
      </g>
     </g>
    </g>
    <g id="ytick_21">
     <g id="line2d_95">
      <path d="M 180 353.902062 
L 1296 353.902062 
" clip-path="url(#p326456d1d8)" style="fill: none; stroke-dasharray: 0.4,0.66; stroke-dashoffset: 0; stroke: #000000; stroke-width: 0.4"/>
     </g>
     <g id="line2d_96">
      <g>
       <use xlink:href="#m8110ed254c" x="180" y="353.902062" style="stroke: #000000; stroke-width: 0.6"/>
      </g>
     </g>
    </g>
    <g id="ytick_22">
     <g id="line2d_97">
      <path d="M 180 337.683426 
L 1296 337.683426 
" clip-path="url(#p326456d1d8)" style="fill: none; stroke-dasharray: 0.4,0.66; stroke-dashoffset: 0; stroke: #000000; stroke-width: 0.4"/>
     </g>
     <g id="line2d_98">
      <g>
       <use xlink:href="#m8110ed254c" x="180" y="337.683426" style="stroke: #000000; stroke-width: 0.6"/>
      </g>
     </g>
    </g>
    <g id="ytick_23">
     <g id="line2d_99">
      <path d="M 180 321.464791 
L 1296 321.464791 
" clip-path="url(#p326456d1d8)" style="fill: none; stroke-dasharray: 0.4,0.66; stroke-dashoffset: 0; stroke: #000000; stroke-width: 0.4"/>
     </g>
     <g id="line2d_100">
      <g>
       <use xlink:href="#m8110ed254c" x="180" y="321.464791" style="stroke: #000000; stroke-width: 0.6"/>
      </g>
     </g>
    </g>
    <g id="ytick_24">
     <g id="line2d_101">
      <path d="M 180 289.02752 
L 1296 289.02752 
" clip-path="url(#p326456d1d8)" style="fill: none; stroke-dasharray: 0.4,0.66; stroke-dashoffset: 0; stroke: #000000; stroke-width: 0.4"/>
     </g>
     <g id="line2d_102">
      <g>
       <use xlink:href="#m8110ed254c" x="180" y="289.02752" style="stroke: #000000; stroke-width: 0.6"/>
      </g>
     </g>
    </g>
    <g id="ytick_25">
     <g id="line2d_103">
      <path d="M 180 272.808885 
L 1296 272.808885 
" clip-path="url(#p326456d1d8)" style="fill: none; stroke-dasharray: 0.4,0.66; stroke-dashoffset: 0; stroke: #000000; stroke-width: 0.4"/>
     </g>
     <g id="line2d_104">
      <g>
       <use xlink:href="#m8110ed254c" x="180" y="272.808885" style="stroke: #000000; stroke-width: 0.6"/>
      </g>
     </g>
    </g>
    <g id="ytick_26">
     <g id="line2d_105">
      <path d="M 180 256.59025 
L 1296 256.59025 
" clip-path="url(#p326456d1d8)" style="fill: none; stroke-dasharray: 0.4,0.66; stroke-dashoffset: 0; stroke: #000000; stroke-width: 0.4"/>
     </g>
     <g id="line2d_106">
      <g>
       <use xlink:href="#m8110ed254c" x="180" y="256.59025" style="stroke: #000000; stroke-width: 0.6"/>
      </g>
     </g>
    </g>
    <g id="ytick_27">
     <g id="line2d_107">
      <path d="M 180 240.371614 
L 1296 240.371614 
" clip-path="url(#p326456d1d8)" style="fill: none; stroke-dasharray: 0.4,0.66; stroke-dashoffset: 0; stroke: #000000; stroke-width: 0.4"/>
     </g>
     <g id="line2d_108">
      <g>
       <use xlink:href="#m8110ed254c" x="180" y="240.371614" style="stroke: #000000; stroke-width: 0.6"/>
      </g>
     </g>
    </g>
    <g id="ytick_28">
     <g id="line2d_109">
      <path d="M 180 207.934344 
L 1296 207.934344 
" clip-path="url(#p326456d1d8)" style="fill: none; stroke-dasharray: 0.4,0.66; stroke-dashoffset: 0; stroke: #000000; stroke-width: 0.4"/>
     </g>
     <g id="line2d_110">
      <g>
       <use xlink:href="#m8110ed254c" x="180" y="207.934344" style="stroke: #000000; stroke-width: 0.6"/>
      </g>
     </g>
    </g>
    <g id="ytick_29">
     <g id="line2d_111">
      <path d="M 180 191.715708 
L 1296 191.715708 
" clip-path="url(#p326456d1d8)" style="fill: none; stroke-dasharray: 0.4,0.66; stroke-dashoffset: 0; stroke: #000000; stroke-width: 0.4"/>
     </g>
     <g id="line2d_112">
      <g>
       <use xlink:href="#m8110ed254c" x="180" y="191.715708" style="stroke: #000000; stroke-width: 0.6"/>
      </g>
     </g>
    </g>
    <g id="ytick_30">
     <g id="line2d_113">
      <path d="M 180 175.497073 
L 1296 175.497073 
" clip-path="url(#p326456d1d8)" style="fill: none; stroke-dasharray: 0.4,0.66; stroke-dashoffset: 0; stroke: #000000; stroke-width: 0.4"/>
     </g>
     <g id="line2d_114">
      <g>
       <use xlink:href="#m8110ed254c" x="180" y="175.497073" style="stroke: #000000; stroke-width: 0.6"/>
      </g>
     </g>
    </g>
    <g id="ytick_31">
     <g id="line2d_115">
      <path d="M 180 159.278438 
L 1296 159.278438 
" clip-path="url(#p326456d1d8)" style="fill: none; stroke-dasharray: 0.4,0.66; stroke-dashoffset: 0; stroke: #000000; stroke-width: 0.4"/>
     </g>
     <g id="line2d_116">
      <g>
       <use xlink:href="#m8110ed254c" x="180" y="159.278438" style="stroke: #000000; stroke-width: 0.6"/>
      </g>
     </g>
    </g>
    <g id="ytick_32">
     <g id="line2d_117">
      <path d="M 180 126.841167 
L 1296 126.841167 
" clip-path="url(#p326456d1d8)" style="fill: none; stroke-dasharray: 0.4,0.66; stroke-dashoffset: 0; stroke: #000000; stroke-width: 0.4"/>
     </g>
     <g id="line2d_118">
      <g>
       <use xlink:href="#m8110ed254c" x="180" y="126.841167" style="stroke: #000000; stroke-width: 0.6"/>
      </g>
     </g>
    </g>
    <g id="ytick_33">
     <g id="line2d_119">
      <path d="M 180 110.622532 
L 1296 110.622532 
" clip-path="url(#p326456d1d8)" style="fill: none; stroke-dasharray: 0.4,0.66; stroke-dashoffset: 0; stroke: #000000; stroke-width: 0.4"/>
     </g>
     <g id="line2d_120">
      <g>
       <use xlink:href="#m8110ed254c" x="180" y="110.622532" style="stroke: #000000; stroke-width: 0.6"/>
      </g>
     </g>
    </g>
    <g id="ytick_34">
     <g id="line2d_121">
      <path d="M 180 94.403897 
L 1296 94.403897 
" clip-path="url(#p326456d1d8)" style="fill: none; stroke-dasharray: 0.4,0.66; stroke-dashoffset: 0; stroke: #000000; stroke-width: 0.4"/>
     </g>
     <g id="line2d_122">
      <g>
       <use xlink:href="#m8110ed254c" x="180" y="94.403897" style="stroke: #000000; stroke-width: 0.6"/>
      </g>
     </g>
    </g>
    <g id="text_14">
     <!-- Write Time (Milliseconds) -->
     <g transform="translate(119.446562 471.277969)rotate(-90)scale(0.18 -0.18)">
      <defs>
       <path id="DejaVuSans-57" d="M 213 4666 
L 850 4666 
L 1831 722 
L 2809 4666 
L 3519 4666 
L 4500 722 
L 5478 4666 
L 6119 4666 
L 4947 0 
L 4153 0 
L 3169 4050 
L 2175 0 
L 1381 0 
L 213 4666 
z
" transform="scale(0.015625)"/>
       <path id="DejaVuSans-54" d="M -19 4666 
L 3928 4666 
L 3928 4134 
L 2272 4134 
L 2272 0 
L 1638 0 
L 1638 4134 
L -19 4134 
L -19 4666 
z
" transform="scale(0.015625)"/>
       <path id="DejaVuSans-6d" d="M 3328 2828 
Q 3544 3216 3844 3400 
Q 4144 3584 4550 3584 
Q 5097 3584 5394 3201 
Q 5691 2819 5691 2113 
L 5691 0 
L 5113 0 
L 5113 2094 
Q 5113 2597 4934 2840 
Q 4756 3084 4391 3084 
Q 3944 3084 3684 2787 
Q 3425 2491 3425 1978 
L 3425 0 
L 2847 0 
L 2847 2094 
Q 2847 2600 2669 2842 
Q 2491 3084 2119 3084 
Q 1678 3084 1418 2786 
Q 1159 2488 1159 1978 
L 1159 0 
L 581 0 
L 581 3500 
L 1159 3500 
L 1159 2956 
Q 1356 3278 1631 3431 
Q 1906 3584 2284 3584 
Q 2666 3584 2933 3390 
Q 3200 3197 3328 2828 
z
" transform="scale(0.015625)"/>
       <path id="DejaVuSans-28" d="M 1984 4856 
Q 1566 4138 1362 3434 
Q 1159 2731 1159 2009 
Q 1159 1288 1364 580 
Q 1569 -128 1984 -844 
L 1484 -844 
Q 1016 -109 783 600 
Q 550 1309 550 2009 
Q 550 2706 781 3412 
Q 1013 4119 1484 4856 
L 1984 4856 
z
" transform="scale(0.015625)"/>
       <path id="DejaVuSans-6c" d="M 603 4863 
L 1178 4863 
L 1178 0 
L 603 0 
L 603 4863 
z
" transform="scale(0.015625)"/>
       <path id="DejaVuSans-6f" d="M 1959 3097 
Q 1497 3097 1228 2736 
Q 959 2375 959 1747 
Q 959 1119 1226 758 
Q 1494 397 1959 397 
Q 2419 397 2687 759 
Q 2956 1122 2956 1747 
Q 2956 2369 2687 2733 
Q 2419 3097 1959 3097 
z
M 1959 3584 
Q 2709 3584 3137 3096 
Q 3566 2609 3566 1747 
Q 3566 888 3137 398 
Q 2709 -91 1959 -91 
Q 1206 -91 779 398 
Q 353 888 353 1747 
Q 353 2609 779 3096 
Q 1206 3584 1959 3584 
z
" transform="scale(0.015625)"/>
       <path id="DejaVuSans-29" d="M 513 4856 
L 1013 4856 
Q 1481 4119 1714 3412 
Q 1947 2706 1947 2009 
Q 1947 1309 1714 600 
Q 1481 -109 1013 -844 
L 513 -844 
Q 928 -128 1133 580 
Q 1338 1288 1338 2009 
Q 1338 2731 1133 3434 
Q 928 4138 513 4856 
z
" transform="scale(0.015625)"/>
      </defs>
      <use xlink:href="#DejaVuSans-57"/>
      <use xlink:href="#DejaVuSans-72" x="94.376953"/>
      <use xlink:href="#DejaVuSans-69" x="135.490234"/>
      <use xlink:href="#DejaVuSans-74" x="163.273438"/>
      <use xlink:href="#DejaVuSans-65" x="202.482422"/>
      <use xlink:href="#DejaVuSans-20" x="264.005859"/>
      <use xlink:href="#DejaVuSans-54" x="295.792969"/>
      <use xlink:href="#DejaVuSans-69" x="353.751953"/>
      <use xlink:href="#DejaVuSans-6d" x="381.535156"/>
      <use xlink:href="#DejaVuSans-65" x="478.947266"/>
      <use xlink:href="#DejaVuSans-20" x="540.470703"/>
      <use xlink:href="#DejaVuSans-28" x="572.257812"/>
      <use xlink:href="#DejaVuSans-4d" x="611.271484"/>
      <use xlink:href="#DejaVuSans-69" x="697.550781"/>
      <use xlink:href="#DejaVuSans-6c" x="725.333984"/>
      <use xlink:href="#DejaVuSans-6c" x="753.117188"/>
      <use xlink:href="#DejaVuSans-69" x="780.900391"/>
      <use xlink:href="#DejaVuSans-73" x="808.683594"/>
      <use xlink:href="#DejaVuSans-65" x="860.783203"/>
      <use xlink:href="#DejaVuSans-63" x="922.306641"/>
      <use xlink:href="#DejaVuSans-6f" x="977.287109"/>
      <use xlink:href="#DejaVuSans-6e" x="1038.46875"/>
      <use xlink:href="#DejaVuSans-64" x="1101.847656"/>
      <use xlink:href="#DejaVuSans-73" x="1165.324219"/>
      <use xlink:href="#DejaVuSans-29" x="1217.423828"/>
     </g>
    </g>
   </g>
   <g id="LineCollection_1">
    <path d="M 306.818182 603.669046 
L 357.545455 603.669046 
" clip-path="url(#p326456d1d8)" style="fill: none; stroke: #1f77b4; stroke-width: 1.5"/>
    <path d="M 509.727273 517.223719 
L 560.454545 517.223719 
" clip-path="url(#p326456d1d8)" style="fill: none; stroke: #1f77b4; stroke-width: 1.5"/>
    <path d="M 712.636364 504.73537 
L 763.363636 504.73537 
" clip-path="url(#p326456d1d8)" style="fill: none; stroke: #1f77b4; stroke-width: 1.5"/>
    <path d="M 915.545455 443.915488 
L 966.272727 443.915488 
" clip-path="url(#p326456d1d8)" style="fill: none; stroke: #1f77b4; stroke-width: 1.5"/>
    <path d="M 1118.454545 111.109091 
L 1169.181818 111.109091 
" clip-path="url(#p326456d1d8)" style="fill: none; stroke: #1f77b4; stroke-width: 1.5"/>
   </g>
   <g id="LineCollection_2">
    <path d="M 306.818182 605.290909 
L 357.545455 605.290909 
" clip-path="url(#p326456d1d8)" style="fill: none; stroke: #1f77b4; stroke-width: 1.5"/>
    <path d="M 509.727273 527.117087 
L 560.454545 527.117087 
" clip-path="url(#p326456d1d8)" style="fill: none; stroke: #1f77b4; stroke-width: 1.5"/>
    <path d="M 712.636364 513.006874 
L 763.363636 513.006874 
" clip-path="url(#p326456d1d8)" style="fill: none; stroke: #1f77b4; stroke-width: 1.5"/>
    <path d="M 915.545455 449.754196 
L 966.272727 449.754196 
" clip-path="url(#p326456d1d8)" style="fill: none; stroke: #1f77b4; stroke-width: 1.5"/>
    <path d="M 1118.454545 123.110881 
L 1169.181818 123.110881 
" clip-path="url(#p326456d1d8)" style="fill: none; stroke: #1f77b4; stroke-width: 1.5"/>
   </g>
   <g id="LineCollection_3">
    <path d="M 332.181818 605.290909 
L 332.181818 603.669046 
" clip-path="url(#p326456d1d8)" style="fill: none; stroke: #1f77b4; stroke-width: 1.5"/>
    <path d="M 535.090909 527.117087 
L 535.090909 517.223719 
" clip-path="url(#p326456d1d8)" style="fill: none; stroke: #1f77b4; stroke-width: 1.5"/>
    <path d="M 738 513.006874 
L 738 504.73537 
" clip-path="url(#p326456d1d8)" style="fill: none; stroke: #1f77b4; stroke-width: 1.5"/>
    <path d="M 940.909091 449.754196 
L 940.909091 443.915488 
" clip-path="url(#p326456d1d8)" style="fill: none; stroke: #1f77b4; stroke-width: 1.5"/>
    <path d="M 1143.818182 123.110881 
L 1143.818182 111.109091 
" clip-path="url(#p326456d1d8)" style="fill: none; stroke: #1f77b4; stroke-width: 1.5"/>
   </g>
   <g id="LineCollection_4">
    <path d="M 306.818182 605.128723 
L 357.545455 605.128723 
" clip-path="url(#p326456d1d8)" style="fill: none; stroke: #1f77b4; stroke-width: 1.5"/>
    <path d="M 509.727273 522.008217 
L 560.454545 522.008217 
" clip-path="url(#p326456d1d8)" style="fill: none; stroke: #1f77b4; stroke-width: 1.5"/>
    <path d="M 712.636364 509.84424 
L 763.363636 509.84424 
" clip-path="url(#p326456d1d8)" style="fill: none; stroke: #1f77b4; stroke-width: 1.5"/>
    <path d="M 915.545455 446.834842 
L 966.272727 446.834842 
" clip-path="url(#p326456d1d8)" style="fill: none; stroke: #1f77b4; stroke-width: 1.5"/>
    <path d="M 1118.454545 117.191079 
L 1169.181818 117.191079 
" clip-path="url(#p326456d1d8)" style="fill: none; stroke: #1f77b4; stroke-width: 1.5"/>
   </g>
   <g id="patch_3">
    <path d="M 180 630 
L 180 86.4 
" style="fill: none; stroke: #000000; stroke-width: 0.8; stroke-linejoin: miter; stroke-linecap: square"/>
   </g>
   <g id="patch_4">
    <path d="M 1296 630 
L 1296 86.4 
" style="fill: none; stroke: #000000; stroke-width: 0.8; stroke-linejoin: miter; stroke-linecap: square"/>
   </g>
   <g id="patch_5">
    <path d="M 180 630 
L 1296 630 
" style="fill: none; stroke: #000000; stroke-width: 0.8; stroke-linejoin: miter; stroke-linecap: square"/>
   </g>
   <g id="patch_6">
    <path d="M 180 86.4 
L 1296 86.4 
" style="fill: none; stroke: #000000; stroke-width: 0.8; stroke-linejoin: miter; stroke-linecap: square"/>
   </g>
   <g id="text_15">
    <!-- Queues Unbounded Data -->
    <g transform="translate(198.541534 207.934344)scale(0.18 -0.18)">
     <defs>
      <path id="DejaVuSans-51" d="M 2522 4238 
Q 1834 4238 1429 3725 
Q 1025 3213 1025 2328 
Q 1025 1447 1429 934 
Q 1834 422 2522 422 
Q 3209 422 3611 934 
Q 4013 1447 4013 2328 
Q 4013 3213 3611 3725 
Q 3209 4238 2522 4238 
z
M 3406 84 
L 4238 -825 
L 3475 -825 
L 2784 -78 
Q 2681 -84 2626 -87 
Q 2572 -91 2522 -91 
Q 1538 -91 948 567 
Q 359 1225 359 2328 
Q 359 3434 948 4092 
Q 1538 4750 2522 4750 
Q 3503 4750 4090 4092 
Q 4678 3434 4678 2328 
Q 4678 1516 4351 937 
Q 4025 359 3406 84 
z
" transform="scale(0.015625)"/>
      <path id="DejaVuSans-75" d="M 544 1381 
L 544 3500 
L 1119 3500 
L 1119 1403 
Q 1119 906 1312 657 
Q 1506 409 1894 409 
Q 2359 409 2629 706 
Q 2900 1003 2900 1516 
L 2900 3500 
L 3475 3500 
L 3475 0 
L 2900 0 
L 2900 538 
Q 2691 219 2414 64 
Q 2138 -91 1772 -91 
Q 1169 -91 856 284 
Q 544 659 544 1381 
z
M 1991 3584 
L 1991 3584 
z
" transform="scale(0.015625)"/>
      <path id="DejaVuSans-55" d="M 556 4666 
L 1191 4666 
L 1191 1831 
Q 1191 1081 1462 751 
Q 1734 422 2344 422 
Q 2950 422 3222 751 
Q 3494 1081 3494 1831 
L 3494 4666 
L 4128 4666 
L 4128 1753 
Q 4128 841 3676 375 
Q 3225 -91 2344 -91 
Q 1459 -91 1007 375 
Q 556 841 556 1753 
L 556 4666 
z
" transform="scale(0.015625)"/>
      <path id="DejaVuSans-62" d="M 3116 1747 
Q 3116 2381 2855 2742 
Q 2594 3103 2138 3103 
Q 1681 3103 1420 2742 
Q 1159 2381 1159 1747 
Q 1159 1113 1420 752 
Q 1681 391 2138 391 
Q 2594 391 2855 752 
Q 3116 1113 3116 1747 
z
M 1159 2969 
Q 1341 3281 1617 3432 
Q 1894 3584 2278 3584 
Q 2916 3584 3314 3078 
Q 3713 2572 3713 1747 
Q 3713 922 3314 415 
Q 2916 -91 2278 -91 
Q 1894 -91 1617 61 
Q 1341 213 1159 525 
L 1159 0 
L 581 0 
L 581 4863 
L 1159 4863 
L 1159 2969 
z
" transform="scale(0.015625)"/>
      <path id="DejaVuSans-44" d="M 1259 4147 
L 1259 519 
L 2022 519 
Q 2988 519 3436 956 
Q 3884 1394 3884 2338 
Q 3884 3275 3436 3711 
Q 2988 4147 2022 4147 
L 1259 4147 
z
M 628 4666 
L 1925 4666 
Q 3281 4666 3915 4102 
Q 4550 3538 4550 2338 
Q 4550 1131 3912 565 
Q 3275 0 1925 0 
L 628 0 
L 628 4666 
z
" transform="scale(0.015625)"/>
     </defs>
     <use xlink:href="#DejaVuSans-51"/>
     <use xlink:href="#DejaVuSans-75" x="78.710938"/>
     <use xlink:href="#DejaVuSans-65" x="142.089844"/>
     <use xlink:href="#DejaVuSans-75" x="203.613281"/>
     <use xlink:href="#DejaVuSans-65" x="266.992188"/>
     <use xlink:href="#DejaVuSans-73" x="328.515625"/>
     <use xlink:href="#DejaVuSans-20" x="380.615234"/>
     <use xlink:href="#DejaVuSans-55" x="412.402344"/>
     <use xlink:href="#DejaVuSans-6e" x="485.595703"/>
     <use xlink:href="#DejaVuSans-62" x="548.974609"/>
     <use xlink:href="#DejaVuSans-6f" x="612.451172"/>
     <use xlink:href="#DejaVuSans-75" x="673.632812"/>
     <use xlink:href="#DejaVuSans-6e" x="737.011719"/>
     <use xlink:href="#DejaVuSans-64" x="800.390625"/>
     <use xlink:href="#DejaVuSans-65" x="863.867188"/>
     <use xlink:href="#DejaVuSans-64" x="925.390625"/>
     <use xlink:href="#DejaVuSans-20" x="988.867188"/>
     <use xlink:href="#DejaVuSans-44" x="1020.654297"/>
     <use xlink:href="#DejaVuSans-61" x="1097.65625"/>
     <use xlink:href="#DejaVuSans-74" x="1158.935547"/>
     <use xlink:href="#DejaVuSans-61" x="1198.144531"/>
    </g>
   </g>
   <g id="text_16">
    <!-- All Reasonable Choices -->
    <g transform="translate(633.884063 207.934344)scale(0.18 -0.18)">
     <defs>
      <path id="DejaVuSans-41" d="M 2188 4044 
L 1331 1722 
L 3047 1722 
L 2188 4044 
z
M 1831 4666 
L 2547 4666 
L 4325 0 
L 3669 0 
L 3244 1197 
L 1141 1197 
L 716 0 
L 50 0 
L 1831 4666 
z
" transform="scale(0.015625)"/>
      <path id="DejaVuSans-52" d="M 2841 2188 
Q 3044 2119 3236 1894 
Q 3428 1669 3622 1275 
L 4263 0 
L 3584 0 
L 2988 1197 
Q 2756 1666 2539 1819 
Q 2322 1972 1947 1972 
L 1259 1972 
L 1259 0 
L 628 0 
L 628 4666 
L 2053 4666 
Q 2853 4666 3247 4331 
Q 3641 3997 3641 3322 
Q 3641 2881 3436 2590 
Q 3231 2300 2841 2188 
z
M 1259 4147 
L 1259 2491 
L 2053 2491 
Q 2509 2491 2742 2702 
Q 2975 2913 2975 3322 
Q 2975 3731 2742 3939 
Q 2509 4147 2053 4147 
L 1259 4147 
z
" transform="scale(0.015625)"/>
      <path id="DejaVuSans-43" d="M 4122 4306 
L 4122 3641 
Q 3803 3938 3442 4084 
Q 3081 4231 2675 4231 
Q 1875 4231 1450 3742 
Q 1025 3253 1025 2328 
Q 1025 1406 1450 917 
Q 1875 428 2675 428 
Q 3081 428 3442 575 
Q 3803 722 4122 1019 
L 4122 359 
Q 3791 134 3420 21 
Q 3050 -91 2638 -91 
Q 1578 -91 968 557 
Q 359 1206 359 2328 
Q 359 3453 968 4101 
Q 1578 4750 2638 4750 
Q 3056 4750 3426 4639 
Q 3797 4528 4122 4306 
z
" transform="scale(0.015625)"/>
      <path id="DejaVuSans-68" d="M 3513 2113 
L 3513 0 
L 2938 0 
L 2938 2094 
Q 2938 2591 2744 2837 
Q 2550 3084 2163 3084 
Q 1697 3084 1428 2787 
Q 1159 2491 1159 1978 
L 1159 0 
L 581 0 
L 581 4863 
L 1159 4863 
L 1159 2956 
Q 1366 3272 1645 3428 
Q 1925 3584 2291 3584 
Q 2894 3584 3203 3211 
Q 3513 2838 3513 2113 
z
" transform="scale(0.015625)"/>
     </defs>
     <use xlink:href="#DejaVuSans-41"/>
     <use xlink:href="#DejaVuSans-6c" x="68.408203"/>
     <use xlink:href="#DejaVuSans-6c" x="96.191406"/>
     <use xlink:href="#DejaVuSans-20" x="123.974609"/>
     <use xlink:href="#DejaVuSans-52" x="155.761719"/>
     <use xlink:href="#DejaVuSans-65" x="220.744141"/>
     <use xlink:href="#DejaVuSans-61" x="282.267578"/>
     <use xlink:href="#DejaVuSans-73" x="343.546875"/>
     <use xlink:href="#DejaVuSans-6f" x="395.646484"/>
     <use xlink:href="#DejaVuSans-6e" x="456.828125"/>
     <use xlink:href="#DejaVuSans-61" x="520.207031"/>
     <use xlink:href="#DejaVuSans-62" x="581.486328"/>
     <use xlink:href="#DejaVuSans-6c" x="644.962891"/>
     <use xlink:href="#DejaVuSans-65" x="672.746094"/>
     <use xlink:href="#DejaVuSans-20" x="734.269531"/>
     <use xlink:href="#DejaVuSans-43" x="766.056641"/>
     <use xlink:href="#DejaVuSans-68" x="835.880859"/>
     <use xlink:href="#DejaVuSans-6f" x="899.259766"/>
     <use xlink:href="#DejaVuSans-69" x="960.441406"/>
     <use xlink:href="#DejaVuSans-63" x="988.224609"/>
     <use xlink:href="#DejaVuSans-65" x="1043.205078"/>
     <use xlink:href="#DejaVuSans-73" x="1104.728516"/>
    </g>
   </g>
   <g id="text_17">
    <!-- Sloooooow -->
    <g transform="translate(1095.202713 207.934344)scale(0.18 -0.18)">
     <defs>
      <path id="DejaVuSans-77" d="M 269 3500 
L 844 3500 
L 1563 769 
L 2278 3500 
L 2956 3500 
L 3675 769 
L 4391 3500 
L 4966 3500 
L 4050 0 
L 3372 0 
L 2619 2869 
L 1863 0 
L 1184 0 
L 269 3500 
z
" transform="scale(0.015625)"/>
     </defs>
     <use xlink:href="#DejaVuSans-53"/>
     <use xlink:href="#DejaVuSans-6c" x="63.476562"/>
     <use xlink:href="#DejaVuSans-6f" x="91.259766"/>
     <use xlink:href="#DejaVuSans-6f" x="152.441406"/>
     <use xlink:href="#DejaVuSans-6f" x="213.623047"/>
     <use xlink:href="#DejaVuSans-6f" x="274.804688"/>
     <use xlink:href="#DejaVuSans-6f" x="335.986328"/>
     <use xlink:href="#DejaVuSans-6f" x="397.167969"/>
     <use xlink:href="#DejaVuSans-77" x="458.349609"/>
    </g>
   </g>
   <g id="text_18">
    <!-- Time to write 1GiB with various $\mathtt{fdatasync}$ Strategies -->
    <g transform="translate(447.372 80.4)scale(0.216 -0.216)">
     <defs>
      <path id="DejaVuSans-47" d="M 3809 666 
L 3809 1919 
L 2778 1919 
L 2778 2438 
L 4434 2438 
L 4434 434 
Q 4069 175 3628 42 
Q 3188 -91 2688 -91 
Q 1594 -91 976 548 
Q 359 1188 359 2328 
Q 359 3472 976 4111 
Q 1594 4750 2688 4750 
Q 3144 4750 3555 4637 
Q 3966 4525 4313 4306 
L 4313 3634 
Q 3963 3931 3569 4081 
Q 3175 4231 2741 4231 
Q 1884 4231 1454 3753 
Q 1025 3275 1025 2328 
Q 1025 1384 1454 906 
Q 1884 428 2741 428 
Q 3075 428 3337 486 
Q 3600 544 3809 666 
z
" transform="scale(0.015625)"/>
     </defs>
     <use xlink:href="#DejaVuSans-54" transform="translate(0 0.015625)"/>
     <use xlink:href="#DejaVuSans-69" transform="translate(61.083984 0.015625)"/>
     <use xlink:href="#DejaVuSans-6d" transform="translate(88.867188 0.015625)"/>
     <use xlink:href="#DejaVuSans-65" transform="translate(186.279297 0.015625)"/>
     <use xlink:href="#DejaVuSans-20" transform="translate(247.802734 0.015625)"/>
     <use xlink:href="#DejaVuSans-74" transform="translate(279.589844 0.015625)"/>
     <use xlink:href="#DejaVuSans-6f" transform="translate(318.798828 0.015625)"/>
     <use xlink:href="#DejaVuSans-20" transform="translate(379.980469 0.015625)"/>
     <use xlink:href="#DejaVuSans-77" transform="translate(411.767578 0.015625)"/>
     <use xlink:href="#DejaVuSans-72" transform="translate(493.554688 0.015625)"/>
     <use xlink:href="#DejaVuSans-69" transform="translate(534.667969 0.015625)"/>
     <use xlink:href="#DejaVuSans-74" transform="translate(562.451172 0.015625)"/>
     <use xlink:href="#DejaVuSans-65" transform="translate(601.660156 0.015625)"/>
     <use xlink:href="#DejaVuSans-20" transform="translate(663.183594 0.015625)"/>
     <use xlink:href="#DejaVuSans-31" transform="translate(694.970703 0.015625)"/>
     <use xlink:href="#DejaVuSans-47" transform="translate(758.59375 0.015625)"/>
     <use xlink:href="#DejaVuSans-69" transform="translate(836.083984 0.015625)"/>
     <use xlink:href="#DejaVuSans-42" transform="translate(863.867188 0.015625)"/>
     <use xlink:href="#DejaVuSans-20" transform="translate(932.470703 0.015625)"/>
     <use xlink:href="#DejaVuSans-77" transform="translate(964.257812 0.015625)"/>
     <use xlink:href="#DejaVuSans-69" transform="translate(1046.044922 0.015625)"/>
     <use xlink:href="#DejaVuSans-74" transform="translate(1073.828125 0.015625)"/>
     <use xlink:href="#DejaVuSans-68" transform="translate(1113.037109 0.015625)"/>
     <use xlink:href="#DejaVuSans-20" transform="translate(1176.416016 0.015625)"/>
     <use xlink:href="#DejaVuSans-76" transform="translate(1208.203125 0.015625)"/>
     <use xlink:href="#DejaVuSans-61" transform="translate(1267.382812 0.015625)"/>
     <use xlink:href="#DejaVuSans-72" transform="translate(1328.662109 0.015625)"/>
     <use xlink:href="#DejaVuSans-69" transform="translate(1369.775391 0.015625)"/>
     <use xlink:href="#DejaVuSans-6f" transform="translate(1397.558594 0.015625)"/>
     <use xlink:href="#DejaVuSans-75" transform="translate(1458.740234 0.015625)"/>
     <use xlink:href="#DejaVuSans-73" transform="translate(1522.119141 0.015625)"/>
     <use xlink:href="#DejaVuSans-20" transform="translate(1574.21875 0.015625)"/>
     <use xlink:href="#DejaVuSansMono-66" transform="translate(1606.005859 0.015625)"/>
     <use xlink:href="#DejaVuSansMono-64" transform="translate(1666.210938 0.015625)"/>
     <use xlink:href="#DejaVuSansMono-61" transform="translate(1726.416016 0.015625)"/>
     <use xlink:href="#DejaVuSansMono-74" transform="translate(1786.621094 0.015625)"/>
     <use xlink:href="#DejaVuSansMono-61" transform="translate(1846.826172 0.015625)"/>
     <use xlink:href="#DejaVuSansMono-73" transform="translate(1907.03125 0.015625)"/>
     <use xlink:href="#DejaVuSansMono-79" transform="translate(1967.236328 0.015625)"/>
     <use xlink:href="#DejaVuSansMono-6e" transform="translate(2027.441406 0.015625)"/>
     <use xlink:href="#DejaVuSansMono-63" transform="translate(2087.646484 0.015625)"/>
     <use xlink:href="#DejaVuSans-20" transform="translate(2147.851562 0.015625)"/>
     <use xlink:href="#DejaVuSans-53" transform="translate(2179.638672 0.015625)"/>
     <use xlink:href="#DejaVuSans-74" transform="translate(2243.115234 0.015625)"/>
     <use xlink:href="#DejaVuSans-72" transform="translate(2282.324219 0.015625)"/>
     <use xlink:href="#DejaVuSans-61" transform="translate(2323.4375 0.015625)"/>
     <use xlink:href="#DejaVuSans-74" transform="translate(2384.716797 0.015625)"/>
     <use xlink:href="#DejaVuSans-65" transform="translate(2423.925781 0.015625)"/>
     <use xlink:href="#DejaVuSans-67" transform="translate(2485.449219 0.015625)"/>
     <use xlink:href="#DejaVuSans-69" transform="translate(2548.925781 0.015625)"/>
     <use xlink:href="#DejaVuSans-65" transform="translate(2576.708984 0.015625)"/>
     <use xlink:href="#DejaVuSans-73" transform="translate(2638.232422 0.015625)"/>
    </g>
   </g>
  </g>
 </g>
 <defs>
  <clipPath id="p326456d1d8">
   <rect x="180" y="86.4" width="1116" height="543.6"/>
  </clipPath>
 </defs>
</svg>
